<svg width="430" height="270" viewBox="0 0 222 270" fill="none" xmlns="http://www.w3.org/2000/svg">
<mask id="mask0_481_73" style="mask-type:luminance" maskUnits="userSpaceOnUse" x="68" y="7" width="154" height="216">
<path d="M68.9672 7.8764H221.573V222.343H68.9672V7.8764Z" fill="white"/>
</mask>
<g mask="url(#mask0_481_73)">
<mask id="mask1_481_73" style="mask-type:luminance" maskUnits="userSpaceOnUse" x="-1" y="-1" width="224" height="231">
<path d="M3.07382 -0.869568L222.043 3.06556L218.203 229.58L-0.766541 225.645L3.07382 -0.869568Z" fill="white"/>
</mask>
<g mask="url(#mask1_481_73)">
<mask id="mask2_481_73" style="mask-type:luminance" maskUnits="userSpaceOnUse" x="-1" y="-1" width="224" height="231">
<path d="M3.07382 -0.869568L222.043 3.06556L218.203 229.58L-0.766541 225.645L3.07382 -0.869568Z" fill="white"/>
</mask>
<g mask="url(#mask2_481_73)">
<mask id="mask3_481_73" style="mask-type:luminance" maskUnits="userSpaceOnUse" x="-1" y="-1" width="224" height="231">
<path d="M3.07382 -0.869568L222.043 3.06556L218.203 229.58L-0.766541 225.645L3.07382 -0.869568Z" fill="white"/>
</mask>
<g mask="url(#mask3_481_73)">
<path d="M220.296 104.631C220.296 104.69 220.192 106.159 219.654 108.619C218.885 112.076 217.602 115.38 215.859 118.436C214.042 121.599 210.844 126.041 205.92 129.227C201.546 132.065 196.273 133.587 191.241 133.492C190.799 133.486 190.364 133.469 189.928 133.439C187.652 133.292 185.474 132.867 183.428 132.218C181.021 137.563 174.75 140.873 169.7 142.944C166.754 144.147 163.664 144.991 160.518 145.416C159.784 145.51 151.685 145.723 151.742 145.492C153.192 139.475 157.308 134.212 162.701 131.463C168.451 128.537 174.016 129.286 179.76 130.708C177.937 129.787 176.206 128.66 174.566 127.339C171.924 125.138 169.786 122.413 168.347 119.492C168.181 119.504 167.975 119.528 167.757 119.539C166.891 119.587 165.607 119.61 164.249 119.386C161.538 118.997 158.122 117.522 156.482 114.961C154.763 112.466 154.327 108.129 154.958 104.69C155.244 102.955 155.72 101.463 156.144 100.413C156.522 99.3447 156.878 98.7488 156.878 98.7488C156.878 98.7488 158.231 98.914 159.612 99.858C160.993 100.778 162.438 102.424 163.114 104.843C163.315 105.457 163.487 106.177 163.63 106.961C163.819 107.74 164.031 108.584 164.243 109.451C164.731 111.168 165.292 112.938 166.032 114.436C166.381 115.197 166.765 115.893 167.126 116.507C166.949 115.947 166.8 115.38 166.679 114.82C166.158 112.749 165.957 110.572 166.083 108.33C165.51 106.053 164.891 103.014 165 100.56C165.12 97.6987 165.928 94.4361 167.43 91.5925C168.812 88.7724 171.294 86.1942 173.569 84.9671C175.873 83.6809 178.435 83.2856 180.665 83.5334C182.746 83.7517 185.09 84.5482 186.701 85.9877C187.2 86.4361 190.977 90.7901 191.286 90.3712C189.343 93.1087 186.185 94.6249 183.061 95.6928C178.166 97.3624 172.13 98.5659 169.041 103.274C168.708 103.775 168.41 104.424 168.141 105.15C167.499 108.365 167.533 111.486 168.267 114.419C168.393 115.003 168.554 115.581 168.737 116.153C168.697 115.132 168.714 113.952 168.926 112.749C169.173 111.044 169.849 109.321 170.646 107.976C171.076 107.298 171.551 106.719 172.01 106.253C172.526 105.793 173.013 105.445 173.483 105.209C175.489 104.318 177.805 105.014 179.668 105.752C181.508 106.507 182.901 107.244 182.901 107.244C182.901 107.244 182.878 107.374 182.889 107.581C182.855 107.775 182.803 108.023 182.66 108.312C182.385 108.879 181.777 109.539 180.247 110.495C178.665 111.398 175.736 113.191 173.357 115.28C171.809 116.607 170.508 117.935 169.78 118.696C171.116 121.427 173.105 123.976 175.57 126.029C177.644 127.699 179.891 129.05 182.259 130.029C184.632 131.003 187.257 131.593 190.048 131.776C195.155 132.147 200.595 130.719 205.06 127.817C209.709 124.814 212.741 120.601 214.466 117.598C216.128 114.69 217.349 111.551 218.072 108.271C218.587 105.941 218.679 104.548 218.691 104.531C218.719 104.064 219.138 103.764 219.562 103.746C219.992 103.764 220.33 104.171 220.296 104.631ZM150.103 10.8959L153.33 12.4475H153.335C158.425 14.8723 168.416 20.0936 178.269 27.8812C184.792 32.9609 191.223 39.2913 196.118 45.3739C195.539 46.3061 194.479 48.0465 193.356 50.0288C191.716 52.9787 189.756 56.4949 189.28 58.8312C188.799 61.197 189.498 63.433 190.289 65.1439C190.673 66.0053 191.103 66.7192 191.441 67.2148C191.785 67.7103 192.009 68.0112 192.009 68.0112C192.009 68.0112 193.579 67.3976 195.362 66.2118C197.156 65.0142 199.099 63.2678 199.729 60.8194C200.4 58.377 199.821 54.2943 198.83 50.8548C198.468 49.5864 198.09 48.4005 197.723 47.427C198.113 47.9285 198.48 48.4359 198.835 48.9374C200.039 50.6129 201.111 52.1114 201.948 53.5038C201.994 53.5746 202.034 53.6336 202.08 53.7044C203.897 61.4212 202.693 69.4567 204.716 73.9346C207.066 81.9759 215.538 83.3387 215.538 83.3387C216.587 74.1587 208.837 60.7781 204.132 53.8637C203.879 53.4625 203.61 53.0495 203.312 52.5893C202.446 51.1616 201.357 49.6394 200.142 47.9403C194.995 40.7191 187.188 32.7131 179.249 26.542C169.27 18.6599 159.159 13.3679 154.012 10.9136L150.796 9.36787C150.389 9.16728 149.902 9.35017 149.707 9.76905C149.661 9.87525 149.633 9.99324 149.633 10.1053C149.627 10.4416 149.805 10.7484 150.103 10.8959ZM204.688 145.54L202.217 145.274C201.632 145.186 200.996 145.203 200.326 145.215C199.97 145.227 199.603 145.239 199.231 145.233C198.211 145.203 197.15 145.321 196.021 145.457C191.246 141.829 185.016 139.203 179.473 139.498C181.359 143.168 185.153 145.487 189.085 146.401C189.406 146.472 189.733 146.548 190.06 146.602C188.822 146.938 187.498 147.345 186.065 147.835C181.943 149.433 178.894 150.885 176.2 152.525C170.887 155.569 166.261 159.369 163.022 162.354C160.632 159.888 157.617 158.431 154.453 158.271C151.759 158.094 148.985 158.832 146.543 160.336C146.515 160.307 146.497 160.277 146.463 160.248C145.271 159.15 143.431 159.115 142.502 160.342C141.556 161.546 141.837 163.363 143.127 164.377C144.411 165.41 146.153 165.333 147.025 164.218C147.552 163.522 147.672 162.613 147.414 161.746C149.564 160.431 151.994 159.793 154.35 159.941C155.858 160.018 157.313 160.431 158.678 161.133C157.95 161.08 157.182 161.115 156.391 161.268C153.914 161.687 151.335 163.05 149.048 165.144C148.24 164.926 147.414 165.139 146.91 165.776C146.171 166.726 146.469 168.206 147.569 169.068C148.675 169.929 150.131 169.906 150.825 169.026C151.432 168.236 151.278 166.997 150.504 166.082C152.464 164.401 154.648 163.268 156.677 162.92C157.824 162.708 158.878 162.743 159.801 163.009C159.652 163.015 159.509 163.021 159.354 163.038C157.892 163.133 155.267 163.628 153.33 165.593C152.871 165.534 152.436 165.658 152.143 165.994C151.599 166.596 151.799 167.646 152.567 168.307C153.324 168.962 154.339 169.003 154.854 168.425C155.279 167.935 155.216 167.144 154.757 166.49C156.293 165.133 158.311 164.785 159.492 164.708C159.887 164.672 160.254 164.672 160.604 164.678C160.42 164.855 160.242 165.038 160.076 165.198C158.62 166.631 157.434 168.006 156.494 169.103C156.133 169.516 155.812 169.894 155.473 170.271L154.7 171.268C153.582 170.672 152.332 170.779 151.673 171.622C150.859 172.625 151.387 174.33 152.694 175.292C154.029 176.277 155.582 176.248 156.328 175.339C156.924 174.578 156.735 173.357 155.961 172.342L156.717 171.369C157.021 171.026 157.359 170.643 157.732 170.218C158.655 169.139 159.807 167.805 161.234 166.407C161.521 166.112 161.847 165.788 162.191 165.445C162.277 167.481 161.555 169.274 161.045 170.289C160.609 171.268 160.111 172.053 159.784 172.537C159.222 172.33 158.666 172.395 158.339 172.767C157.892 173.339 158.15 174.336 158.918 174.979C159.692 175.622 160.655 175.717 161.074 175.174C161.406 174.796 161.366 174.195 161.045 173.622C161.423 173.08 162.002 172.171 162.512 171.026C162.799 170.46 163.148 169.652 163.418 168.696C163.412 169.245 163.372 169.764 163.309 170.236C163.12 171.434 162.776 172.69 162.294 173.935C161.842 174.997 161.326 176 160.77 176.938C159.967 176.431 159.067 176.425 158.637 176.973C158.133 177.587 158.506 178.673 159.417 179.369C160.317 180.059 161.383 180.124 161.853 179.552C162.111 179.227 162.111 178.737 161.899 178.236C162.598 177.121 163.234 175.9 163.796 174.578C164.329 173.192 164.708 171.811 164.925 170.472C165.023 169.746 165.057 169.05 165.04 168.383C165.716 170.065 166.06 171.67 166.215 172.95C166.37 174.407 166.33 175.9 166.077 177.339C165.831 178.531 165.43 179.616 164.885 180.602C163.951 180.23 163.051 180.307 162.587 180.885C161.962 181.74 162.587 183.233 163.917 184.206C165.264 185.186 166.748 185.345 167.293 184.59C167.843 183.894 167.373 182.549 166.255 181.498C166.897 180.342 167.379 179.062 167.677 177.658C167.963 176.029 168.015 174.378 167.837 172.749C167.545 170.277 166.651 166.755 164.152 163.563C167.327 160.643 171.844 156.92 177.048 153.953C179.685 152.348 182.654 150.932 186.644 149.386C190.22 148.171 193.149 147.451 195.597 147.174L195.849 147.144C197.013 147.003 198.107 146.861 199.082 146.879C199.563 146.891 199.993 146.879 200.412 146.873C201.031 146.855 201.569 146.843 202.051 146.914L204.561 147.18C205.043 147.227 205.41 146.885 205.45 146.425C205.456 146 205.129 145.587 204.688 145.54ZM160.592 181.257C159.79 180.655 158.832 180.614 158.454 181.162C158.076 181.711 158.431 182.614 159.257 183.186C160.082 183.746 161.039 183.793 161.395 183.28C161.761 182.761 161.395 181.858 160.592 181.257ZM148.704 171.186C147.907 170.572 146.876 170.631 146.4 171.327C145.918 172.018 146.199 173.05 147.019 173.622C147.839 174.201 148.87 174.136 149.323 173.481C149.776 172.832 149.495 171.805 148.704 171.186ZM142.365 169.286C143.368 170.012 144.675 169.882 145.276 169.015C145.873 168.13 145.626 166.855 144.657 166.065C143.7 165.292 142.347 165.351 141.711 166.295C141.063 167.233 141.362 168.572 142.365 169.286ZM119.168 202.578C119.168 202.578 119.179 202.431 119.208 202.148C119.219 201.876 119.299 201.445 119.317 200.985C119.391 200.041 119.489 198.808 119.632 197.534C119.735 196.407 119.85 195.097 119.982 193.699C120.039 193.068 120.09 192.448 120.108 191.841C120.142 191.127 120.165 190.956 120.165 189.906C120.176 189.575 120.171 188.785 120.154 188.242C120.148 187.634 120.125 187.009 120.079 186.378C120.022 185.115 119.93 183.811 119.85 182.531C119.758 181.103 119.689 179.917 119.632 179.086C119.575 178.065 119.546 177.481 119.546 177.481C119.546 177.481 119.403 177.498 119.128 177.516C118.864 177.552 118.434 177.522 117.975 177.67C117.488 177.793 116.892 177.959 116.313 178.248C115.711 178.525 115.029 178.879 114.376 179.363C113.075 180.33 111.785 181.776 110.845 183.611C110.352 184.513 109.991 185.528 109.721 186.584C109.464 187.705 109.32 188.625 109.286 190.012C109.274 190.684 109.383 192.218 109.613 193.186C109.848 194.254 110.186 195.274 110.639 196.201C111.516 198.059 112.765 199.552 114.043 200.555C114.68 201.062 115.35 201.428 115.946 201.735C116.531 202.041 117.116 202.218 117.586 202.342C118.033 202.502 118.486 202.507 118.749 202.543C119.024 202.561 119.168 202.578 119.168 202.578ZM88.8 136.997C89.9751 136.607 91.0928 136.283 91.9239 136.053C92.8066 135.793 93.3168 135.646 93.3168 135.646C93.3168 135.646 93.248 135.528 93.1219 135.298C92.99 135.091 92.8009 134.708 92.5028 134.366C91.9239 133.61 90.9609 132.672 89.5853 131.858C88.2154 131.073 86.4385 130.466 84.4552 130.324C83.4636 130.253 82.4261 130.289 81.3829 130.46C80.42 130.59 79.0386 131.02 78.3909 131.292C77.1815 131.805 76.3847 132.289 75.4734 132.926C74.6078 133.551 73.8283 134.265 73.1749 135.026C71.8451 136.554 70.9681 138.253 70.5095 139.799C70.0624 141.369 70.0109 142.708 70.0854 143.693C70.0854 144.165 70.2344 144.543 70.2688 144.79C70.3318 145.05 70.3605 145.18 70.3605 145.18C70.3605 145.18 70.8248 144.926 71.6387 144.466C72.3839 144.059 73.3984 143.475 74.5161 142.914C75.6166 142.348 76.8032 141.764 77.9897 141.203C78.5628 140.938 79.1647 140.666 79.7723 140.389C80.3225 140.159 80.8843 139.917 81.4517 139.681C82.0822 139.427 82.7242 139.162 83.349 138.92C83.9566 138.714 84.5641 138.46 85.1832 138.236C86.3812 137.811 87.625 137.386 88.8 136.997ZM135.996 150.525C137.836 153.133 139.31 156.372 138.564 159.492C141.872 157.286 144.13 153.51 144.571 149.475C145.001 145.445 143.591 141.245 140.828 138.348C139.281 136.72 132.397 131.776 132.936 128.271C131.709 129.823 130.763 131.693 130.299 133.628C129.588 136.572 129.588 139.74 130.717 142.584C131.892 145.563 134.157 147.923 135.996 150.525ZM126.803 200.177C131.698 200.82 136.828 199.227 140.548 195.894C143.614 193.15 145.66 189.28 146.343 185.156C142.886 185.056 139.413 185.864 136.375 187.558C131.698 190.189 128.15 194.861 126.803 200.177ZM144.875 134.348C144.829 136.95 146.841 139.097 149.369 139.138C151.897 139.186 153.977 137.115 154.018 134.513C154.063 131.905 152.057 129.764 149.53 129.717C147.007 129.669 144.921 131.752 144.875 134.348ZM158.38 127.038C158.397 126 157.6 125.15 156.591 125.132C155.588 125.115 154.763 125.935 154.746 126.973C154.723 128.012 155.525 128.861 156.528 128.879C157.537 128.896 158.362 128.076 158.38 127.038ZM204.854 82.7547C202.991 82.7193 201.449 84.2532 201.415 86.1765C201.386 88.1057 202.871 89.6927 204.739 89.7222C206.608 89.7576 208.144 88.2237 208.178 86.3004C208.201 84.3771 206.722 82.7901 204.854 82.7547ZM210.23 94.9081C210.213 96.0291 211.073 96.9494 212.162 96.9671C213.245 96.9907 214.139 96.0998 214.157 94.9789C214.174 93.858 213.314 92.9376 212.231 92.9199C211.142 92.9081 210.248 93.799 210.23 94.9081ZM209.153 130.79C207.124 130.749 205.456 132.413 205.421 134.507C205.387 136.596 206.998 138.318 209.027 138.354C211.056 138.389 212.724 136.725 212.758 134.637C212.798 132.548 211.182 130.826 209.153 130.79ZM97.3807 119.48C95.2885 119.439 93.5632 121.162 93.5231 123.315C93.4887 125.475 95.1567 127.256 97.2488 127.292C99.341 127.327 101.072 125.61 101.106 123.451C101.147 121.298 99.4728 119.516 97.3807 119.48ZM118.732 164.749C121.558 164.796 123.891 162.472 123.942 159.563C123.988 156.649 121.736 154.248 118.91 154.195C116.084 154.141 113.751 156.466 113.705 159.38C113.654 162.289 115.906 164.696 118.732 164.749ZM125.96 171.929C127.192 171.953 128.207 170.944 128.23 169.67C128.253 168.401 127.273 167.357 126.04 167.333C124.808 167.31 123.793 168.324 123.77 169.593C123.747 170.861 124.728 171.906 125.96 171.929ZM169.196 194.673C167.104 194.637 165.384 196.354 165.35 198.502C165.315 200.661 166.983 202.431 169.064 202.472C171.162 202.507 172.881 200.791 172.916 198.637C172.962 196.49 171.294 194.708 169.196 194.673ZM172.853 187.121C171.936 187.103 171.173 187.853 171.156 188.808C171.139 189.764 171.867 190.537 172.795 190.555C173.712 190.572 174.475 189.823 174.492 188.867C174.503 187.912 173.77 187.139 172.853 187.121ZM200.32 152.313C199.626 152.301 199.053 152.873 199.042 153.587C199.03 154.301 199.58 154.891 200.274 154.902C200.968 154.914 201.541 154.342 201.552 153.628C201.564 152.914 201.013 152.324 200.32 152.313ZM121.581 213.9C119.552 213.864 117.878 215.522 117.844 217.617C117.809 219.705 119.42 221.428 121.449 221.463C123.478 221.499 125.146 219.841 125.186 217.746C125.221 215.658 123.604 213.935 121.581 213.9ZM127.015 205.617C126.115 205.599 125.375 206.342 125.364 207.263C125.347 208.183 126.069 208.95 126.957 208.968C127.851 208.985 128.597 208.242 128.614 207.322C128.631 206.401 127.92 205.628 127.015 205.617ZM193.935 97.1972C193.917 98.3417 194.8 99.2975 195.918 99.3152C197.03 99.3329 197.958 98.4243 197.976 97.268C197.993 96.1175 197.11 95.1736 195.992 95.15C194.869 95.1382 193.952 96.0527 193.935 97.1972ZM148.251 114.36C150.384 114.395 152.138 112.655 152.172 110.454C152.212 108.253 150.51 106.448 148.383 106.413C146.262 106.371 144.497 108.118 144.463 110.318C144.422 112.513 146.119 114.318 148.251 114.36ZM90.2101 163.605C86.662 163.54 83.733 166.448 83.6757 170.106C83.6126 173.764 86.4327 176.779 89.9865 176.844C93.5346 176.909 96.4578 174 96.5209 170.336C96.5839 166.678 93.7581 163.67 90.2101 163.605ZM201.145 143.015C202.561 143.044 203.73 141.876 203.759 140.419C203.782 138.956 202.653 137.752 201.237 137.722C199.815 137.699 198.646 138.867 198.623 140.324C198.595 141.787 199.729 142.991 201.145 143.015ZM183.566 67.085C182.734 70.3593 183.032 73.9228 184.397 77.0024C185.761 80.0821 188.185 82.6367 191.137 84.1293C191.103 77.2384 188.518 70.4183 184.099 65.2737C183.909 65.8755 183.726 66.4832 183.566 67.085Z" fill="#13577A"/>
</g>
</g>
</g>
</g>
<mask id="mask4_481_73" style="mask-type:luminance" maskUnits="userSpaceOnUse" x="51" y="22" width="167" height="207">
<path d="M51.3586 22.9813H217.171V228.386H51.3586V22.9813Z" fill="white"/>
</mask>
<g mask="url(#mask4_481_73)">
<mask id="mask5_481_73" style="mask-type:luminance" maskUnits="userSpaceOnUse" x="-1" y="-1" width="224" height="231">
<path d="M3.07376 -0.86969L222.043 3.06544L218.203 229.58L-0.766602 225.645L3.07376 -0.86969Z" fill="white"/>
</mask>
<g mask="url(#mask5_481_73)">
<mask id="mask6_481_73" style="mask-type:luminance" maskUnits="userSpaceOnUse" x="-1" y="-1" width="224" height="231">
<path d="M3.07376 -0.86969L222.043 3.06544L218.203 229.58L-0.766602 225.645L3.07376 -0.86969Z" fill="white"/>
</mask>
<g mask="url(#mask6_481_73)">
<mask id="mask7_481_73" style="mask-type:luminance" maskUnits="userSpaceOnUse" x="-1" y="-1" width="224" height="231">
<path d="M3.07376 -0.86969L222.043 3.06544L218.203 229.58L-0.766602 225.645L3.07376 -0.86969Z" fill="white"/>
</mask>
<g mask="url(#mask7_481_73)">
<path d="M187.886 103.265C188.672 102.663 189.405 102.315 190.214 102.002C191.824 101.43 193.521 101.306 195.086 101.613C196.65 101.896 198.083 102.586 199.23 103.542C199.522 103.772 199.774 104.044 200.027 104.303L200.221 104.498C200.37 104.669 200.348 104.651 200.416 104.734L200.697 105.106C201.19 105.784 201.505 106.404 201.752 107.082C202.732 109.79 202.033 112.557 200.709 114.244C199.413 116.026 197.47 116.722 196.026 116.646C194.547 116.61 193.544 115.973 192.971 115.513C192.397 115.029 192.174 114.705 192.174 114.705C192.174 114.705 192.237 114.752 192.329 114.828C191.841 114.209 191.532 113.424 191.549 112.557C191.583 110.628 193.131 109.088 195.005 109.117C196.88 109.153 198.376 110.746 198.341 112.681C198.318 113.873 197.722 114.911 196.834 115.525C197.791 115.159 198.725 114.404 199.327 113.271C200.141 111.825 200.29 109.796 199.459 108.085C199.253 107.666 198.949 107.259 198.697 106.964L198.382 106.64C198.347 106.604 198.221 106.48 198.267 106.527L198.118 106.409C197.917 106.25 197.728 106.091 197.505 105.961C196.65 105.401 195.67 105.005 194.627 104.923C193.578 104.811 192.495 104.999 191.526 105.448C191.062 105.672 190.535 105.985 190.196 106.28C190.053 106.368 189.755 106.669 189.503 106.923L188.993 107.542C187.565 109.436 187.055 112.032 187.588 114.415C187.835 115.56 188.465 116.811 189.084 117.601C189.984 118.687 190.942 119.442 192.071 120.067C194.283 121.33 196.971 121.666 199.402 121.041C200.594 120.728 201.786 120.179 202.761 119.513C203.741 118.858 204.761 117.831 205.495 116.834C207.06 114.793 207.977 112.362 208.332 109.967C208.607 107.554 208.372 105.176 207.69 103.106C206.962 101.029 205.959 99.3593 204.75 97.9197C203.557 96.5333 202.342 95.4654 201.265 94.6926C199.092 93.1409 197.619 92.5863 197.619 92.5863C197.619 92.5863 197.997 92.6748 198.703 92.84C199.402 93.0347 200.439 93.3238 201.695 93.9315C202.938 94.5215 204.423 95.3887 205.913 96.6926C207.358 97.9551 208.945 99.8194 209.994 102.126C211.072 104.439 211.702 107.259 211.565 110.262C211.376 113.247 210.493 116.451 208.579 119.165C207.627 120.563 206.601 121.749 205.174 122.864C203.735 123.973 202.176 124.758 200.456 125.224C197.04 126.174 193.223 125.767 190.024 124.014C188.448 123.159 186.975 121.879 185.92 120.557C184.619 118.887 183.914 117.235 183.496 115.359C182.676 111.654 183.811 107.731 186.041 105.047C186.362 104.704 186.562 104.445 186.975 104.044C187.239 103.79 187.451 103.583 187.886 103.265ZM216.471 138.492C216.471 138.492 214.712 140.227 212.631 143.1C210.648 146.026 207.96 149.873 206.349 154.557C205.409 156.841 204.801 159.136 204.406 161.318C204.01 163.501 203.632 165.46 203.489 167.242C203.345 169.006 203.277 170.487 203.236 171.531L199.763 177.448C199.402 178.027 198.995 178.616 198.571 179.23L195.653 183.525C195.12 184.245 194.553 184.965 193.974 185.702L192.994 186.947C191.721 188.622 190.334 190.274 188.872 191.909C189.314 191.218 189.732 190.522 190.139 189.797C191.205 187.844 191.916 185.655 192.3 183.655C193.022 179.602 191.669 176.522 190.397 174.628C189.079 172.693 187.669 171.755 187.669 171.755C187.669 171.755 187.267 172.286 186.666 173.201C186.029 174.091 185.313 175.472 184.338 176.9C183.387 178.351 182.487 180.121 181.599 181.897C180.681 183.637 179.925 185.549 179.483 187.466C178.452 191.159 178.985 194.387 179.793 196.652C180.234 197.944 180.79 198.906 181.186 199.507C174.565 205.354 166.954 210.516 159.227 214.28C153.908 216.947 148.554 218.983 143.493 220.546C147.769 218.487 152.114 215.519 154.808 211.867C156.521 209.484 157.433 207.142 157.863 205.03C158.253 202.835 158.167 200.859 157.891 199.195C157.335 195.873 156.092 193.749 156.092 193.749C156.092 193.749 153.042 195.366 149.11 197.814C145.144 200.21 140.18 203.325 136.466 207.266C134.608 209.248 133.279 211.307 132.321 213.254C131.37 215.23 130.82 217.189 130.51 218.841C130.103 221.042 130.155 222.841 130.241 223.826C124.727 224.853 120.233 225.313 117.499 225.502C111.411 225.986 106.373 225.932 103.209 225.814C99.8158 225.679 97.8383 225.443 97.8211 225.443C97.374 225.39 96.9728 225.714 96.9155 226.18C96.8696 226.646 97.1849 227.053 97.6319 227.112C97.7122 227.124 99.6725 227.348 103.14 227.496C103.84 227.525 104.636 227.549 105.519 227.561C108.637 227.62 112.804 227.561 117.613 227.183C124.503 226.694 142.392 224.593 159.932 215.808C173.104 209.401 185.943 199 194.289 187.991L195.252 186.77C195.848 186.009 196.433 185.271 196.989 184.51L199.923 180.209C200.365 179.566 200.783 178.959 201.167 178.345L204.744 172.245C204.87 172.032 204.979 171.844 205.065 171.672C208.103 168.829 214.11 161.69 216.85 147.849C217.75 142.958 216.471 138.492 216.471 138.492ZM88.3577 195.006C93.8604 193.844 98.8184 190.829 102.338 186.522C105.685 182.528 107.623 177.431 107.668 172.51C107.714 168.168 106.476 163.814 104.161 160.239C103.908 159.843 103.645 159.484 103.375 159.124C103.192 158.728 102.98 158.315 102.728 157.879C101.054 154.882 97.6262 150.953 92.221 148.722C89.5614 147.613 86.3917 146.982 83.1188 147.141C79.8631 147.289 76.5386 148.191 73.5121 149.849C70.5029 151.525 67.8031 153.95 65.9345 156.947C64.0487 159.932 63.0973 163.159 62.8451 166.068C62.2719 171.873 64.4844 177.755 68.3305 181.301C72.2282 184.923 76.6933 185.696 79.9949 185.354C83.3652 185.018 85.6924 183.549 86.9419 182.392C87.5725 181.773 87.9909 181.289 88.2316 180.906C88.4724 180.546 88.5985 180.351 88.5985 180.351C88.5985 180.351 88.3692 180.351 87.945 180.369C87.5381 180.404 86.919 180.369 86.214 180.304C84.7696 180.133 82.8436 179.555 81.0954 178.339C79.3415 177.171 77.7709 175.319 77.192 173.537C76.55 171.749 76.3609 169.649 76.5672 167.372C76.7793 165.065 77.3639 162.457 79.9318 159.826C82.4711 157.271 86.5063 155.489 90.639 155.637C94.7947 155.696 98.6923 157.46 101.1 159.348C101.449 159.607 101.77 159.873 102.063 160.133C102.315 160.463 102.556 160.805 102.791 161.177C104.929 164.475 106.075 168.487 106.023 172.498C105.989 177.024 104.189 181.732 101.088 185.437C97.844 189.401 93.0808 192.286 88.0024 193.366C82.7921 194.51 76.9684 194.056 71.6206 192.068C65.9632 189.968 61.1369 186.292 58.036 181.714C55.0095 177.324 53.5651 171.36 53.9606 164.941C54.2873 159.46 55.6859 153.843 58.1162 148.25C62.1916 138.87 69.2075 130.528 77.3811 125.348C84.8613 120.533 92.2096 118.651 97.0645 117.914C99.0706 117.613 101.048 117.43 102.951 117.383C104.149 117.353 104.86 117.359 105.003 117.359C105.026 117.359 105.032 117.359 105.032 117.359C105.485 117.371 105.851 117 105.863 116.539C105.869 116.073 105.513 115.696 105.06 115.678C105.06 115.666 104.304 115.654 102.894 115.696C100.934 115.743 98.893 115.932 96.818 116.25C91.8141 117.005 84.225 118.952 76.5099 123.92C68.0668 129.271 60.8217 137.885 56.6145 147.566C54.1096 153.348 52.6652 159.159 52.3213 164.841C51.8971 171.649 53.4505 177.985 56.689 182.687C59.9791 187.543 65.0748 191.437 71.0531 193.649C74.4751 194.917 78.0862 195.596 81.6227 195.655C83.9384 195.702 86.1968 195.484 88.3577 195.006ZM121.373 135.354C120.749 133.719 119.66 132.339 118.485 130.923C117.55 129.867 116.444 128.705 115.16 127.649C115.172 126.74 114.73 125.849 113.893 125.43C112.661 124.769 111.131 125.253 110.483 126.522C109.835 127.784 110.259 129.324 111.429 129.949C112.483 130.475 113.767 130.239 114.547 129.318C115.579 130.203 116.49 131.165 117.258 132.038C118.324 133.318 119.316 134.581 119.855 135.985C120.468 137.507 120.691 138.87 120.554 140.014C120.468 139.631 120.37 139.218 120.244 138.787C119.614 136.327 118.037 134.05 115.865 132.404C115.802 131.896 115.538 131.418 115.091 131.118C114.272 130.569 113.206 130.852 112.695 131.737C112.197 132.628 112.42 133.761 113.2 134.268C113.847 134.699 114.684 134.581 115.269 134.032C116.948 135.424 118.169 137.253 118.674 139.23C118.794 139.649 118.886 140.038 118.966 140.404L118.198 139.761C116.415 138.368 114.707 137.259 113.326 136.374C112.621 135.908 111.979 135.501 111.44 135.118C110.93 134.758 110.466 134.486 110.076 134.274C110.403 133.017 109.927 131.708 108.803 131.106C107.445 130.374 105.76 131 105.026 132.498C104.304 133.997 104.739 135.761 106.001 136.439C107.038 137 108.356 136.663 109.245 135.725C109.606 135.926 110.036 136.174 110.506 136.504C111.062 136.893 111.727 137.324 112.449 137.802C113.865 138.711 115.475 139.755 117.183 141.088L118.599 142.268C116.96 142.386 115.326 141.908 113.739 141.442L113.005 141.23C111.761 140.811 110.741 140.298 110.099 139.967C110.168 139.336 109.938 138.716 109.445 138.386C108.729 137.873 107.691 138.268 107.198 139.165C106.711 140.056 106.935 141.088 107.611 141.572C108.11 141.902 108.763 141.826 109.296 141.43C109.984 141.808 111.131 142.363 112.541 142.846L113.303 143.07C114.117 143.306 114.977 143.554 115.865 143.725C115.229 143.773 114.535 143.761 113.807 143.684C112.174 143.554 110.689 143.289 109.382 142.876C108.305 142.545 107.216 142.073 106.064 141.566C105.903 141.501 105.737 141.43 105.576 141.36C105.897 140.445 105.616 139.478 104.86 139.076C104 138.61 102.877 139.07 102.361 140.109C101.845 141.135 102.091 142.327 102.911 142.764C103.375 143.011 103.937 142.964 104.441 142.693C104.774 142.835 105.106 142.976 105.427 143.118C106.625 143.637 107.754 144.138 108.912 144.481C110.322 144.929 111.927 145.224 113.658 145.354C114.1 145.407 114.524 145.436 114.942 145.448C115.533 145.454 116.089 145.419 116.622 145.342C115.143 146.18 113.475 146.781 111.698 147.088C109.761 147.401 108.116 147.484 106.792 147.289C105.404 147.141 104.12 146.687 102.687 146.132C102.808 145.088 102.412 144.109 101.587 143.672C100.395 143.035 98.8528 143.749 98.1306 145.259C97.4027 146.776 97.7007 148.481 98.8012 149.065C99.8387 149.613 101.272 149 102.114 147.714C103.639 148.315 105.032 148.811 106.597 148.97C107.067 149.041 107.554 149.071 108.087 149.082C109.222 149.1 110.506 148.994 111.967 148.752C115.475 148.144 118.599 146.516 120.869 144.15L121.362 144.563C122.245 145.43 123.127 146.38 124.027 147.354C124.526 147.891 125.036 148.439 125.552 148.982C125.982 149.436 126.343 149.973 126.733 150.545C126.962 150.876 127.18 151.212 127.392 151.489C127.616 151.82 127.851 152.15 128.091 152.481C128.51 153.053 128.905 153.596 129.203 154.144C129.473 154.728 129.776 155.312 130.074 155.902C130.814 157.348 131.525 158.717 131.891 160.251C131.995 160.664 132.132 161.065 132.281 161.472C132.511 162.144 132.728 162.776 132.786 163.478L133.284 166.746L133.307 167.832C133.342 169.726 133.382 171.513 133.032 173.295C132.889 174.864 132.47 176.375 132.058 177.826C131.932 178.286 131.794 178.752 131.714 179.106C131.53 179.566 131.353 180.027 131.175 180.481C130.671 181.802 130.195 183.035 129.553 184.156C128.045 187.266 126.263 189.59 125.185 190.994C124.824 191.513 124.463 191.897 124.165 192.215C123.993 192.392 123.85 192.558 123.746 192.67L123.208 193.277C122.904 193.62 122.921 194.151 123.254 194.463C123.408 194.611 123.603 194.687 123.792 194.687C124.022 194.693 124.239 194.605 124.406 194.416L124.967 193.779C125.076 193.661 125.202 193.519 125.34 193.366C125.678 193 126.085 192.558 126.481 191.997C127.587 190.558 129.427 188.15 130.98 184.941C131.651 183.767 132.161 182.469 132.688 181.088C132.866 180.646 133.032 180.192 133.256 179.643C133.376 179.195 133.496 178.746 133.628 178.292C134.07 176.758 134.511 175.183 134.654 173.531C135.021 171.655 134.981 169.69 134.941 167.796L134.918 166.599L134.408 163.283C134.345 162.422 134.081 161.655 133.817 160.911C133.697 160.546 133.565 160.186 133.474 159.826C133.061 158.109 132.281 156.587 131.519 155.112C131.232 154.546 130.94 153.979 130.653 153.371C130.287 152.681 129.839 152.068 129.41 151.472C129.186 151.165 128.957 150.852 128.722 150.498C128.504 150.197 128.28 149.885 128.08 149.584C127.667 148.988 127.254 148.374 126.733 147.808C126.217 147.265 125.713 146.717 125.214 146.186C124.291 145.189 123.397 144.221 122.434 143.301L121.935 142.882C124.004 140.097 124.755 136.699 124.079 133.006C123.764 131.1 123.03 129.283 121.758 127.295C121.144 126.339 120.445 125.424 119.677 124.563C119.705 124.528 119.728 124.504 119.751 124.463C120.623 123.053 120.09 121.082 118.571 120.091C117.046 119.259 115.189 119.79 114.415 121.265C113.641 122.734 114.186 124.563 115.624 125.342C116.501 125.908 117.539 125.973 118.404 125.607C119.138 126.427 119.814 127.3 120.399 128.209C121.534 129.991 122.193 131.601 122.468 133.283C122.824 135.212 122.726 137.047 122.216 138.722C122.13 137.69 121.849 136.551 121.373 135.354ZM98.4917 142.486C99.1967 142.87 100.143 142.439 100.59 141.531C101.042 140.616 100.807 139.56 100.068 139.153C99.3229 138.758 98.3828 139.183 97.9644 140.115C97.546 141.041 97.781 142.103 98.4917 142.486ZM106.167 128.775C106.998 129.224 108.035 128.84 108.5 127.938C108.958 127.035 108.643 125.926 107.777 125.46C106.918 124.994 105.874 125.377 105.445 126.298C105.02 127.218 105.347 128.327 106.167 128.775ZM109.984 124.062C111.062 124.64 112.403 124.209 112.988 123.094C113.572 121.985 113.137 120.604 112.008 119.991C110.884 119.389 109.543 119.825 108.998 120.958C108.471 122.103 108.907 123.489 109.984 124.062ZM110.907 213.679C110.918 213.685 110.936 213.702 110.947 213.708C110.953 213.679 110.953 213.643 110.964 213.62C111.102 213.472 111.176 213.39 111.176 213.39C111.176 213.39 111.113 213.342 111.022 213.266C111.698 209 110.552 204.457 107.783 200.552C105.915 197.903 102.527 194.587 99.4719 192.74C97.7695 201.419 101.575 206.109 106.557 210.263C103.438 208.522 99.0191 206.711 94.0495 206.711C84.5346 206.723 76.699 213.425 76.699 213.425C76.699 213.425 84.4256 222.074 93.9406 222.062C102.43 222.045 109.468 215.171 110.907 213.679ZM136.19 126.71C142.272 128.451 148.692 124.345 148.692 124.345C148.692 124.345 145.253 117.401 139.177 115.66C133.095 113.914 126.675 118.026 126.675 118.026C126.675 118.026 130.109 124.964 136.19 126.71ZM166.925 33.8307C169.705 34.0903 172.313 33.2821 174.262 32.344C176.199 31.406 177.42 30.344 177.42 30.344C177.42 30.344 177.11 29.931 176.56 29.2879C176.016 28.6331 175.19 27.8071 174.193 26.9752C172.192 25.2702 169.401 23.7068 166.529 23.5829C163.646 23.5062 161.239 24.7805 159.531 26.0962C157.823 27.4 156.82 28.6862 156.82 28.6862C156.82 28.6862 158.017 29.8543 159.857 31.0579C161.686 32.2732 164.162 33.5417 166.925 33.8307ZM184.745 58.3324C186.121 58.297 187.113 57.9902 187.113 57.9902C187.113 57.9902 186.769 56.6569 185.983 55.0521C185.158 53.4769 183.828 51.6775 182.057 50.881C180.32 50.0374 178.532 50.3205 177.237 50.7276C175.93 51.1465 175.058 51.7188 175.058 51.7188C175.058 51.7188 175.185 51.9607 175.42 52.3442C175.66 52.7276 175.998 53.2527 176.4 53.8427C177.277 54.9931 178.412 56.3855 180.022 57.2705C181.576 58.1672 183.358 58.3737 184.745 58.3324ZM170.725 37.6066C169.246 38.6095 168.358 39.6479 168.358 39.6479C168.358 39.6479 168.593 39.9075 169.023 40.2969C169.458 40.6804 170.06 41.2113 170.777 41.8013C172.261 42.9105 174.17 44.2261 176.491 44.7217C178.744 45.2704 181.043 44.8692 182.762 44.3028C184.47 43.7541 185.594 43.0049 185.594 43.0049C185.594 43.0049 184.699 41.4591 183.163 39.7482C181.581 38.0904 179.3 36.344 176.801 36.0078C174.342 35.6066 172.198 36.6213 170.725 37.6066ZM175.46 69.772C176.142 71.1113 176.801 72.0611 176.801 72.0611C176.801 72.0611 177.752 71.4239 178.733 70.1555C179.701 68.9048 180.67 66.9637 180.613 64.769C180.567 62.5802 179.506 60.71 178.486 59.5124C177.46 58.3088 176.474 57.7247 176.474 57.7247C176.474 57.7247 175.849 58.71 175.242 60.0669C174.629 61.4416 173.998 63.1407 174.032 64.946C174.073 66.7513 174.783 68.4269 175.46 69.772ZM191.675 165.431C193.974 162.392 194.96 158.392 194.507 154.587C191.715 155.389 189.073 156.758 186.815 158.64C183.381 161.472 180.859 165.425 179.638 169.779C177.334 170.823 174.6 171.578 171.39 171.773C170.937 171.796 170.593 172.198 170.628 172.664C170.651 173.1 171.006 173.448 171.424 173.454C171.442 173.454 171.465 173.454 171.487 173.454C175.156 173.242 178.245 172.31 180.83 171.035C185.003 170.906 189.102 168.829 191.675 165.431ZM199.688 75.9609C201.958 72.1673 202.635 67.3885 201.511 63.0817C197.803 64.6569 194.811 67.9254 193.486 71.8251C192.392 75.0346 192.472 78.6157 193.601 81.8075C196.072 80.4447 198.215 78.421 199.688 75.9609ZM117.797 205.454C116.639 205.431 115.682 206.387 115.664 207.578C115.642 208.776 116.564 209.761 117.728 209.785C118.886 209.803 119.843 208.853 119.866 207.655C119.883 206.463 118.96 205.472 117.797 205.454ZM139.567 177.814C139.538 179.283 140.678 180.499 142.1 180.522C143.527 180.546 144.708 179.372 144.731 177.903C144.754 176.434 143.619 175.218 142.192 175.195C140.77 175.171 139.589 176.345 139.567 177.814ZM166.163 150.374C166.191 148.817 164.982 147.525 163.469 147.495C161.955 147.472 160.7 148.717 160.677 150.274C160.648 151.838 161.858 153.13 163.371 153.153C164.884 153.183 166.14 151.932 166.163 150.374ZM171.379 145.902C170.639 145.891 170.02 146.504 170.009 147.265C169.997 148.026 170.588 148.663 171.333 148.675C172.072 148.687 172.685 148.079 172.697 147.312C172.708 146.551 172.118 145.92 171.379 145.902ZM198.903 161.2C198.892 161.914 199.442 162.504 200.135 162.522C200.829 162.534 201.402 161.961 201.414 161.248C201.425 160.534 200.875 159.944 200.181 159.932C199.488 159.92 198.915 160.487 198.903 161.2ZM175.167 160.776C174.136 160.758 173.293 161.608 173.276 162.658C173.259 163.714 174.078 164.593 175.104 164.61C176.125 164.628 176.973 163.779 176.996 162.728C177.013 161.672 176.199 160.793 175.167 160.776ZM195.619 171.991C195.607 172.687 196.146 173.26 196.822 173.271C197.499 173.283 198.055 172.729 198.066 172.032C198.078 171.336 197.539 170.764 196.863 170.752C196.192 170.74 195.63 171.295 195.619 171.991ZM175.941 179.153C175.935 179.537 176.228 179.85 176.6 179.855C176.967 179.861 177.271 179.56 177.277 179.177C177.282 178.799 176.99 178.487 176.623 178.475C176.251 178.469 175.947 178.77 175.941 179.153ZM160.517 190.327C160.499 191.49 161.399 192.451 162.528 192.475C163.652 192.493 164.586 191.566 164.609 190.404C164.626 189.242 163.726 188.28 162.597 188.257C161.474 188.239 160.54 189.165 160.517 190.327ZM149.62 192.522C150.257 192.534 150.79 192.015 150.801 191.348C150.812 190.693 150.302 190.145 149.66 190.133C149.024 190.121 148.491 190.646 148.48 191.307C148.468 191.962 148.984 192.51 149.62 192.522ZM188.121 48.2615C189.554 48.2851 190.741 47.1052 190.77 45.6243C190.792 44.1494 189.646 42.9282 188.213 42.8987C186.78 42.8751 185.594 44.055 185.565 45.5359C185.542 47.0108 186.688 48.232 188.121 48.2615ZM182.177 118.581C182.206 117.094 181.06 115.873 179.615 115.849C178.177 115.82 176.99 117 176.961 118.486C176.938 119.973 178.085 121.194 179.524 121.224C180.968 121.247 182.155 120.067 182.177 118.581ZM195.298 137.059C195.303 136.475 194.856 135.997 194.289 135.985C193.727 135.973 193.263 136.439 193.251 137.017C193.24 137.601 193.693 138.079 194.255 138.091C194.816 138.103 195.286 137.637 195.298 137.059ZM154.257 121.489C155.174 121.507 155.925 120.758 155.943 119.808C155.96 118.864 155.232 118.091 154.315 118.073C153.398 118.056 152.641 118.805 152.624 119.749C152.612 120.699 153.34 121.472 154.257 121.489ZM167.899 125.826C167.928 124.292 166.741 123.023 165.251 123C163.761 122.97 162.534 124.197 162.506 125.731C162.483 127.265 163.669 128.528 165.159 128.557C166.644 128.581 167.876 127.359 167.899 125.826Z" fill="#2093A3"/>
</g>
</g>
</g>
</g>
<mask id="mask8_481_73" style="mask-type:luminance" maskUnits="userSpaceOnUse" x="0" y="6" width="153" height="215">
<path d="M0 6.36682H152.606V220.834H0V6.36682Z" fill="white"/>
</mask>
<g mask="url(#mask8_481_73)">
<mask id="mask9_481_73" style="mask-type:luminance" maskUnits="userSpaceOnUse" x="-1" y="-1" width="224" height="231">
<path d="M3.07382 -0.869568L222.043 3.06556L218.203 229.58L-0.766541 225.645L3.07382 -0.869568Z" fill="white"/>
</mask>
<g mask="url(#mask9_481_73)">
<mask id="mask10_481_73" style="mask-type:luminance" maskUnits="userSpaceOnUse" x="-1" y="-1" width="224" height="231">
<path d="M3.07382 -0.869568L222.043 3.06556L218.203 229.58L-0.766541 225.645L3.07382 -0.869568Z" fill="white"/>
</mask>
<g mask="url(#mask10_481_73)">
<mask id="mask11_481_73" style="mask-type:luminance" maskUnits="userSpaceOnUse" x="-1" y="-1" width="224" height="231">
<path d="M3.07382 -0.869568L222.043 3.06556L218.203 229.58L-0.766541 225.645L3.07382 -0.869568Z" fill="white"/>
</mask>
<g mask="url(#mask11_481_73)">
<path d="M6.82234 111.13C5.16582 114.039 3.94492 117.178 3.2227 120.464C2.70683 122.794 2.60939 124.186 2.60366 124.204C2.56927 124.664 2.15084 124.965 1.72668 124.983C1.27386 124.948 0.935674 124.546 0.975797 124.08C0.975797 124.021 1.0847 122.558 1.6235 120.092C2.39158 116.641 3.66979 113.331 5.41229 110.275C7.2293 107.119 10.4277 102.676 15.3571 99.4843C19.7249 96.6524 25.0039 95.1303 30.0308 95.2188C30.4779 95.2247 30.9078 95.2423 31.3434 95.2777C33.619 95.4252 35.8029 95.8441 37.8434 96.499C40.2565 91.1538 46.5272 87.8382 51.5771 85.7733C54.5232 84.5638 57.6127 83.7261 60.7596 83.3013C61.4932 83.2069 69.5867 82.9945 69.5351 83.2246C68.0792 89.2364 63.9637 94.499 58.5757 97.2483C52.8209 100.175 47.2552 99.4312 41.5176 98.0034C43.3346 98.9238 45.0713 100.051 46.7049 101.378C49.3531 103.573 51.4853 106.298 52.9298 109.225C53.096 109.207 53.2966 109.189 53.5144 109.178C54.3857 109.124 55.6639 109.107 57.0224 109.331C59.7393 109.72 63.1498 111.189 64.7891 113.75C66.5144 116.245 66.9443 120.588 66.3138 124.027C66.0272 125.756 65.5514 127.248 65.133 128.304C64.749 129.366 64.3936 129.968 64.3936 129.968C64.3936 129.968 63.0466 129.803 61.6595 128.853C60.2838 127.933 58.8394 126.293 58.163 123.874C57.9624 123.254 57.7904 122.54 57.6414 121.756C57.4523 120.971 57.2402 120.127 57.0338 119.26C56.5466 117.543 55.9792 115.773 55.2397 114.275C54.8901 113.514 54.5061 112.818 54.1507 112.21C54.3226 112.765 54.4774 113.331 54.5978 113.891C55.1136 115.968 55.32 118.145 55.1939 120.381C55.7671 122.658 56.3861 125.697 56.2772 128.151C56.1568 131.012 55.3429 134.275 53.8469 137.119C52.4598 139.945 49.9779 142.523 47.7023 143.75C45.4038 145.036 42.8359 145.431 40.6119 145.184C38.5312 144.959 36.1812 144.163 34.5705 142.723C34.0718 142.275 30.3002 137.927 29.985 138.346C31.9338 135.608 35.0921 134.086 38.216 133.024C43.1053 131.355 49.141 130.151 52.2362 125.443C52.5629 124.942 52.8667 124.293 53.1361 123.567C53.7781 120.352 53.7437 117.231 53.01 114.293C52.8839 113.709 52.7234 113.136 52.54 112.558C52.5801 113.579 52.5572 114.759 52.3451 115.968C52.0987 117.673 51.428 119.396 50.6313 120.741C50.2014 121.414 49.7256 121.992 49.2671 122.458C48.7512 122.924 48.2583 123.272 47.7883 123.502C45.7878 124.399 43.4721 123.697 41.6093 122.959C39.7693 122.204 38.3707 121.467 38.3707 121.467C38.3707 121.467 38.3994 121.343 38.3879 121.136C38.4223 120.936 38.4739 120.688 38.6172 120.399C38.8923 119.832 39.4999 119.172 41.0303 118.222C42.6124 117.319 45.5414 115.52 47.9201 113.431C49.462 112.104 50.7689 110.776 51.4968 110.021C50.1555 107.29 48.1723 104.741 45.7019 102.688C43.6326 101.012 41.38 99.6613 39.0184 98.6819C36.6397 97.7084 34.0202 97.1244 31.2288 96.9415C26.1217 96.5698 20.6764 97.9975 16.2169 100.894C11.5741 103.915 8.54764 108.127 6.82234 111.13ZM71.1744 217.821L67.9474 216.27C67.9474 216.27 67.9474 216.27 67.9416 216.264C62.8517 213.845 52.861 208.618 43.0079 200.83C36.4849 195.75 30.0538 189.42 25.1587 183.343C25.7376 182.405 26.798 180.665 27.9158 178.688C29.5608 175.738 31.5211 172.222 31.9969 169.88C32.4783 167.514 31.7733 165.278 30.9823 163.573C30.604 162.712 30.1741 161.998 29.8359 161.502C29.4863 161.007 29.2685 160.706 29.2685 160.706C29.2685 160.706 27.6979 161.314 25.9153 162.499C24.1212 163.697 22.1724 165.449 21.5476 167.892C20.877 170.334 21.4502 174.423 22.4475 177.856C22.8029 179.125 23.1869 180.311 23.548 181.29C23.164 180.783 22.7914 180.281 22.4418 179.774C21.2381 178.104 20.1662 176.606 19.3294 175.213C19.2835 175.137 19.2434 175.078 19.1975 175.013C17.3748 167.296 18.5842 159.26 16.5608 154.783C14.205 146.741 5.73901 145.378 5.73901 145.378C4.68434 154.552 12.4396 167.939 17.1455 174.848C17.3977 175.255 17.6614 175.662 17.9594 176.128C18.8307 177.55 19.9083 179.072 21.1349 180.771C26.2764 187.992 34.089 195.998 42.0277 202.175C52.0069 210.057 62.118 215.349 67.2595 217.798L70.4809 219.349C70.8878 219.55 71.3751 219.367 71.5642 218.948C71.6158 218.836 71.6444 218.724 71.6444 218.606C71.6502 218.27 71.4782 217.963 71.1744 217.821ZM60.6793 47.4486C61.4818 48.0503 62.4447 48.0916 62.823 47.5429C63.2014 46.9943 62.846 46.0916 62.0206 45.5252C61.1895 44.9589 60.2322 44.9117 59.8768 45.4249C59.5157 45.9441 59.8769 46.8468 60.6793 47.4486ZM72.573 57.5194C73.364 58.133 74.3958 58.074 74.8772 57.3778C75.353 56.6934 75.0779 55.6551 74.2582 55.0887C73.4385 54.5046 72.4068 54.5695 71.9482 55.2303C71.4954 55.8734 71.7763 56.8999 72.573 57.5194ZM78.9068 59.4191C77.9037 58.6935 76.6025 58.8233 75.995 59.6905C75.4046 60.5755 75.6453 61.8498 76.614 62.6404C77.577 63.4133 78.9297 63.3543 79.5659 62.4103C80.2079 61.4722 79.9213 60.1448 78.9068 59.4191ZM78.1502 64.3159C76.8605 63.2894 75.1237 63.3661 74.2467 64.4811C73.7251 65.1773 73.6048 66.0858 73.8627 66.9531C71.7132 68.2687 69.2772 68.9059 66.9214 68.7525C65.4196 68.6758 63.958 68.2687 62.5938 67.5667C63.3275 67.6198 64.0898 67.5844 64.8865 67.431C67.3627 67.0121 69.9363 65.6493 72.2291 63.5548C73.0373 63.7672 73.8627 63.5607 74.3671 62.9236C75.1065 61.9737 74.8085 60.4929 73.7022 59.6315C72.6017 58.7643 71.14 58.7879 70.4522 59.6728C69.8389 60.4575 69.9994 61.6964 70.7732 62.6168C68.8072 64.2982 66.6233 65.431 64.5999 65.7731C63.4536 65.9855 62.3989 65.9501 61.4761 65.6847C61.6193 65.6788 61.7626 65.6729 61.9174 65.6611C63.3848 65.5608 66.01 65.0711 67.9416 63.1065C68.4002 63.1655 68.8415 63.0357 69.1339 62.7053C69.6784 62.0976 69.4778 61.0475 68.7097 60.3867C67.9531 59.7377 66.9386 59.6905 66.4227 60.2746C65.9928 60.7643 66.0616 61.5548 66.5201 62.2097C64.984 63.5666 62.9606 63.9147 61.7856 63.9914C61.3901 64.0268 61.0232 64.0268 60.6736 64.0209C60.857 63.838 61.0347 63.661 61.2009 63.4958C62.6568 62.0622 63.8376 60.6935 64.7834 59.5961C65.1445 59.1772 65.4655 58.8056 65.8036 58.428L66.5774 57.4309C67.6894 58.0209 68.9447 57.9206 69.5982 57.0769C70.4121 56.074 69.8905 54.3689 68.5836 53.4073C67.2825 52.4043 65.7234 52.4338 64.9782 53.3542C64.3879 54.1153 64.5713 55.3365 65.3451 56.3454L64.5885 57.3188C64.2847 57.661 63.9465 58.0445 63.5797 58.4693C62.6511 59.5489 61.4932 60.8823 60.0775 62.2805C59.7909 62.5755 59.4642 62.9059 59.1202 63.2481C59.0285 61.2126 59.7565 59.4132 60.2609 58.4044C60.6965 57.425 61.1952 56.6344 61.5219 56.1507C62.0836 56.3631 62.6396 56.2982 62.9721 55.9206C63.4134 55.3483 63.1555 54.3571 62.3874 53.7141C61.6193 53.0651 60.6507 52.9766 60.2322 53.5135C59.9055 53.8911 59.9399 54.4987 60.2609 55.0651C59.8826 55.6079 59.3037 56.5165 58.7935 57.661C58.5127 58.2333 58.1573 59.0356 57.8936 59.9973C57.8936 59.4486 57.9337 58.9235 57.9968 58.4516C58.1859 57.2539 58.5299 55.9973 59.0113 54.7524C59.4642 53.6905 59.98 52.6875 60.536 51.7554C61.3385 52.2568 62.2441 52.2627 62.6683 51.7141C63.1727 51.1005 62.8059 50.0149 61.8887 49.3188C60.9888 48.6344 59.9227 48.5636 59.4527 49.1359C59.2005 49.4663 59.2005 49.9559 59.4068 50.4574C58.7133 51.5725 58.0713 52.7878 57.5096 54.1153C56.9765 55.4958 56.5982 56.8763 56.3861 58.2156C56.2829 58.9471 56.2486 59.6433 56.2715 60.3041C55.5894 58.6286 55.2455 57.0179 55.0907 55.7377C54.9359 54.2805 54.9818 52.7878 55.2283 51.3483C55.4747 50.1624 55.8817 49.071 56.4205 48.0857C57.3548 48.4574 58.2605 48.3866 58.719 47.8025C59.3438 46.953 58.719 45.4544 57.3892 44.4869C56.0479 43.5075 54.5576 43.3482 54.0131 44.1034C53.4628 44.7937 53.9329 46.1388 55.0506 47.189C54.4086 48.3512 53.9271 49.6256 53.6348 51.0297C53.3482 52.6639 53.2966 54.31 53.4686 55.9383C53.7666 58.4103 54.6551 61.9383 57.1542 65.1242C53.9787 68.0504 49.462 71.7673 44.2631 74.7349C41.6265 76.3396 38.6516 77.7555 34.6679 79.3013C31.0855 80.5166 28.1622 81.2364 25.709 81.5137L25.4568 81.5432C24.2989 81.6906 23.1984 81.8263 22.224 81.8086C21.7425 81.8027 21.3126 81.8086 20.8942 81.8204C20.2751 81.8322 19.7363 81.8499 19.2548 81.7732L16.7443 81.5137C16.2628 81.4606 15.8959 81.8027 15.8558 82.2688C15.8157 82.729 16.1367 83.142 16.5895 83.1833L19.0542 83.4429C19.6446 83.5373 20.2809 83.5196 20.9458 83.5019C21.3011 83.496 21.6737 83.4842 22.0405 83.4901C23.0666 83.5196 24.1212 83.4016 25.2504 83.2659C30.0308 86.8942 36.2557 89.5196 41.7984 89.2246C39.9126 85.555 36.1238 83.2364 32.1918 82.3219C31.8708 82.2511 31.544 82.1744 31.2116 82.1213C32.4497 81.785 33.7795 81.378 35.2125 80.8883C39.328 79.2895 42.3831 77.8381 45.0713 76.198C50.3905 73.1537 55.0105 69.3543 58.249 66.369C60.6392 68.8351 63.6599 70.2864 66.8239 70.4516C69.5179 70.6286 72.2922 69.8912 74.7282 68.3867C74.7626 68.4162 74.7798 68.4457 74.8085 68.4752C76.0064 69.5726 77.8406 69.608 78.7749 68.3808C79.7207 67.1478 79.4341 65.3425 78.1502 64.3159ZM151.203 85.0004C151.203 84.5225 151.054 84.1508 151.02 83.8971C150.963 83.6435 150.928 83.5078 150.928 83.5078C150.928 83.5078 150.47 83.7674 149.656 84.2216C148.905 84.6346 147.89 85.2128 146.778 85.7733C145.672 86.3455 144.486 86.9296 143.305 87.4842C142.726 87.7497 142.124 88.0211 141.516 88.2984C140.966 88.5343 140.404 88.7703 139.837 89.0122C139.206 89.2659 138.564 89.5255 137.94 89.7733C137.338 89.9798 136.725 90.2335 136.111 90.4518C134.879 90.8942 133.641 91.319 132.46 91.7084C131.285 92.0978 130.167 92.4223 129.336 92.6524C128.453 92.912 127.943 93.0594 127.943 93.0594C127.943 93.0594 128.012 93.1774 128.138 93.4075C128.281 93.614 128.459 93.9975 128.757 94.3397C129.336 95.0949 130.299 96.0329 131.669 96.8471C133.045 97.6317 134.822 98.2394 136.805 98.381C137.796 98.4518 138.834 98.4164 139.877 98.2453C140.834 98.1155 142.221 97.6848 142.869 97.4135C144.079 96.9002 144.875 96.4164 145.787 95.7792C146.652 95.1539 147.426 94.44 148.085 93.6789C149.415 92.1509 150.292 90.4518 150.75 88.906C151.226 87.3249 151.284 85.9798 151.203 85.0004ZM80.7181 32.8113C77.6572 35.5547 75.6109 39.4249 74.9288 43.5488C78.3794 43.6491 81.853 42.8409 84.8966 41.1476C89.5681 38.5222 93.1162 33.8496 94.4632 28.5399C89.5796 27.885 84.4495 29.4838 80.7181 32.8113ZM95.3115 56.7819C94.0849 56.7642 93.0646 57.7731 93.0474 59.0415C93.0245 60.31 94.0046 61.3601 95.237 61.3778C96.4693 61.4014 97.4839 60.3926 97.5068 59.1241C97.524 57.8439 96.5439 56.8055 95.3115 56.7819ZM52.0757 34.0325C54.1679 34.0738 55.8874 32.3511 55.9276 30.2036C55.962 28.0443 54.294 26.2744 52.2076 26.2331C50.1154 26.1977 48.3958 27.9204 48.3615 30.0679C48.3213 32.2154 49.9836 33.9971 52.0757 34.0325ZM48.4245 41.5842C49.3416 41.6019 50.104 40.8526 50.1154 39.8969C50.1326 38.947 49.4047 38.1683 48.4818 38.1506C47.5647 38.1329 46.8024 38.8821 46.7852 39.8379C46.768 40.7936 47.5017 41.5665 48.4245 41.5842ZM20.9629 76.3927C21.6565 76.4045 22.2297 75.8322 22.2412 75.1242C22.2526 74.4104 21.7024 73.8145 21.0088 73.8027C20.3152 73.7909 19.7421 74.3632 19.7306 75.077C19.7077 75.7909 20.2637 76.3809 20.9629 76.3927ZM99.8282 7.23592C97.7991 7.19462 96.1254 8.85835 96.091 10.9528C96.0566 13.0413 97.6673 14.764 99.6964 14.7994C101.725 14.8348 103.393 13.1711 103.434 11.0826C103.468 8.99404 101.852 7.27132 99.8282 7.23592ZM94.2568 23.0885C95.1625 23.1062 95.8961 22.3629 95.9133 21.4425C95.9305 20.5221 95.2083 19.7552 94.3141 19.7375C93.4142 19.7257 92.6748 20.4631 92.6633 21.3835C92.6461 22.3039 93.3569 23.0767 94.2568 23.0885ZM23.3073 131.437C23.2901 132.582 24.1728 133.538 25.2905 133.555C26.4025 133.573 27.3311 132.664 27.3483 131.508C27.3655 130.358 26.4828 129.408 25.3651 129.39C24.2531 129.372 23.3245 130.293 23.3073 131.437ZM73.0316 114.346C70.8993 114.31 69.1453 116.051 69.1109 118.251C69.0708 120.452 70.7732 122.257 72.8997 122.293C75.032 122.334 76.786 120.588 76.8204 118.393C76.8605 116.192 75.1581 114.387 73.0316 114.346ZM137.601 58.5991C137.665 54.9412 134.839 51.9265 131.291 51.8616C127.743 51.7967 124.819 54.7111 124.756 58.369C124.693 62.0268 127.519 65.0357 131.067 65.1006C134.615 65.1655 137.538 62.2569 137.601 58.5991ZM22.6539 88.3869C22.6768 86.9296 21.5476 85.7202 20.1318 85.6966C18.716 85.673 17.541 86.8352 17.5181 88.2984C17.4951 89.7556 18.6243 90.965 20.0401 90.9886C21.4559 91.0181 22.6252 89.85 22.6539 88.3869Z" fill="#166849"/>
</g>
</g>
</g>
</g>
<mask id="mask12_481_73" style="mask-type:luminance" maskUnits="userSpaceOnUse" x="2" y="0" width="169" height="206">
<path d="M2.93521 0.325317H170.214V205.73H2.93521V0.325317Z" fill="white"/>
</mask>
<g mask="url(#mask12_481_73)">
<mask id="mask13_481_73" style="mask-type:luminance" maskUnits="userSpaceOnUse" x="-1" y="-1" width="224" height="231">
<path d="M3.07382 -0.869507L222.043 3.06562L218.203 229.58L-0.766541 225.645L3.07382 -0.869507Z" fill="white"/>
</mask>
<g mask="url(#mask13_481_73)">
<mask id="mask14_481_73" style="mask-type:luminance" maskUnits="userSpaceOnUse" x="-1" y="-1" width="224" height="231">
<path d="M3.07382 -0.869507L222.043 3.06562L218.203 229.58L-0.766541 225.645L3.07382 -0.869507Z" fill="white"/>
</mask>
<g mask="url(#mask14_481_73)">
<mask id="mask15_481_73" style="mask-type:luminance" maskUnits="userSpaceOnUse" x="-1" y="-1" width="224" height="231">
<path d="M3.07382 -0.869507L222.043 3.06562L218.203 229.58L-0.766541 225.645L3.07382 -0.869507Z" fill="white"/>
</mask>
<g mask="url(#mask15_481_73)">
<path d="M11.3053 126.585C10.2277 124.278 9.59715 121.452 9.73472 118.449C9.92387 115.47 10.8066 112.266 12.721 109.552C13.6725 108.148 14.6985 106.962 16.1258 105.853C17.5588 104.744 19.1178 103.96 20.8431 103.493C24.2594 102.538 28.0768 102.951 31.2752 104.697C32.8515 105.558 34.3189 106.839 35.3793 108.16C36.6804 109.824 37.3797 111.482 37.8038 113.352C38.6235 117.063 37.4886 120.986 35.2589 123.665C34.9379 124.007 34.7316 124.272 34.3246 124.668C34.0495 124.915 33.8316 125.128 33.396 125.44C32.6107 126.042 31.8771 126.39 31.0689 126.703C29.4582 127.281 27.7673 127.399 26.2025 127.098C24.6319 126.809 23.199 126.119 22.0526 125.163C21.7603 124.933 21.508 124.662 21.2558 124.402L21.061 124.207C20.9119 124.036 20.9349 124.054 20.8661 123.971L20.5852 123.6C20.0923 122.921 19.777 122.302 19.5305 121.623C18.5504 118.915 19.2497 116.148 20.5737 114.467C21.8692 112.679 23.8123 111.983 25.2567 112.06C26.7355 112.095 27.7386 112.732 28.3118 113.193C28.885 113.676 29.1086 114.001 29.1086 114.001C29.1086 114.001 29.0455 113.954 28.9538 113.877C29.441 114.496 29.7505 115.287 29.7333 116.148C29.7047 118.078 28.1513 119.623 26.277 119.588C24.4027 119.553 22.9066 117.96 22.941 116.024C22.964 114.833 23.5601 113.794 24.4485 113.181C23.4913 113.547 22.5627 114.302 21.9551 115.435C21.1412 116.88 20.9922 118.909 21.8233 120.62C22.0297 121.039 22.3334 121.452 22.5856 121.747L22.9009 122.066C22.9353 122.101 23.0614 122.225 23.0155 122.178L23.1646 122.296C23.3652 122.455 23.5543 122.614 23.7779 122.744C24.6319 123.311 25.6121 123.7 26.661 123.783C27.7042 123.895 28.7876 123.706 29.7563 123.258C30.2205 123.033 30.7479 122.721 31.0861 122.432C31.2294 122.337 31.5274 122.036 31.7796 121.789L32.2898 121.163C33.717 119.275 34.2271 116.673 33.6941 114.296C33.4476 113.145 32.8171 111.895 32.198 111.104C31.2981 110.019 30.3409 109.263 29.2117 108.638C26.9992 107.375 24.311 107.039 21.8806 107.665C20.6884 107.977 19.4962 108.526 18.5217 109.193C17.5416 109.847 16.5213 110.874 15.7876 111.871C14.2228 113.912 13.3057 116.343 12.9503 118.744C12.6752 121.151 12.9102 123.529 13.5923 125.6C14.3202 127.676 15.3233 129.346 16.5328 130.792C17.725 132.172 18.9402 133.24 20.0178 134.013C22.1901 135.564 23.6632 136.119 23.6632 136.119C23.6632 136.119 23.2849 136.031 22.5799 135.871C21.8864 135.671 20.8431 135.382 19.5879 134.78C18.344 134.184 16.8595 133.317 15.3692 132.013C13.9419 130.762 12.3542 128.898 11.3053 126.585ZM14.9221 74.1481C15.8621 71.8649 16.4754 69.5699 16.8652 67.387C17.2664 65.2041 17.6447 63.2454 17.788 61.4636C17.9313 59.6996 17.9944 58.2247 18.0402 57.1745L21.5138 51.2571C21.8749 50.6848 22.2819 50.0948 22.7003 49.4754L25.6236 45.1803C26.1509 44.4606 26.7183 43.7408 27.303 43.0033L28.2832 41.7585C29.5499 40.083 30.9428 38.431 32.3987 36.7968C31.963 37.4871 31.5389 38.1832 31.1319 38.9089C30.0715 40.8617 29.355 43.0505 28.9767 45.0505C28.2545 49.1037 29.6015 52.1833 30.874 54.0831C32.198 56.0123 33.6024 56.9503 33.6024 56.9503C33.6024 56.9503 34.0093 56.4194 34.6112 55.5108C35.2474 54.614 35.9639 53.2335 36.9383 51.8058C37.8898 50.3544 38.7897 48.5904 39.6782 46.8087C40.5953 45.0682 41.3519 43.1567 41.7933 41.2393C42.825 37.5461 42.2919 34.3189 41.4837 32.0534C41.0366 30.7614 40.4807 29.7997 40.0909 29.2038C46.7112 23.3513 54.3175 18.189 62.0498 14.425C67.369 11.7583 72.7226 9.72287 77.7839 8.15944C73.5021 10.2185 69.1631 13.186 66.4691 16.838C64.7495 19.2215 63.8439 21.5637 63.414 23.6817C63.0185 25.8705 63.1102 27.8469 63.3853 29.5106C63.9413 32.8322 65.1852 34.9561 65.1852 34.9561C65.1852 34.9561 68.2345 33.3396 72.1609 30.8912C76.1331 28.4959 81.0969 25.3808 84.8112 21.4398C86.6626 19.4575 87.9924 17.3984 88.9554 15.4515C89.9068 13.4751 90.4514 11.5164 90.7609 9.86447C91.1736 7.66386 91.122 5.86444 91.036 4.87918C96.5501 3.85263 101.044 3.39245 103.772 3.20366C109.86 2.71988 114.904 2.77297 118.062 2.89687C121.461 3.03256 123.438 3.26265 123.45 3.26265C123.903 3.31575 124.304 2.99127 124.356 2.52518C124.407 2.06501 124.092 1.65202 123.639 1.59303C123.559 1.58122 121.599 1.35703 118.131 1.20954C117.443 1.19184 116.646 1.16824 115.769 1.15054C112.645 1.09745 108.478 1.15644 103.669 1.53403C96.7851 2.02371 78.8901 4.12402 61.3505 12.9028C48.1786 19.3159 35.3391 29.7112 26.9935 40.726L26.042 41.9414C25.4401 42.7024 24.8555 43.4399 24.3052 44.201L21.3648 48.5078C20.9291 49.145 20.505 49.7526 20.1267 50.3662L16.5442 56.4725C16.4181 56.6848 16.3092 56.8736 16.229 57.0447C13.1796 59.8943 7.17256 67.0212 4.43271 80.8738C3.52707 85.747 4.80528 90.2249 4.80528 90.2249C4.80528 90.2249 6.56498 88.4904 8.63993 85.6113C10.6174 82.685 13.3172 78.8325 14.9221 74.1481ZM164.565 46.024C161.269 41.1685 156.173 37.2806 150.201 35.0623C146.773 33.7997 143.162 33.1213 139.631 33.0564C137.344 33.0151 135.086 33.2334 132.925 33.7053C127.422 34.8676 122.464 37.8824 118.945 42.1951C115.597 46.1833 113.66 51.2866 113.62 56.207C113.568 60.5433 114.806 64.8973 117.122 68.4725C117.374 68.8678 117.638 69.2336 117.907 69.5935C118.091 69.9888 118.303 70.3959 118.555 70.8324C120.229 73.8354 123.656 77.7646 129.061 79.9947C131.721 81.1039 134.891 81.7293 138.164 81.5759C141.419 81.4284 144.744 80.5257 147.776 78.8679C150.78 77.1865 153.479 74.7617 155.348 71.7705C157.234 68.7793 158.185 65.5522 158.437 62.6436C158.999 56.8382 156.798 50.9562 152.952 47.4104C149.054 43.788 144.589 43.021 141.288 43.3573C137.917 43.6995 135.59 45.1626 134.341 46.319C133.71 46.9385 133.292 47.4222 133.051 47.8057C132.81 48.1715 132.684 48.3662 132.684 48.3662C132.684 48.3662 132.913 48.3603 133.337 48.3426C133.744 48.3131 134.363 48.3485 135.069 48.4075C136.513 48.5845 138.439 49.1568 140.187 50.378C141.941 51.5462 143.512 53.3987 144.091 55.1745C144.732 56.9621 144.922 59.0683 144.715 61.3456C144.503 63.6465 143.919 66.2601 141.351 68.8855C138.811 71.446 134.776 73.2218 130.643 73.0743C126.488 73.0153 122.59 71.2513 120.183 69.3693C119.833 69.1038 119.512 68.8442 119.22 68.5787C118.968 68.2542 118.727 67.9062 118.492 67.5345C116.354 64.2365 115.207 60.2247 115.259 56.2188C115.293 51.6878 117.093 46.9798 120.194 43.2806C123.438 39.3101 128.202 36.4251 133.28 35.3514C138.49 34.2068 144.314 34.6611 149.668 36.6493C155.319 38.7496 160.146 42.4193 163.247 46.9975C166.273 51.3928 167.717 57.3515 167.322 63.7763C166.995 69.2572 165.597 74.8738 163.166 80.4667C159.091 89.8414 152.075 98.1896 143.901 103.37C136.421 108.184 129.073 110.066 124.218 110.797C122.212 111.104 120.234 111.287 118.343 111.334C117.145 111.364 116.434 111.358 116.291 111.352C116.262 111.352 116.256 111.352 116.256 111.352C115.804 111.346 115.437 111.712 115.431 112.178C115.42 112.644 115.775 113.022 116.228 113.039C116.228 113.045 116.984 113.057 118.394 113.022C120.36 112.968 122.401 112.786 124.476 112.467C129.48 111.706 137.063 109.759 144.784 104.797C153.221 99.4462 160.467 90.8326 164.674 81.1452C167.179 75.3634 168.623 69.5581 168.967 63.8707C169.351 57.0683 167.798 50.732 164.565 46.024ZM99.909 93.3518C100.534 94.9919 101.623 96.3724 102.798 97.7825C103.732 98.8385 104.838 100.007 106.128 101.057C106.117 101.971 106.552 102.856 107.389 103.275C108.622 103.942 110.152 103.452 110.8 102.184C111.447 100.921 111.023 99.3872 109.854 98.7559C108.799 98.2308 107.515 98.4668 106.736 99.3931C105.704 98.5022 104.793 97.5406 104.025 96.6674C102.958 95.3872 101.967 94.1246 101.428 92.7205C100.815 91.2043 100.591 89.8355 100.729 88.6969C100.815 89.0803 100.912 89.4874 101.038 89.9181C101.669 92.3783 103.245 94.6556 105.417 96.3075C105.48 96.8149 105.744 97.2928 106.191 97.5878C107.011 98.1365 108.077 97.8533 108.587 96.9683C109.086 96.0833 108.862 94.9506 108.083 94.4373C107.435 94.0066 106.598 94.1246 106.013 94.6733C104.334 93.281 103.113 91.452 102.609 89.4756C102.488 89.0567 102.397 88.6674 102.316 88.3016L103.084 88.9446C104.867 90.337 106.581 91.4461 107.957 92.337C108.667 92.7972 109.304 93.2043 109.842 93.5877C110.353 93.9476 110.817 94.219 111.207 94.4314C110.88 95.6881 111.356 97.0037 112.479 97.5996C113.838 98.3311 115.523 97.7058 116.256 96.2072C116.984 94.7146 116.543 92.9447 115.282 92.2662C114.245 91.7116 112.926 92.042 112.038 92.9801C111.677 92.7854 111.247 92.5317 110.777 92.2013C110.221 91.8119 109.556 91.3812 108.834 90.9034C107.418 89.9948 105.807 88.9505 104.099 87.6172L102.683 86.4373C104.323 86.3193 105.956 86.7971 107.544 87.2632L108.278 87.4756C109.521 87.9004 110.542 88.4078 111.184 88.7382C111.115 89.3694 111.344 89.9889 111.837 90.3193C112.554 90.8326 113.591 90.4373 114.084 89.5405C114.571 88.6497 114.348 87.6172 113.671 87.1334C113.173 86.803 112.519 86.8797 111.998 87.2809C111.31 86.9033 110.158 86.3429 108.748 85.8591L107.991 85.6408C107.171 85.3989 106.317 85.1511 105.423 84.98C106.059 84.9328 106.753 84.9446 107.487 85.0213C109.114 85.1511 110.599 85.4225 111.906 85.8355C112.989 86.16 114.073 86.6378 115.225 87.1393C115.385 87.2042 115.551 87.275 115.712 87.3458C115.391 88.2603 115.672 89.2278 116.434 89.6349C117.294 90.0951 118.412 89.6349 118.927 88.5966C119.443 87.57 119.203 86.3783 118.377 85.9417C117.913 85.6939 117.351 85.7411 116.847 86.0125C116.52 85.8768 116.182 85.7293 115.867 85.5877C114.663 85.0685 113.539 84.567 112.376 84.2249C110.966 83.7765 109.361 83.4815 107.636 83.3517C107.189 83.2986 106.764 83.2691 106.346 83.2632C105.761 83.2514 105.205 83.2868 104.672 83.3635C106.151 82.5257 107.819 81.924 109.596 81.6172C111.533 81.3045 113.178 81.2278 114.502 81.4166C115.884 81.5641 117.174 82.0183 118.606 82.5788C118.48 83.6172 118.876 84.5965 119.707 85.0331C120.894 85.6703 122.435 84.9623 123.163 83.4461C123.891 81.9299 123.588 80.2248 122.487 79.6408C121.45 79.0921 120.022 79.7056 119.18 80.9918C117.649 80.3959 116.256 79.8944 114.692 79.7351C114.227 79.6702 113.734 79.6349 113.201 79.6231C112.066 79.6054 110.788 79.7115 109.327 79.9534C105.813 80.5611 102.695 82.1894 100.425 84.5552L99.9205 84.1423C99.0378 83.2809 98.1608 82.3251 97.2551 81.3517C96.7565 80.8148 96.2463 80.2661 95.7305 79.7233C95.3006 79.2691 94.9395 78.7322 94.5497 78.1599C94.3204 77.8354 94.1026 77.4991 93.8905 77.2219C93.667 76.8856 93.432 76.5552 93.1912 76.2248C92.7728 75.6584 92.3773 75.1097 92.0792 74.567C91.8098 73.977 91.506 73.3929 91.208 72.8088C90.4686 71.3575 89.7578 69.9947 89.391 68.4607C89.2878 68.0419 89.1502 67.6407 89.0012 67.2336C88.7719 66.561 88.5541 65.9297 88.4968 65.2336L87.9981 61.9592L87.9752 60.8737C87.9408 58.9798 87.9007 57.1981 88.2503 55.4105C88.3936 53.8412 88.8121 52.3308 89.2248 50.8795C89.3509 50.4193 89.4884 49.9532 89.5687 49.5992C89.7521 49.1391 89.9298 48.6789 90.1075 48.2246C90.6119 46.9031 91.0934 45.67 91.7296 44.5491C93.2371 41.4399 95.0197 39.1154 96.0973 37.7113C96.4584 37.1921 96.8195 36.8086 97.1176 36.49C97.2895 36.313 97.4328 36.1478 97.536 36.0357L98.0748 35.4281C98.3786 35.0859 98.3671 34.5549 98.0289 34.2422C97.8742 34.1006 97.6793 34.018 97.4902 34.018C97.2609 34.0121 97.0431 34.1006 96.8768 34.2894L96.3151 34.9266C96.2062 35.0505 96.0858 35.1862 95.9425 35.3396C95.6044 35.7113 95.1974 36.1478 94.8019 36.7083C93.6956 38.1478 91.8557 40.5549 90.3023 43.7644C89.6317 44.9384 89.1216 46.2364 88.5942 47.6169C88.4166 48.0594 88.2503 48.5137 88.0325 49.0683C87.9121 49.5108 87.7918 49.9591 87.6542 50.4134C87.2186 51.9473 86.7715 53.5226 86.6282 55.1745C86.2614 57.0506 86.3015 59.0152 86.3416 60.9091L86.3645 62.1067L86.8747 65.4283C86.9435 66.2837 87.2014 67.0507 87.4651 67.7941C87.5854 68.1598 87.7173 68.5197 87.809 68.8796C88.2217 70.5964 89.0012 72.1186 89.7636 73.5935C90.0501 74.1658 90.3425 74.7263 90.6291 75.3339C90.9959 76.0242 91.443 76.6378 91.8729 77.2337C92.0964 77.5463 92.3257 77.8531 92.5607 78.2071C92.7785 78.508 93.0021 78.8207 93.2027 79.1216C93.6154 79.7233 94.0281 80.331 94.5497 80.8974C95.0656 81.4402 95.57 81.9888 96.0686 82.5198C96.9972 83.5169 97.8857 84.4844 98.8486 85.4048L99.3473 85.8237C97.2781 88.6084 96.5272 92.0066 97.2093 95.6999C97.5188 97.6055 98.2525 99.4226 99.525 101.411C100.138 102.367 100.838 103.287 101.606 104.142C101.577 104.178 101.554 104.201 101.531 104.243C100.66 105.653 101.193 107.623 102.712 108.614C104.237 109.446 106.099 108.915 106.873 107.44C107.647 105.971 107.097 104.142 105.658 103.364C104.781 102.797 103.744 102.732 102.878 103.098C102.144 102.278 101.468 101.405 100.883 100.496C99.7485 98.7205 99.0894 97.104 98.8142 95.4226C98.4588 93.4934 98.5563 91.6585 99.0664 89.983C99.1524 91.0155 99.4218 92.1541 99.909 93.3518ZM122.785 86.219C122.074 85.8355 121.134 86.2662 120.681 87.1747C120.234 88.0892 120.464 89.1511 121.209 89.5523C121.948 89.9476 122.888 89.5228 123.307 88.5966C123.725 87.6703 123.496 86.6083 122.785 86.219ZM115.104 99.9418C114.273 99.4934 113.241 99.871 112.771 100.78C112.313 101.682 112.634 102.791 113.494 103.257C114.359 103.718 115.402 103.34 115.827 102.42C116.256 101.488 115.935 100.378 115.104 99.9418ZM111.298 104.644C110.221 104.066 108.879 104.502 108.295 105.611C107.71 106.721 108.146 108.107 109.275 108.715C110.398 109.316 111.74 108.88 112.284 107.747C112.812 106.603 112.364 105.216 111.298 104.644ZM110.37 15.0267C110.353 15.0208 110.341 15.0031 110.33 14.9972C110.324 15.0267 110.324 15.0621 110.312 15.0857C110.175 15.2332 110.1 15.3158 110.1 15.3158C110.1 15.3158 110.163 15.363 110.249 15.4397C109.573 19.7052 110.719 24.248 113.488 28.1537C115.362 30.8027 118.75 34.1183 121.805 35.9649C123.502 27.2923 119.701 22.602 114.715 18.4427C117.833 20.1831 122.258 22.0002 127.222 21.9943C136.742 21.9825 144.578 15.2804 144.578 15.2804C144.578 15.2804 136.851 6.63141 127.33 6.64321C118.847 6.6609 111.803 13.5341 110.37 15.0267ZM85.0978 101.995C79.0162 100.254 72.5908 104.361 72.5908 104.361C72.5908 104.361 76.0299 111.305 82.1057 113.045C88.1873 114.791 94.607 110.685 94.607 110.685C94.607 110.685 91.1793 103.741 85.0978 101.995ZM54.3519 194.886C51.5661 194.627 48.9639 195.435 47.015 196.373C45.0719 197.305 43.8567 198.373 43.8567 198.373C43.8567 198.373 44.1605 198.786 44.7165 199.423C45.2611 200.084 46.0807 200.91 47.0838 201.742C49.0842 203.447 51.8757 205.004 54.7474 205.128C57.6305 205.205 60.0322 203.931 61.746 202.621C63.4484 201.311 64.4572 200.025 64.4572 200.025C64.4572 200.025 63.2592 198.863 61.4193 197.659C59.5908 196.432 57.1146 195.164 54.3519 194.886ZM36.5256 170.373C35.15 170.408 34.1641 170.715 34.1641 170.715C34.1641 170.715 34.5023 172.048 35.2875 173.653C36.1187 175.228 37.4485 177.028 39.2196 177.824C40.9507 178.668 42.7447 178.385 44.0402 177.978C45.3413 177.559 46.2126 176.987 46.2126 176.987C46.2126 176.987 46.0922 176.745 45.8572 176.361C45.6107 175.984 45.2725 175.453 44.877 174.863C44 173.712 42.8651 172.32 41.2545 171.441C39.7068 170.538 37.9128 170.332 36.5256 170.373ZM50.5573 191.099C52.0419 190.096 52.9246 189.057 52.9246 189.057C52.9246 189.057 52.6896 188.798 52.2597 188.408C51.8241 188.025 51.2222 187.494 50.5172 186.904C49.0269 185.795 47.1182 184.479 44.8025 183.984C42.5441 183.435 40.2456 183.836 38.5261 184.403C36.818 184.951 35.6945 185.7 35.6945 185.7C35.6945 185.7 36.5887 187.246 38.1306 188.957C39.7126 190.615 41.9939 192.361 44.493 192.698C46.9348 193.099 49.0728 192.084 50.5573 191.099ZM45.8228 158.933C45.1407 157.594 44.4815 156.644 44.4815 156.644C44.4815 156.644 43.53 157.281 42.5499 158.55C41.5812 159.801 40.6125 161.742 40.6698 163.936C40.7157 166.125 41.7761 167.995 42.7963 169.193C43.8223 170.397 44.814 170.981 44.814 170.981C44.814 170.981 45.433 169.995 46.0406 168.638C46.6539 167.264 47.2844 165.565 47.25 163.765C47.2042 161.96 46.4991 160.278 45.8228 158.933ZM41.6385 58.9267C43.9427 57.8825 46.6768 57.1273 49.8867 56.9385C50.3338 56.909 50.6834 56.5079 50.649 56.0477C50.6261 55.6052 50.2707 55.2571 49.8523 55.2512C49.8351 55.2512 49.8065 55.2512 49.7835 55.2512C46.1151 55.4636 43.0256 56.3958 40.4463 57.6701C36.2734 57.7881 32.1694 59.8707 29.6015 63.269C27.303 66.3073 26.3171 70.3074 26.7699 74.1127C29.5614 73.3103 32.198 71.9357 34.4622 70.0596C37.8898 67.2336 40.4119 63.2808 41.6385 58.9267ZM111.562 42.142C111.82 41.021 111.963 40.1007 111.998 38.7142C112.009 38.0475 111.9 36.5077 111.671 35.5402C111.436 34.4723 111.098 33.4575 110.645 32.5254C109.768 30.667 108.518 29.1802 107.24 28.1773C106.604 27.664 105.933 27.2982 105.337 26.9973C104.752 26.6846 104.168 26.5135 103.698 26.3838C103.245 26.2304 102.798 26.2186 102.534 26.1832C102.259 26.1537 102.116 26.1419 102.116 26.1419C102.116 26.1419 102.104 26.2894 102.076 26.5725C102.064 26.8439 101.984 27.2746 101.967 27.7348C101.892 28.6788 101.795 29.9118 101.652 31.1861C101.548 32.313 101.434 33.6227 101.302 35.021C101.245 35.6523 101.193 36.2717 101.176 36.8794C101.141 37.5933 101.118 37.7644 101.118 38.8145C101.107 39.1449 101.113 39.9296 101.13 40.4782C101.136 41.0859 101.159 41.7113 101.204 42.3426C101.262 43.6051 101.353 44.909 101.434 46.1892C101.525 47.6169 101.594 48.8028 101.652 49.6346C101.709 50.6553 101.737 51.2394 101.737 51.2394C101.737 51.2394 101.881 51.2217 102.156 51.204C102.42 51.1686 102.849 51.1981 103.308 51.0506C103.795 50.9267 104.391 50.7615 104.97 50.4724C105.572 50.1951 106.254 49.8411 106.908 49.3574C108.209 48.3898 109.498 46.9444 110.439 45.1095C110.92 44.2069 111.287 43.2039 111.562 42.142ZM90.9844 95.0745C91.6952 92.1364 91.6952 88.9623 90.566 86.1246C89.3852 83.1393 87.1211 80.7794 85.2812 78.1776C83.4413 75.5699 81.9682 72.331 82.7133 69.21C79.406 71.4165 77.1419 75.1923 76.7063 79.2278C76.2764 83.2573 77.6864 87.4579 80.4435 90.3547C81.9968 91.983 88.8751 96.927 88.342 100.431C89.5744 98.8857 90.5202 97.0155 90.9844 95.0745ZM22.4137 151.954C20.4476 155.24 19.863 159.37 20.8374 163.099C24.0415 161.736 26.6324 158.91 27.7788 155.535C28.7188 152.768 28.6615 149.659 27.6756 146.904C25.5376 148.09 23.6862 149.83 22.4137 151.954ZM76.4025 94.3547C76.4426 91.7529 74.4364 89.6054 71.9087 89.5641C69.3809 89.5169 67.3002 91.5877 67.2544 94.1895C67.2142 96.7972 69.2204 98.9388 71.7482 98.986C74.2759 99.0332 76.3566 96.9624 76.4025 94.3547ZM62.9039 101.664C62.8867 102.703 63.6834 103.552 64.6922 103.57C65.6953 103.594 66.5207 102.768 66.5436 101.729C66.5608 100.691 65.7583 99.8415 64.7553 99.8238C63.7464 99.8061 62.921 100.626 62.9039 101.664ZM16.5385 138.986C14.6699 138.957 13.128 140.485 13.0993 142.414C13.065 144.337 14.5495 145.924 16.4181 145.954C18.2867 145.989 19.8286 144.455 19.8573 142.532C19.8917 140.609 18.4071 139.022 16.5385 138.986ZM9.11567 131.736C8.03234 131.718 7.13817 132.603 7.11524 133.724C7.09805 134.845 7.96356 135.765 9.04689 135.783C10.136 135.8 11.0244 134.915 11.0473 133.795C11.0645 132.674 10.2047 131.753 9.11567 131.736ZM8.52529 94.0656C8.48517 96.1541 10.1016 97.8769 12.1307 97.9123C14.1597 97.9536 15.8277 96.2898 15.8621 94.1954C15.9022 92.1069 14.2859 90.3842 12.2568 90.3488C10.2277 90.3193 8.55968 91.983 8.52529 94.0656ZM120.166 105.252C120.131 107.405 121.799 109.187 123.891 109.228C125.983 109.263 127.714 107.541 127.749 105.387C127.789 103.228 126.121 101.446 124.023 101.411C121.931 101.375 120.206 103.086 120.166 105.252ZM102.546 63.9592C99.7199 63.9061 97.387 66.2306 97.3354 69.1392C97.2838 72.0537 99.5422 74.4608 102.362 74.508C105.188 74.5611 107.527 72.2366 107.573 69.3221C107.624 66.4135 105.372 64.0064 102.546 63.9592ZM103.474 23.251C104.632 23.2746 105.595 22.3188 105.612 21.1271C105.635 19.9294 104.707 18.9442 103.549 18.9206C102.391 18.9029 101.434 19.8586 101.411 21.0504C101.394 22.248 102.316 23.2333 103.474 23.251ZM79.0907 53.5049C80.5123 53.5285 81.693 52.3544 81.716 50.8854C81.7446 49.4164 80.604 48.201 79.1825 48.1774C77.7552 48.1538 76.5744 49.322 76.5515 50.791C76.5286 52.26 77.6635 53.4754 79.0907 53.5049ZM60.6054 78.4313C60.634 76.8738 59.4246 75.5817 57.9114 75.5522C56.3981 75.5227 55.1429 76.7735 55.1199 78.331C55.0913 79.8885 56.3007 81.1806 57.8139 81.2101C59.3271 81.2455 60.5824 80.0006 60.6054 78.4313ZM49.9039 82.803C50.6433 82.8148 51.2624 82.2071 51.2738 81.4402C51.2853 80.6791 50.6949 80.0419 49.9498 80.0301C49.2103 80.0183 48.597 80.6319 48.5856 81.393C48.5626 82.154 49.1588 82.7912 49.9039 82.803ZM19.8515 67.4578C19.8401 68.1716 20.3961 68.7616 21.0839 68.7734C21.7774 68.7852 22.3506 68.2188 22.3621 67.505C22.3736 66.7911 21.8233 66.2011 21.1297 66.1893C20.4362 66.1716 19.863 66.7439 19.8515 67.4578ZM44.2809 65.9828C44.2637 67.0448 45.0834 67.9121 46.1094 67.9298C47.1297 67.9475 47.9837 67.0979 48.0009 66.0477C48.0181 64.9917 47.1927 64.1185 46.1724 64.0949C45.1521 64.0772 44.2981 64.9209 44.2809 65.9828ZM24.4542 55.4341C23.7779 55.4223 23.2162 55.9769 23.2047 56.673C23.1932 57.3692 23.732 57.9415 24.4084 57.9533C25.0848 57.9651 25.6408 57.4105 25.6522 56.7143C25.6637 56.0182 25.1306 55.4459 24.4542 55.4341ZM45.3413 49.5521C45.347 49.1686 45.0547 48.8559 44.6821 48.85C44.3153 48.8441 44.0115 49.145 44.0058 49.5285C44 49.9119 44.2924 50.2246 44.6592 50.2305C45.0318 50.2364 45.3356 49.9355 45.3413 49.5521ZM60.7544 38.3779C60.7773 37.2157 59.8717 36.254 58.7482 36.2363C57.619 36.2127 56.6847 37.1449 56.6675 38.3012C56.6446 39.4635 57.5503 40.4251 58.6737 40.4487C59.8029 40.4664 60.7372 39.5402 60.7544 38.3779ZM70.4814 37.3573C70.47 38.0122 70.9801 38.5608 71.6221 38.5726C72.2583 38.5844 72.7914 38.0652 72.8028 37.3986C72.8143 36.7437 72.3042 36.195 71.6622 36.1832C71.0202 36.1773 70.4929 36.7024 70.4814 37.3573ZM33.1553 180.444C31.7223 180.42 30.5358 181.6 30.5071 183.081C30.4842 184.556 31.6306 185.777 33.0636 185.807C34.4965 185.83 35.683 184.65 35.706 183.169C35.7346 181.695 34.5883 180.473 33.1553 180.444ZM37.7064 161.618C38.5433 158.343 38.2395 154.78 36.8753 151.7C35.5111 148.621 33.0922 146.066 30.1403 144.579C30.1747 151.464 32.754 158.284 37.1791 163.435C37.3625 162.827 37.5516 162.225 37.7064 161.618ZM41.6557 112.862C43.1001 112.886 44.2866 111.706 44.3096 110.219C44.3382 108.732 43.1918 107.511 41.7474 107.482C40.3087 107.458 39.1222 108.638 39.0935 110.125C39.0706 111.611 40.217 112.833 41.6557 112.862ZM25.9789 91.6526C25.9675 92.2308 26.4203 92.7146 26.982 92.7205C27.5495 92.7323 28.0138 92.2662 28.0252 91.688C28.0367 91.104 27.5839 90.6261 27.0221 90.6143C26.4547 90.6143 25.9904 91.0686 25.9789 91.6526ZM67.0251 107.216C66.108 107.198 65.3571 107.948 65.3399 108.898C65.3227 109.842 66.0507 110.62 66.9678 110.632C67.8849 110.65 68.6415 109.901 68.6587 108.957C68.6701 108.007 67.9365 107.234 67.0251 107.216ZM53.3717 102.88C53.3488 104.414 54.5353 105.682 56.0198 105.706C57.5101 105.735 58.7425 104.514 58.7654 102.974C58.7941 101.44 57.6076 100.178 56.1173 100.148C54.627 100.125 53.4004 101.346 53.3717 102.88Z" fill="#70B445"/>
</g>
</g>
</g>
</g>
<path d="M35.072 257.999C34.544 257.999 33.984 257.935 33.392 257.807C32.816 257.663 32.256 257.367 31.712 256.919C31.184 256.471 30.728 255.791 30.344 254.879L29.792 253.535H23.408L21.44 257.903H20.192L27.272 242.063H28.352L33.728 254.879C34.016 255.583 34.368 256.143 34.784 256.559C35.2 256.975 35.68 257.215 36.224 257.279V257.879C36.096 257.911 35.912 257.935 35.672 257.951C35.448 257.983 35.248 257.999 35.072 257.999ZM23.912 252.455H29.336L26.696 246.191L23.912 252.455ZM40.5944 257.903V251.567L36.3464 245.183C36.0744 244.767 35.7544 244.367 35.3864 243.983C35.0344 243.599 34.6664 243.271 34.2824 242.999C33.8984 242.727 33.5224 242.575 33.1544 242.543V242.063H35.7704C36.3784 242.063 36.9224 242.199 37.4024 242.471C37.8984 242.743 38.3384 243.079 38.7224 243.479C39.1064 243.879 39.4264 244.287 39.6824 244.703L42.9464 249.623L47.6024 242.063H49.1624L43.7144 250.919V257.903H40.5944ZM57.8911 258.143C56.4511 258.143 55.2511 257.879 54.2911 257.351C53.3311 256.823 52.6111 256.031 52.1311 254.975C51.6511 253.903 51.4111 252.575 51.4111 250.991V245.183C51.4111 244.495 51.3231 243.935 51.1471 243.503C50.9711 243.071 50.5711 242.831 49.9471 242.783H49.7311V242.063H52.3711C52.9311 242.063 53.3631 242.159 53.6671 242.351C53.9871 242.543 54.2111 242.863 54.3391 243.311C54.4671 243.759 54.5311 244.383 54.5311 245.183L54.5551 251.711C54.5711 253.375 54.8911 254.687 55.5151 255.647C56.1551 256.591 57.1071 257.063 58.3711 257.063C59.4591 257.063 60.3471 256.847 61.0351 256.415C61.7231 255.983 62.2271 255.319 62.5471 254.423C62.8831 253.527 63.0511 252.383 63.0511 250.991V242.063H64.2511V250.991C64.2511 252.495 64.0431 253.783 63.6271 254.855C63.2271 255.911 62.5631 256.727 61.6351 257.303C60.7071 257.863 59.4591 258.143 57.8911 258.143ZM79.2832 258.143C78.7232 258.143 78.1872 258.031 77.6752 257.807C77.1632 257.583 76.6592 257.223 76.1632 256.727C75.6832 256.215 75.1792 255.527 74.6512 254.663L72.2512 250.655H71.2912V257.903H68.1472V245.183C68.1472 244.463 68.0432 243.887 67.8352 243.455C67.6432 243.007 67.1872 242.783 66.4672 242.783H66.2272V242.063H72.8512C73.2832 242.063 73.7792 242.095 74.3392 242.159C74.9152 242.207 75.4912 242.319 76.0672 242.495C76.6432 242.655 77.1792 242.895 77.6752 243.215C78.1712 243.535 78.5712 243.959 78.8752 244.487C79.1792 244.999 79.3312 245.639 79.3312 246.407C79.3312 247.255 79.1392 247.951 78.7552 248.495C78.3872 249.023 77.9072 249.439 77.3152 249.743C76.7232 250.047 76.0992 250.287 75.4432 250.463L77.9632 254.663C78.5712 255.687 79.1312 256.367 79.6432 256.703C80.1552 257.039 80.5872 257.239 80.9392 257.303V257.903C80.8112 257.967 80.5792 258.023 80.2432 258.071C79.9232 258.119 79.6032 258.143 79.2832 258.143ZM71.2912 249.695H72.7312C73.1152 249.695 73.4992 249.639 73.8832 249.527C74.2672 249.415 74.6112 249.231 74.9152 248.975C75.2352 248.719 75.4912 248.375 75.6832 247.943C75.8752 247.511 75.9712 246.983 75.9712 246.359C75.9712 245.735 75.8752 245.215 75.6832 244.799C75.5072 244.367 75.2592 244.023 74.9392 243.767C74.6352 243.495 74.2912 243.303 73.9072 243.191C73.5392 243.079 73.1632 243.023 72.7792 243.023C72.6512 243.023 72.4592 243.031 72.2032 243.047C71.9632 243.063 71.6592 243.111 71.2912 243.191V249.695ZM87.5744 258.143L81.9824 244.871C81.5984 243.975 81.2224 243.351 80.8544 242.999C80.5024 242.631 80.0864 242.415 79.6064 242.351V241.871C79.6704 241.871 79.8304 241.863 80.0864 241.847C80.3264 241.831 80.5024 241.823 80.6144 241.823C81.1744 241.823 81.7424 241.887 82.3184 242.015C82.9104 242.143 83.4704 242.423 83.9984 242.855C84.5264 243.287 84.9824 243.959 85.3664 244.871L89.1584 253.847L94.2224 242.063H95.4464L88.5344 258.143H87.5744ZM97.9128 257.903V245.183C97.9128 244.463 97.8088 243.887 97.6008 243.455C97.4088 243.007 96.9528 242.783 96.2328 242.783H95.9928V242.063H106.577C107.137 242.063 107.561 242.159 107.849 242.351C108.137 242.527 108.337 242.767 108.449 243.071C108.561 243.359 108.617 243.663 108.617 243.983V246.023H107.897C107.897 244.999 107.633 244.263 107.105 243.815C106.593 243.367 105.857 243.143 104.897 243.143H101.033V249.143H107.273V250.223H101.033V256.823H105.137C106.017 256.823 106.761 256.631 107.369 256.247C107.993 255.847 108.513 255.127 108.929 254.087L109.577 254.327L108.881 256.223C108.705 256.735 108.473 257.143 108.185 257.447C107.913 257.751 107.449 257.903 106.793 257.903H97.9128ZM112.303 257.903V245.183C112.303 244.463 112.199 243.887 111.991 243.455C111.799 243.007 111.343 242.783 110.623 242.783H110.383V242.063H116.911C120.207 242.063 122.679 242.759 124.327 244.151C125.991 245.543 126.823 247.455 126.823 249.887C126.823 251.471 126.463 252.863 125.743 254.063C125.039 255.263 123.999 256.207 122.623 256.895C121.247 257.567 119.551 257.903 117.535 257.903H112.303ZM117.463 256.943C118.583 256.943 119.575 256.663 120.439 256.103C121.303 255.543 121.983 254.743 122.479 253.703C122.975 252.663 123.223 251.423 123.223 249.983C123.223 248.575 122.975 247.351 122.479 246.311C121.999 245.271 121.319 244.463 120.439 243.887C119.575 243.311 118.567 243.023 117.415 243.023C117.063 243.023 116.759 243.031 116.503 243.047C116.247 243.063 115.887 243.111 115.423 243.191V256.775C115.775 256.839 116.047 256.887 116.239 256.919C116.447 256.935 116.639 256.943 116.815 256.943C116.991 256.943 117.207 256.943 117.463 256.943ZM134.247 258.311C133.591 258.311 132.943 258.247 132.303 258.119C131.663 257.991 131.079 257.807 130.551 257.567C130.023 257.311 129.599 257.007 129.279 256.655C128.975 256.287 128.823 255.879 128.823 255.431V252.623H129.495C129.751 254.287 130.263 255.471 131.031 256.175C131.815 256.879 132.879 257.231 134.223 257.231C134.831 257.231 135.359 257.143 135.807 256.967C136.271 256.791 136.623 256.535 136.863 256.199C137.119 255.847 137.247 255.415 137.247 254.903C137.247 254.215 137.023 253.647 136.575 253.199C136.143 252.735 135.543 252.271 134.775 251.807L131.823 250.031C130.735 249.391 129.967 248.735 129.519 248.063C129.071 247.391 128.847 246.615 128.847 245.735C128.847 244.471 129.327 243.471 130.287 242.735C131.263 241.999 132.575 241.631 134.223 241.631C134.879 241.631 135.527 241.695 136.167 241.823C136.807 241.951 137.391 242.143 137.919 242.399C138.447 242.639 138.863 242.935 139.167 243.287C139.487 243.639 139.647 244.047 139.647 244.511V247.319H138.975C138.703 245.655 138.191 244.471 137.439 243.767C136.687 243.063 135.703 242.711 134.487 242.711C133.911 242.711 133.407 242.807 132.975 242.999C132.559 243.191 132.239 243.463 132.015 243.815C131.791 244.151 131.679 244.559 131.679 245.039C131.679 245.711 131.903 246.255 132.351 246.671C132.815 247.087 133.423 247.519 134.175 247.967L137.127 249.719C138.215 250.359 139.007 250.991 139.503 251.615C140.015 252.223 140.271 252.967 140.271 253.847C140.271 255.223 139.751 256.311 138.711 257.111C137.671 257.911 136.183 258.311 134.247 258.311ZM143.428 257.903V245.183C143.428 244.463 143.324 243.887 143.116 243.455C142.924 243.007 142.468 242.783 141.748 242.783H141.508V242.063H144.388C144.948 242.063 145.38 242.159 145.684 242.351C146.004 242.543 146.228 242.863 146.356 243.311C146.484 243.759 146.548 244.383 146.548 245.183V249.143H153.028V242.063H156.148V254.783C156.148 255.503 156.244 256.087 156.436 256.535C156.644 256.967 157.108 257.183 157.828 257.183H158.068V257.903H155.188C154.628 257.903 154.188 257.815 153.868 257.639C153.564 257.447 153.348 257.127 153.22 256.679C153.092 256.215 153.028 255.583 153.028 254.783V250.223H146.548V257.903H143.428ZM173.494 257.999C172.966 257.999 172.406 257.935 171.814 257.807C171.238 257.663 170.678 257.367 170.134 256.919C169.606 256.471 169.15 255.791 168.766 254.879L168.214 253.535H161.83L159.862 257.903H158.614L165.694 242.063H166.774L172.15 254.879C172.438 255.583 172.79 256.143 173.206 256.559C173.622 256.975 174.102 257.215 174.646 257.279V257.879C174.518 257.911 174.334 257.935 174.094 257.951C173.87 257.983 173.67 257.999 173.494 257.999ZM162.334 252.455H167.758L165.118 246.191L162.334 252.455ZM176.241 257.903V245.183C176.241 244.463 176.137 243.887 175.929 243.455C175.737 243.007 175.281 242.783 174.561 242.783H174.321V242.063H177.201C177.761 242.063 178.193 242.159 178.497 242.351C178.817 242.543 179.041 242.863 179.169 243.311C179.297 243.759 179.361 244.383 179.361 245.183V256.823H187.641V257.903H176.241ZM202.72 257.999C202.192 257.999 201.632 257.935 201.04 257.807C200.464 257.663 199.904 257.367 199.36 256.919C198.832 256.471 198.376 255.791 197.992 254.879L197.44 253.535H191.056L189.088 257.903H187.84L194.92 242.063H196L201.376 254.879C201.664 255.583 202.016 256.143 202.432 256.559C202.848 256.975 203.328 257.215 203.872 257.279V257.879C203.744 257.911 203.56 257.935 203.32 257.951C203.096 257.983 202.896 257.999 202.72 257.999ZM191.56 252.455H196.984L194.344 246.191L191.56 252.455Z" fill="white"/>
</svg>
