<svg width="410" height="505" viewBox="0 0 410 505" fill="none" xmlns="http://www.w3.org/2000/svg">
<mask id="mask0_481_73" style="mask-type:luminance" maskUnits="userSpaceOnUse" x="127" y="13" width="283" height="398">
<path d="M127.444 13.9536H409.445V410.266H127.444V13.9536Z" fill="white"/>
</mask>
<g mask="url(#mask0_481_73)">
<mask id="mask1_481_73" style="mask-type:luminance" maskUnits="userSpaceOnUse" x="-2" y="-3" width="413" height="427">
<path d="M5.6801 -2.20801L410.314 5.0637L403.217 423.64L-1.4165 416.368L5.6801 -2.20801Z" fill="white"/>
</mask>
<g mask="url(#mask1_481_73)">
<mask id="mask2_481_73" style="mask-type:luminance" maskUnits="userSpaceOnUse" x="-2" y="-3" width="413" height="427">
<path d="M5.6801 -2.20801L410.314 5.0637L403.217 423.64L-1.4165 416.368L5.6801 -2.20801Z" fill="white"/>
</mask>
<g mask="url(#mask2_481_73)">
<mask id="mask3_481_73" style="mask-type:luminance" maskUnits="userSpaceOnUse" x="-2" y="-3" width="413" height="427">
<path d="M5.6801 -2.20801L410.314 5.0637L403.217 423.64L-1.4165 416.368L5.6801 -2.20801Z" fill="white"/>
</mask>
<g mask="url(#mask3_481_73)">
<path d="M407.084 192.746C407.084 192.855 406.893 195.57 405.898 200.116C404.478 206.505 402.106 212.61 398.886 218.257C395.528 224.101 389.618 232.31 380.519 238.197C372.438 243.441 362.693 246.254 353.393 246.079C352.578 246.068 351.773 246.036 350.968 245.981C346.763 245.709 342.738 244.924 338.956 243.724C334.508 253.602 322.92 259.718 313.589 263.544C308.144 265.768 302.435 267.327 296.62 268.112C295.264 268.287 280.298 268.679 280.404 268.254C283.084 257.134 290.689 247.409 300.656 242.329C311.28 236.921 321.564 238.306 332.177 240.933C328.809 239.233 325.61 237.15 322.581 234.708C317.698 230.642 313.747 225.605 311.089 220.209C310.782 220.23 310.4 220.274 309.998 220.296C308.398 220.383 306.026 220.427 303.516 220.012C298.506 219.293 292.193 216.567 289.163 211.836C285.986 207.224 285.181 199.211 286.346 192.855C286.876 189.65 287.755 186.892 288.539 184.951C289.238 182.978 289.894 181.877 289.894 181.877C289.894 181.877 292.394 182.182 294.947 183.926C297.499 185.627 300.169 188.669 301.418 193.139C301.789 194.272 302.107 195.602 302.372 197.052C302.721 198.492 303.113 200.051 303.505 201.653C304.405 204.826 305.443 208.096 306.81 210.865C307.456 212.272 308.165 213.558 308.833 214.692C308.504 213.656 308.229 212.61 308.007 211.574C307.043 207.747 306.672 203.725 306.905 199.582C305.846 195.374 304.702 189.759 304.903 185.224C305.126 179.936 306.619 173.907 309.394 168.652C311.947 163.441 316.533 158.677 320.738 156.409C324.996 154.033 329.731 153.302 333.851 153.76C337.696 154.164 342.028 155.635 345.004 158.295C345.926 159.124 352.906 167.17 353.478 166.396C349.887 171.454 344.051 174.256 338.278 176.229C329.233 179.315 318.08 181.539 312.37 190.239C311.756 191.165 311.205 192.365 310.708 193.705C309.521 199.647 309.585 205.414 310.941 210.833C311.174 211.912 311.47 212.98 311.809 214.038C311.735 212.152 311.767 209.971 312.159 207.747C312.614 204.597 313.864 201.413 315.336 198.928C316.131 197.674 317.01 196.605 317.857 195.744C318.81 194.894 319.711 194.251 320.579 193.814C324.286 192.168 328.566 193.455 332.008 194.817C335.408 196.213 337.982 197.576 337.982 197.576C337.982 197.576 337.94 197.816 337.961 198.197C337.897 198.557 337.802 199.015 337.537 199.549C337.029 200.596 335.906 201.817 333.078 203.583C330.154 205.251 324.742 208.565 320.346 212.424C317.486 214.877 315.082 217.33 313.737 218.737C316.205 223.784 319.88 228.494 324.435 232.288C328.269 235.373 332.421 237.87 336.796 239.68C341.181 241.479 346.032 242.569 351.19 242.907C360.628 243.594 370.679 240.955 378.93 235.591C387.521 230.042 393.124 222.258 396.312 216.709C399.384 211.334 401.64 205.534 402.974 199.473C403.927 195.166 404.097 192.593 404.118 192.561C404.171 191.699 404.944 191.143 405.728 191.111C406.523 191.143 407.147 191.896 407.084 192.746ZM277.375 19.5334L283.338 22.4006H283.348C292.754 26.8814 311.216 36.5298 329.424 50.9205C341.477 60.3073 353.361 72.0052 362.407 83.2453C361.337 84.9678 359.378 88.184 357.302 91.8471C354.272 97.2981 350.65 103.796 349.771 108.113C348.881 112.485 350.173 116.617 351.635 119.778C352.345 121.37 353.139 122.689 353.764 123.605C354.399 124.521 354.813 125.077 354.813 125.077C354.813 125.077 357.715 123.943 361.009 121.752C364.324 119.538 367.915 116.311 369.08 111.787C370.319 107.274 369.249 99.7293 367.417 93.3734C366.75 91.0294 366.051 88.8381 365.373 87.0392C366.093 87.9659 366.771 88.9035 367.428 89.8302C369.652 92.9264 371.633 95.6955 373.179 98.2684C373.264 98.3992 373.338 98.5083 373.423 98.6391C376.78 112.899 374.556 127.748 378.295 136.022C382.638 150.882 398.293 153.4 398.293 153.4C400.231 136.437 385.911 111.711 377.215 98.9334C376.748 98.1921 376.251 97.4289 375.7 96.5786C374.1 93.9403 372.088 91.1275 369.843 87.9877C360.331 74.6435 345.905 59.8494 331.235 48.4458C312.794 33.8805 294.11 24.1014 284.598 19.5661L278.656 16.7097C277.904 16.3391 277.004 16.677 276.644 17.4511C276.559 17.6473 276.506 17.8653 276.506 18.0725C276.495 18.6939 276.824 19.2608 277.375 19.5334ZM378.242 268.341L373.677 267.851C372.596 267.687 371.421 267.72 370.181 267.742C369.525 267.764 368.847 267.785 368.158 267.774C366.273 267.72 364.314 267.938 362.227 268.189C353.404 261.484 341.89 256.632 331.648 257.178C335.133 263.959 342.145 268.243 349.411 269.933C350.004 270.064 350.608 270.206 351.211 270.304C348.923 270.925 346.477 271.677 343.829 272.582C336.213 275.537 330.578 278.219 325.6 281.249C315.781 286.875 307.233 293.896 301.249 299.412C296.832 294.855 291.261 292.162 285.414 291.868C280.436 291.541 275.309 292.904 270.797 295.684C270.744 295.629 270.712 295.575 270.649 295.52C268.446 293.492 265.046 293.427 263.33 295.695C261.582 297.919 262.101 301.277 264.484 303.152C266.857 305.06 270.077 304.918 271.687 302.857C272.661 301.571 272.884 299.892 272.407 298.289C276.379 295.858 280.87 294.681 285.223 294.953C288.009 295.095 290.699 295.858 293.22 297.156C291.875 297.057 290.456 297.123 288.994 297.406C284.418 298.18 279.652 300.699 275.426 304.569C273.932 304.166 272.407 304.558 271.475 305.736C270.109 307.491 270.659 310.227 272.693 311.819C274.737 313.411 277.428 313.367 278.709 311.743C279.832 310.282 279.546 307.992 278.116 306.302C281.739 303.195 285.774 301.102 289.524 300.459C291.642 300.066 293.591 300.132 295.296 300.622C295.021 300.633 294.756 300.644 294.47 300.677C291.769 300.851 286.918 301.767 283.338 305.398C282.491 305.289 281.686 305.518 281.145 306.139C280.139 307.251 280.51 309.192 281.929 310.413C283.327 311.623 285.202 311.699 286.155 310.631C286.939 309.726 286.823 308.265 285.975 307.055C288.814 304.547 292.542 303.904 294.724 303.762C295.455 303.697 296.133 303.697 296.779 303.708C296.44 304.035 296.112 304.373 295.805 304.667C293.114 307.316 290.922 309.857 289.185 311.884C288.517 312.647 287.924 313.345 287.299 314.043L285.869 315.885C283.804 314.784 281.495 314.981 280.277 316.54C278.773 318.393 279.747 321.544 282.162 323.321C284.63 325.141 287.501 325.087 288.877 323.408C289.979 322.002 289.63 319.745 288.2 317.87L289.598 316.071C290.159 315.438 290.784 314.73 291.473 313.945C293.178 311.95 295.307 309.486 297.944 306.902C298.474 306.357 299.078 305.757 299.713 305.125C299.872 308.886 298.537 312.201 297.595 314.076C296.79 315.885 295.868 317.335 295.264 318.229C294.226 317.848 293.199 317.968 292.595 318.655C291.769 319.712 292.246 321.555 293.665 322.743C295.095 323.931 296.874 324.106 297.648 323.103C298.262 322.405 298.188 321.293 297.595 320.235C298.294 319.232 299.364 317.553 300.306 315.438C300.836 314.392 301.482 312.898 301.98 311.132C301.969 312.146 301.895 313.105 301.779 313.978C301.429 316.191 300.793 318.513 299.904 320.813C299.067 322.776 298.114 324.629 297.086 326.362C295.603 325.425 293.94 325.414 293.146 326.428C292.214 327.562 292.902 329.568 294.587 330.854C296.25 332.13 298.22 332.249 299.088 331.192C299.565 330.592 299.565 329.687 299.173 328.761C300.465 326.7 301.641 324.444 302.679 322.002C303.664 319.44 304.363 316.888 304.765 314.414C304.946 313.073 305.009 311.786 304.977 310.554C306.227 313.661 306.863 316.627 307.149 318.993C307.435 321.685 307.36 324.444 306.894 327.104C306.439 329.306 305.698 331.312 304.691 333.133C302.965 332.446 301.302 332.587 300.444 333.656C299.289 335.237 300.444 337.995 302.901 339.794C305.39 341.604 308.134 341.898 309.14 340.502C310.157 339.216 309.288 336.73 307.223 334.79C308.409 332.653 309.299 330.287 309.85 327.692C310.379 324.683 310.475 321.631 310.146 318.622C309.606 314.054 307.954 307.545 303.336 301.647C309.203 296.251 317.55 289.371 327.167 283.888C332.04 280.922 337.526 278.306 344.898 275.45C351.508 273.204 356.92 271.874 361.443 271.361L361.909 271.307C364.059 271.045 366.082 270.783 367.883 270.816C368.773 270.838 369.567 270.816 370.34 270.805C371.484 270.772 372.48 270.751 373.37 270.882L378.009 271.372C378.899 271.459 379.577 270.827 379.651 269.977C379.661 269.192 379.058 268.429 378.242 268.341ZM296.758 334.343C295.275 333.231 293.506 333.154 292.807 334.168C292.108 335.182 292.765 336.85 294.29 337.908C295.815 338.943 297.584 339.031 298.241 338.082C298.919 337.123 298.241 335.455 296.758 334.343ZM274.79 315.733C273.318 314.599 271.411 314.708 270.532 315.994C269.642 317.27 270.161 319.178 271.676 320.235C273.191 321.304 275.097 321.184 275.934 319.974C276.771 318.774 276.252 316.878 274.79 315.733ZM263.075 312.222C264.929 313.563 267.344 313.323 268.456 311.721C269.558 310.086 269.102 307.731 267.312 306.27C265.543 304.842 263.044 304.951 261.868 306.695C260.671 308.428 261.222 310.903 263.075 312.222ZM220.21 373.743C220.21 373.743 220.231 373.47 220.284 372.947C220.305 372.446 220.453 371.65 220.485 370.799C220.623 369.055 220.803 366.776 221.068 364.422C221.258 362.339 221.47 359.919 221.714 357.335C221.82 356.169 221.915 355.024 221.947 353.901C222.01 352.582 222.053 352.266 222.053 350.325C222.074 349.715 222.063 348.254 222.032 347.251C222.021 346.128 221.979 344.972 221.894 343.806C221.788 341.473 221.618 339.063 221.47 336.698C221.301 334.059 221.174 331.868 221.068 330.331C220.962 328.445 220.909 327.365 220.909 327.365C220.909 327.365 220.644 327.398 220.136 327.431C219.648 327.496 218.854 327.442 218.007 327.714C217.106 327.943 216.005 328.248 214.935 328.783C213.823 329.295 212.562 329.949 211.355 330.843C208.95 332.631 206.567 335.302 204.83 338.693C203.919 340.361 203.252 342.236 202.754 344.187C202.278 346.259 202.013 347.959 201.949 350.521C201.928 351.764 202.129 354.599 202.553 356.387C202.987 358.36 203.612 360.246 204.449 361.958C206.069 365.392 208.379 368.15 210.741 370.003C211.916 370.941 213.155 371.617 214.257 372.184C215.337 372.751 216.418 373.078 217.286 373.307C218.113 373.601 218.949 373.612 219.437 373.678C219.945 373.71 220.21 373.743 220.21 373.743ZM164.093 252.555C166.265 251.836 168.33 251.236 169.866 250.811C171.497 250.331 172.44 250.058 172.44 250.058C172.44 250.058 172.313 249.84 172.08 249.415C171.836 249.034 171.487 248.325 170.936 247.693C169.866 246.297 168.087 244.564 165.545 243.059C163.013 241.609 159.73 240.486 156.065 240.225C154.232 240.094 152.315 240.159 150.387 240.476C148.608 240.715 146.055 241.511 144.858 242.013C142.624 242.961 141.151 243.855 139.467 245.033C137.868 246.188 136.427 247.507 135.22 248.914C132.762 251.737 131.142 254.877 130.294 257.734C129.468 260.634 129.373 263.108 129.511 264.929C129.511 265.801 129.786 266.499 129.85 266.957C129.966 267.436 130.019 267.676 130.019 267.676C130.019 267.676 130.877 267.208 132.381 266.357C133.758 265.605 135.633 264.526 137.698 263.49C139.732 262.443 141.924 261.364 144.117 260.328C145.176 259.838 146.288 259.336 147.411 258.824C148.428 258.399 149.466 257.952 150.515 257.516C151.68 257.047 152.866 256.556 154.021 256.109C155.143 255.728 156.266 255.259 157.41 254.845C159.624 254.06 161.922 253.275 164.093 252.555ZM251.308 277.554C254.708 282.372 257.43 288.358 256.053 294.125C262.165 290.047 266.338 283.07 267.153 275.613C267.948 268.167 265.342 260.405 260.237 255.052C257.377 252.043 244.656 242.907 245.652 236.431C243.385 239.298 241.637 242.754 240.779 246.33C239.466 251.77 239.466 257.625 241.553 262.879C243.724 268.385 247.908 272.746 251.308 277.554ZM234.318 369.306C243.364 370.494 252.844 367.551 259.718 361.391C265.385 356.321 269.166 349.17 270.426 341.549C264.039 341.364 257.621 342.857 252.007 345.986C243.364 350.848 236.807 359.483 234.318 369.306ZM267.715 247.66C267.63 252.468 271.348 256.436 276.019 256.513C280.69 256.6 284.535 252.773 284.609 247.965C284.694 243.147 280.986 239.189 276.315 239.102C271.655 239.015 267.799 242.863 267.715 247.66ZM292.669 234.152C292.701 232.234 291.229 230.664 289.365 230.631C287.511 230.598 285.986 232.114 285.954 234.032C285.912 235.951 287.395 237.521 289.248 237.554C291.112 237.586 292.638 236.071 292.669 234.152ZM378.549 152.321C375.107 152.256 372.257 155.09 372.194 158.644C372.141 162.209 374.884 165.142 378.337 165.196C381.79 165.262 384.629 162.427 384.692 158.873C384.735 155.319 382.002 152.386 378.549 152.321ZM388.484 174.779C388.453 176.851 390.041 178.552 392.054 178.584C394.056 178.628 395.708 176.982 395.74 174.91C395.772 172.839 394.183 171.138 392.181 171.105C390.169 171.084 388.516 172.73 388.484 174.779ZM386.493 241.086C382.744 241.01 379.661 244.084 379.598 247.954C379.534 251.814 382.511 254.997 386.26 255.063C390.01 255.128 393.092 252.054 393.155 248.194C393.23 244.335 390.243 241.151 386.493 241.086ZM179.95 220.187C176.084 220.11 172.895 223.294 172.821 227.273C172.758 231.263 175.84 234.556 179.706 234.621C183.572 234.687 186.771 231.514 186.834 227.524C186.909 223.545 183.816 220.252 179.95 220.187ZM219.405 303.839C224.627 303.926 228.938 299.63 229.033 294.256C229.118 288.87 224.955 284.433 219.733 284.335C214.511 284.237 210.2 288.532 210.116 293.918C210.02 299.292 214.183 303.74 219.405 303.839ZM232.761 317.106C235.039 317.15 236.913 315.286 236.956 312.931C236.998 310.587 235.187 308.657 232.91 308.614C230.632 308.57 228.757 310.445 228.715 312.789C228.673 315.133 230.484 317.063 232.761 317.106ZM312.656 359.134C308.79 359.069 305.613 362.241 305.549 366.21C305.486 370.2 308.568 373.47 312.413 373.547C316.29 373.612 319.467 370.44 319.531 366.46C319.615 362.492 316.533 359.2 312.656 359.134ZM319.414 345.179C317.719 345.147 316.311 346.531 316.279 348.297C316.247 350.064 317.592 351.492 319.308 351.524C321.003 351.557 322.412 350.173 322.443 348.406C322.465 346.64 321.109 345.212 319.414 345.179ZM370.171 280.857C368.889 280.835 367.83 281.893 367.809 283.212C367.788 284.531 368.805 285.621 370.086 285.643C371.368 285.665 372.427 284.607 372.448 283.288C372.469 281.969 371.453 280.879 370.171 280.857ZM224.669 394.664C220.919 394.599 217.827 397.662 217.763 401.532C217.699 405.392 220.676 408.575 224.425 408.641C228.175 408.706 231.257 405.642 231.331 401.772C231.395 397.913 228.408 394.729 224.669 394.664ZM234.71 379.358C233.047 379.325 231.681 380.698 231.66 382.399C231.628 384.1 232.962 385.517 234.604 385.55C236.257 385.583 237.634 384.209 237.665 382.508C237.697 380.807 236.384 379.379 234.71 379.358ZM358.371 179.009C358.34 181.124 359.971 182.891 362.036 182.923C364.091 182.956 365.807 181.277 365.839 179.14C365.871 177.014 364.239 175.27 362.174 175.226C360.098 175.205 358.403 176.894 358.371 179.009ZM273.953 210.724C277.894 210.789 281.135 207.573 281.198 203.506C281.272 199.44 278.127 196.104 274.197 196.039C270.278 195.962 267.016 199.189 266.952 203.256C266.878 207.311 270.013 210.647 273.953 210.724ZM166.699 301.724C160.143 301.604 154.73 306.978 154.624 313.738C154.508 320.497 159.719 326.068 166.286 326.188C172.842 326.308 178.244 320.933 178.361 314.163C178.477 307.404 173.256 301.844 166.699 301.724ZM371.696 263.675C374.312 263.73 376.473 261.571 376.526 258.878C376.568 256.175 374.482 253.951 371.866 253.896C369.239 253.852 367.078 256.011 367.036 258.704C366.983 261.408 369.08 263.632 371.696 263.675ZM339.211 123.365C337.675 129.416 338.225 136.001 340.746 141.692C343.267 147.382 347.748 152.103 353.203 154.861C353.139 142.128 348.362 129.525 340.196 120.018C339.846 121.13 339.507 122.253 339.211 123.365Z" fill="#13577A"/>
</g>
</g>
</g>
</g>
<mask id="mask4_481_73" style="mask-type:luminance" maskUnits="userSpaceOnUse" x="94" y="41" width="308" height="381">
<path d="M94.9055 41.8658H401.31V421.434H94.9055V41.8658Z" fill="white"/>
</mask>
<g mask="url(#mask4_481_73)">
<mask id="mask5_481_73" style="mask-type:luminance" maskUnits="userSpaceOnUse" x="-2" y="-3" width="413" height="427">
<path d="M5.67998 -2.20825L410.314 5.06346L403.217 423.639L-1.41663 416.368L5.67998 -2.20825Z" fill="white"/>
</mask>
<g mask="url(#mask5_481_73)">
<mask id="mask6_481_73" style="mask-type:luminance" maskUnits="userSpaceOnUse" x="-2" y="-3" width="413" height="427">
<path d="M5.67998 -2.20825L410.314 5.06346L403.217 423.639L-1.41663 416.368L5.67998 -2.20825Z" fill="white"/>
</mask>
<g mask="url(#mask6_481_73)">
<mask id="mask7_481_73" style="mask-type:luminance" maskUnits="userSpaceOnUse" x="-2" y="-3" width="413" height="427">
<path d="M5.67998 -2.20825L410.314 5.06346L403.217 423.639L-1.41663 416.368L5.67998 -2.20825Z" fill="white"/>
</mask>
<g mask="url(#mask7_481_73)">
<path d="M347.195 190.222C348.646 189.11 350.002 188.467 351.495 187.889C354.472 186.831 357.607 186.602 360.499 187.169C363.39 187.693 366.038 188.968 368.157 190.734C368.697 191.16 369.163 191.661 369.629 192.141L369.989 192.5C370.264 192.817 370.222 192.784 370.349 192.937L370.868 193.623C371.779 194.877 372.362 196.022 372.817 197.276C374.628 202.28 373.336 207.393 370.889 210.511C368.496 213.803 364.905 215.09 362.236 214.948C359.503 214.883 357.649 213.705 356.59 212.855C355.531 211.961 355.118 211.361 355.118 211.361C355.118 211.361 355.234 211.448 355.404 211.59C354.504 210.445 353.932 208.995 353.963 207.393C354.027 203.828 356.887 200.982 360.35 201.037C363.814 201.102 366.578 204.046 366.515 207.622C366.472 209.824 365.371 211.743 363.729 212.877C365.498 212.201 367.225 210.805 368.337 208.712C369.841 206.041 370.116 202.291 368.58 199.129C368.199 198.355 367.638 197.603 367.172 197.058L366.589 196.458C366.525 196.393 366.292 196.164 366.377 196.251L366.102 196.033C365.731 195.738 365.382 195.444 364.968 195.204C363.39 194.169 361.579 193.438 359.651 193.285C357.713 193.078 355.711 193.427 353.921 194.256C353.063 194.67 352.089 195.248 351.464 195.793C351.199 195.956 350.648 196.512 350.182 196.981L349.239 198.126C346.602 201.626 345.659 206.423 346.644 210.827C347.1 212.942 348.265 215.253 349.409 216.714C351.072 218.72 352.841 220.116 354.927 221.271C359.016 223.604 363.983 224.226 368.474 223.07C370.678 222.492 372.881 221.478 374.681 220.246C376.492 219.036 378.378 217.139 379.734 215.297C382.625 211.525 384.32 207.033 384.977 202.607C385.485 198.148 385.051 193.754 383.79 189.928C382.445 186.09 380.592 183.005 378.357 180.345C376.154 177.783 373.908 175.809 371.917 174.381C367.902 171.514 365.18 170.489 365.18 170.489C365.18 170.489 365.879 170.653 367.182 170.958C368.474 171.318 370.392 171.852 372.711 172.975C375.01 174.065 377.753 175.668 380.507 178.077C383.176 180.41 386.11 183.855 388.048 188.118C390.04 192.391 391.205 197.603 390.951 203.152C390.601 208.668 388.97 214.588 385.432 219.603C383.674 222.187 381.778 224.378 379.14 226.439C376.482 228.488 373.601 229.938 370.423 230.8C364.11 232.555 357.056 231.803 351.146 228.565C348.233 226.984 345.511 224.618 343.562 222.176C341.158 219.091 339.855 216.038 339.082 212.571C337.567 205.725 339.664 198.475 343.784 193.514C344.378 192.882 344.748 192.402 345.511 191.661C345.998 191.192 346.39 190.811 347.195 190.222ZM400.017 255.319C400.017 255.319 396.766 258.524 392.921 263.833C389.256 269.241 384.288 276.349 381.312 285.005C379.575 289.224 378.452 293.465 377.721 297.499C376.99 301.533 376.291 305.152 376.026 308.445C375.762 311.704 375.635 314.441 375.56 316.371L369.142 327.305C368.474 328.374 367.722 329.464 366.939 330.598L361.547 338.535C360.562 339.865 359.514 341.195 358.444 342.558L356.633 344.858C354.281 347.954 351.718 351.007 349.017 354.027C349.833 352.751 350.606 351.465 351.358 350.124C353.328 346.515 354.641 342.47 355.351 338.774C356.686 331.285 354.186 325.594 351.834 322.094C349.398 318.518 346.793 316.785 346.793 316.785C346.793 316.785 346.051 317.766 344.939 319.456C343.763 321.102 342.439 323.653 340.639 326.292C338.88 328.973 337.217 332.244 335.576 335.526C333.881 338.742 332.483 342.274 331.667 345.817C329.761 352.642 330.746 358.605 332.239 362.792C333.055 365.179 334.082 366.957 334.813 368.069C322.579 378.873 308.513 388.412 294.235 395.367C284.406 400.295 274.513 404.057 265.16 406.946C273.062 403.141 281.091 397.657 286.069 390.909C289.236 386.504 290.92 382.176 291.714 378.273C292.435 374.217 292.276 370.565 291.767 367.491C290.74 361.353 288.441 357.428 288.441 357.428C288.441 357.428 282.807 360.415 275.54 364.94C268.211 369.366 259.038 375.122 252.175 382.405C248.743 386.068 246.285 389.873 244.517 393.471C242.758 397.123 241.741 400.742 241.169 403.795C240.417 407.861 240.513 411.187 240.672 413.007C230.482 414.904 222.178 415.754 217.126 416.103C205.877 416.997 196.567 416.899 190.72 416.681C184.449 416.43 180.795 415.994 180.763 415.994C179.937 415.896 179.196 416.496 179.09 417.357C179.005 418.218 179.588 418.971 180.414 419.08C180.562 419.101 184.185 419.516 190.593 419.788C191.885 419.843 193.357 419.886 194.989 419.908C200.751 420.017 208.451 419.908 217.338 419.21C230.069 418.306 263.127 414.424 295.538 398.191C319.878 386.351 343.604 367.131 359.026 346.788L360.806 344.531C361.907 343.124 362.988 341.762 364.015 340.355L369.438 332.408C370.254 331.219 371.027 330.096 371.737 328.963L378.346 317.69C378.579 317.297 378.78 316.948 378.939 316.632C384.553 311.377 395.653 298.186 400.716 272.609C402.379 263.572 400.017 255.319 400.017 255.319ZM163.276 359.75C173.444 357.602 182.606 352.031 189.11 344.073C195.296 336.692 198.876 327.273 198.96 318.18C199.045 310.156 196.757 302.111 192.478 295.504C192.012 294.773 191.525 294.108 191.027 293.443C190.688 292.713 190.296 291.95 189.83 291.143C186.737 285.605 180.403 278.344 170.415 274.223C165.5 272.173 159.643 271.007 153.595 271.301C147.579 271.574 141.436 273.242 135.843 276.305C130.282 279.401 125.293 283.882 121.84 289.421C118.356 294.937 116.597 300.9 116.131 306.275C115.072 317.003 119.161 327.872 126.268 334.425C133.47 341.118 141.721 342.547 147.822 341.914C154.051 341.293 158.351 338.578 160.66 336.441C161.825 335.297 162.598 334.403 163.043 333.694C163.488 333.029 163.721 332.669 163.721 332.669C163.721 332.669 163.297 332.669 162.514 332.702C161.761 332.767 160.618 332.702 159.315 332.582C156.646 332.266 153.087 331.198 149.856 328.952C146.615 326.793 143.713 323.37 142.643 320.077C141.457 316.774 141.107 312.893 141.488 308.685C141.88 304.422 142.961 299.603 147.706 294.741C152.398 290.02 159.855 286.728 167.492 287C175.171 287.109 182.373 290.369 186.822 293.858C187.468 294.337 188.061 294.828 188.602 295.308C189.068 295.918 189.512 296.551 189.947 297.237C193.898 303.332 196.016 310.745 195.921 318.159C195.857 326.52 192.531 335.22 186.801 342.067C180.806 349.393 172.004 354.724 162.619 356.719C152.991 358.834 142.23 357.995 132.348 354.321C121.893 350.44 112.975 343.648 107.245 335.188C101.652 327.076 98.9829 316.054 99.7137 304.193C100.317 294.065 102.902 283.686 107.393 273.351C114.924 256.016 127.888 240.601 142.993 231.029C156.815 222.133 170.394 218.655 179.365 217.292C183.073 216.736 186.727 216.398 190.243 216.311C192.457 216.256 193.77 216.267 194.035 216.267C194.078 216.267 194.088 216.267 194.088 216.267C194.925 216.289 195.603 215.602 195.624 214.752C195.635 213.89 194.978 213.193 194.141 213.16C194.141 213.138 192.743 213.116 190.137 213.193C186.515 213.28 182.744 213.629 178.91 214.218C169.663 215.613 155.639 219.211 141.383 228.39C125.781 238.279 112.392 254.196 104.618 272.086C99.9891 282.77 97.32 293.509 96.6844 304.008C95.9006 316.589 98.7711 328.298 104.756 336.987C110.835 345.959 120.252 353.154 131.299 357.243C137.622 359.587 144.295 360.84 150.831 360.949C155.11 361.037 159.283 360.633 163.276 359.75ZM224.286 249.519C223.131 246.499 221.119 243.948 218.948 241.331C217.221 239.38 215.177 237.232 212.804 235.28C212.825 233.602 212.01 231.955 210.463 231.181C208.186 229.96 205.358 230.854 204.161 233.198C202.964 235.531 203.748 238.377 205.909 239.532C207.858 240.503 210.23 240.067 211.671 238.366C213.577 240.001 215.262 241.778 216.681 243.392C218.651 245.757 220.483 248.09 221.479 250.685C222.612 253.498 223.025 256.016 222.771 258.131C222.612 257.423 222.432 256.66 222.199 255.864C221.034 251.318 218.121 247.109 214.107 244.068C213.99 243.13 213.503 242.247 212.677 241.691C211.162 240.677 209.192 241.2 208.25 242.836C207.328 244.482 207.741 246.575 209.182 247.513C210.379 248.309 211.925 248.09 213.005 247.077C216.109 249.65 218.365 253.029 219.297 256.681C219.52 257.455 219.689 258.175 219.837 258.851L218.418 257.663C215.124 255.09 211.967 253.04 209.415 251.405C208.112 250.543 206.926 249.791 205.93 249.083C204.987 248.418 204.129 247.916 203.409 247.524C204.013 245.201 203.134 242.781 201.058 241.669C198.547 240.317 195.433 241.473 194.078 244.242C192.743 247.011 193.548 250.271 195.878 251.525C197.795 252.56 200.232 251.939 201.873 250.206C202.541 250.576 203.335 251.034 204.204 251.645C205.231 252.364 206.46 253.16 207.794 254.043C210.41 255.722 213.387 257.652 216.543 260.116L219.159 262.296C216.13 262.514 213.111 261.631 210.177 260.77L208.822 260.377C206.523 259.603 204.638 258.655 203.451 258.044C203.579 256.878 203.155 255.733 202.244 255.122C200.92 254.174 199.003 254.904 198.092 256.561C197.192 258.208 197.605 260.116 198.855 261.01C199.776 261.62 200.984 261.478 201.969 260.748C203.24 261.446 205.358 262.47 207.964 263.364L209.372 263.779C210.876 264.215 212.465 264.673 214.107 264.989C212.931 265.076 211.65 265.054 210.304 264.912C207.286 264.673 204.542 264.182 202.127 263.419C200.136 262.808 198.124 261.936 195.995 260.999C195.698 260.879 195.391 260.748 195.094 260.617C195.688 258.927 195.169 257.139 193.77 256.398C192.182 255.537 190.106 256.387 189.152 258.306C188.199 260.203 188.655 262.405 190.169 263.212C191.027 263.67 192.065 263.582 192.997 263.081C193.612 263.343 194.226 263.604 194.819 263.866C197.033 264.825 199.119 265.752 201.259 266.384C203.865 267.213 206.83 267.758 210.029 267.998C210.845 268.096 211.628 268.15 212.402 268.172C213.493 268.183 214.52 268.118 215.505 267.976C212.772 269.524 209.69 270.636 206.407 271.203C202.827 271.781 199.787 271.933 197.34 271.574C194.777 271.301 192.404 270.462 189.756 269.437C189.979 267.507 189.248 265.697 187.722 264.891C185.519 263.713 182.67 265.032 181.335 267.823C179.99 270.625 180.541 273.776 182.575 274.855C184.492 275.869 187.14 274.735 188.697 272.359C191.514 273.471 194.088 274.386 196.98 274.681C197.848 274.812 198.749 274.866 199.734 274.888C201.831 274.921 204.204 274.724 206.904 274.277C213.387 273.155 219.159 270.146 223.354 265.774L224.265 266.537C225.896 268.14 227.527 269.895 229.19 271.694C230.111 272.686 231.054 273.7 232.007 274.703C232.802 275.542 233.469 276.534 234.189 277.592C234.613 278.202 235.016 278.824 235.407 279.336C235.821 279.947 236.255 280.557 236.7 281.168C237.473 282.225 238.204 283.228 238.755 284.242C239.252 285.321 239.814 286.401 240.364 287.491C241.731 290.162 243.044 292.691 243.722 295.526C243.913 296.289 244.167 297.03 244.442 297.782C244.866 299.025 245.269 300.192 245.374 301.489L246.296 307.529L246.338 309.535C246.402 313.035 246.476 316.338 245.83 319.63C245.565 322.53 244.792 325.321 244.029 328.003C243.796 328.854 243.542 329.715 243.394 330.369C243.055 331.219 242.727 332.07 242.398 332.909C241.466 335.351 240.587 337.63 239.401 339.701C236.615 345.447 233.321 349.742 231.33 352.337C230.662 353.296 229.995 354.005 229.444 354.593C229.126 354.921 228.862 355.226 228.671 355.433L227.675 356.556C227.114 357.188 227.146 358.169 227.76 358.747C228.046 359.02 228.406 359.161 228.756 359.161C229.179 359.172 229.582 359.009 229.889 358.66L230.927 357.483C231.128 357.265 231.361 357.003 231.616 356.719C232.24 356.043 232.992 355.226 233.723 354.19C235.768 351.53 239.168 347.082 242.038 341.151C243.277 338.982 244.22 336.583 245.194 334.032C245.523 333.214 245.83 332.375 246.243 331.361C246.465 330.532 246.688 329.704 246.932 328.864C247.747 326.03 248.563 323.119 248.827 320.066C249.505 316.6 249.431 312.969 249.357 309.47L249.315 307.256L248.372 301.129C248.256 299.538 247.768 298.12 247.281 296.747C247.059 296.071 246.815 295.406 246.646 294.741C245.883 291.568 244.442 288.755 243.034 286.03C242.504 284.983 241.964 283.937 241.434 282.814C240.756 281.538 239.93 280.404 239.136 279.303C238.723 278.736 238.299 278.159 237.865 277.504C237.462 276.948 237.049 276.371 236.678 275.815C235.916 274.714 235.153 273.58 234.189 272.533C233.236 271.53 232.304 270.516 231.383 269.535C229.677 267.693 228.025 265.905 226.245 264.204L225.324 263.43C229.148 258.284 230.535 252.004 229.285 245.18C228.703 241.658 227.347 238.3 224.996 234.626C223.862 232.86 222.57 231.17 221.151 229.579C221.204 229.513 221.246 229.47 221.288 229.393C222.898 226.788 221.913 223.146 219.106 221.315C216.289 219.778 212.857 220.759 211.427 223.484C209.997 226.199 211.004 229.579 213.662 231.018C215.283 232.064 217.2 232.184 218.799 231.508C220.155 233.024 221.405 234.637 222.485 236.316C224.582 239.609 225.801 242.585 226.309 245.692C226.966 249.257 226.786 252.648 225.843 255.744C225.684 253.836 225.165 251.732 224.286 249.519ZM182.003 262.699C183.306 263.408 185.053 262.612 185.879 260.933C186.716 259.243 186.282 257.292 184.916 256.54C183.539 255.809 181.802 256.594 181.028 258.317C180.255 260.028 180.689 261.991 182.003 262.699ZM196.185 237.363C197.721 238.191 199.638 237.483 200.496 235.815C201.344 234.147 200.761 232.097 199.162 231.236C197.573 230.375 195.645 231.083 194.851 232.784C194.067 234.485 194.671 236.534 196.185 237.363ZM203.24 228.652C205.231 229.72 207.709 228.925 208.79 226.864C209.87 224.814 209.065 222.263 206.979 221.13C204.903 220.017 202.424 220.824 201.418 222.917C200.443 225.032 201.248 227.594 203.24 228.652ZM204.945 394.255C204.966 394.266 204.998 394.299 205.019 394.31C205.03 394.255 205.03 394.19 205.051 394.146C205.305 393.874 205.443 393.721 205.443 393.721C205.443 393.721 205.326 393.634 205.157 393.492C206.407 385.61 204.288 377.215 199.172 369.998C195.719 365.103 189.459 358.976 183.814 355.564C180.668 371.601 187.701 380.268 196.906 387.943C191.144 384.727 182.977 381.38 173.794 381.38C156.211 381.402 141.732 393.787 141.732 393.787C141.732 393.787 156.01 409.769 173.593 409.747C189.279 409.715 202.286 397.014 204.945 394.255ZM251.666 233.547C262.904 236.763 274.767 229.175 274.767 229.175C274.767 229.175 268.412 216.343 257.185 213.127C245.946 209.9 234.083 217.499 234.083 217.499C234.083 217.499 240.428 230.32 251.666 233.547ZM308.46 61.9147C313.597 62.3944 318.417 60.9008 322.018 59.1673C325.598 57.4339 327.854 55.4715 327.854 55.4715C327.854 55.4715 327.282 54.7084 326.265 53.52C325.259 52.3099 323.734 50.7836 321.891 49.2464C318.194 46.0957 313.036 43.2066 307.729 42.9776C302.402 42.8359 297.953 45.1908 294.797 47.622C291.64 50.0313 289.787 52.408 289.787 52.408C289.787 52.408 292 54.5666 295.4 56.7907C298.779 59.0365 303.355 61.3805 308.46 61.9147ZM341.391 107.191C343.933 107.126 345.765 106.559 345.765 106.559C345.765 106.559 345.13 104.095 343.679 101.13C342.153 98.2188 339.696 94.8936 336.423 93.4218C333.214 91.8628 329.909 92.3861 327.515 93.1384C325.1 93.9124 323.49 94.97 323.49 94.97C323.49 94.97 323.723 95.4169 324.158 96.1256C324.602 96.8342 325.227 97.8045 325.969 98.8947C327.589 101.021 329.687 103.594 332.663 105.229C335.533 106.886 338.827 107.268 341.391 107.191ZM315.483 68.892C312.75 70.7454 311.108 72.6642 311.108 72.6642C311.108 72.6642 311.543 73.1439 312.337 73.8634C313.142 74.572 314.254 75.5532 315.578 76.6435C318.321 78.6931 321.849 81.1242 326.138 82.04C330.301 83.0539 334.548 82.3126 337.726 81.266C340.882 80.2521 342.958 78.8675 342.958 78.8675C342.958 78.8675 341.306 76.0111 338.467 72.8495C335.544 69.786 331.328 66.559 326.71 65.9376C322.166 65.1962 318.205 67.0714 315.483 68.892ZM324.232 128.33C325.492 130.805 326.71 132.561 326.71 132.561C326.71 132.561 328.469 131.383 330.28 129.039C332.07 126.728 333.86 123.141 333.754 119.085C333.669 115.041 331.71 111.585 329.824 109.372C327.928 107.148 326.106 106.068 326.106 106.068C326.106 106.068 324.952 107.889 323.829 110.396C322.696 112.937 321.531 116.076 321.594 119.413C321.668 122.749 322.982 125.845 324.232 128.33ZM354.196 305.098C358.444 299.483 360.266 292.092 359.429 285.06C354.271 286.542 349.388 289.072 345.214 292.549C338.87 297.782 334.209 305.087 331.953 313.133C327.695 315.062 322.643 316.458 316.711 316.818C315.875 316.861 315.239 317.603 315.303 318.464C315.345 319.271 316.002 319.914 316.775 319.925C316.807 319.925 316.849 319.925 316.891 319.925C323.67 319.532 329.379 317.81 334.156 315.455C341.867 315.215 349.441 311.377 354.196 305.098ZM369.004 139.767C373.198 132.757 374.448 123.926 372.372 115.967C365.519 118.878 359.99 124.918 357.543 132.124C355.52 138.055 355.669 144.673 357.755 150.571C362.32 148.052 366.282 144.313 369.004 139.767ZM217.677 379.058C215.537 379.014 213.768 380.78 213.736 382.983C213.694 385.196 215.399 387.016 217.549 387.06C219.689 387.093 221.458 385.338 221.5 383.124C221.532 380.922 219.827 379.091 217.677 379.058ZM257.905 327.981C257.852 330.696 259.96 332.942 262.586 332.985C265.224 333.029 267.406 330.86 267.448 328.145C267.491 325.43 265.393 323.184 262.756 323.141C260.129 323.097 257.947 325.267 257.905 327.981ZM307.052 277.276C307.105 274.397 304.87 272.01 302.073 271.955C299.277 271.912 296.957 274.212 296.915 277.09C296.862 279.979 299.097 282.367 301.893 282.41C304.69 282.465 307.009 280.154 307.052 277.276ZM316.69 269.012C315.324 268.99 314.18 270.124 314.159 271.53C314.138 272.936 315.229 274.114 316.606 274.136C317.972 274.158 319.105 273.035 319.126 271.617C319.148 270.211 318.057 269.044 316.69 269.012ZM367.553 297.281C367.532 298.6 368.549 299.69 369.83 299.723C371.112 299.745 372.171 298.687 372.192 297.368C372.213 296.049 371.197 294.959 369.915 294.937C368.633 294.915 367.574 295.962 367.553 297.281ZM323.692 296.496C321.785 296.463 320.228 298.033 320.196 299.974C320.164 301.925 321.679 303.55 323.575 303.582C325.46 303.615 327.028 302.045 327.07 300.105C327.102 298.153 325.598 296.529 323.692 296.496ZM361.484 317.221C361.462 318.507 362.458 319.565 363.708 319.587C364.958 319.609 365.985 318.584 366.006 317.297C366.028 316.011 365.032 314.953 363.782 314.932C362.543 314.91 361.505 315.935 361.484 317.221ZM325.121 330.456C325.111 331.165 325.651 331.743 326.34 331.754C327.017 331.764 327.579 331.208 327.589 330.5C327.6 329.802 327.06 329.224 326.382 329.202C325.693 329.192 325.132 329.748 325.121 330.456ZM296.618 351.105C296.587 353.253 298.25 355.03 300.336 355.073C302.412 355.106 304.139 353.394 304.181 351.247C304.213 349.099 302.55 347.322 300.463 347.278C298.387 347.245 296.661 348.957 296.618 351.105ZM276.483 355.16C277.659 355.182 278.644 354.223 278.665 352.991C278.686 351.781 277.744 350.767 276.557 350.745C275.382 350.723 274.397 351.694 274.375 352.915C274.354 354.125 275.307 355.139 276.483 355.16ZM347.629 88.5813C350.277 88.6249 352.47 86.4445 352.523 83.708C352.565 80.9825 350.447 78.7258 347.799 78.6713C345.151 78.6276 342.958 80.8081 342.905 83.5445C342.863 86.27 344.981 88.5268 347.629 88.5813ZM336.646 218.524C336.698 215.777 334.58 213.52 331.911 213.476C329.252 213.422 327.06 215.602 327.007 218.349C326.964 221.097 329.083 223.354 331.741 223.408C334.411 223.452 336.603 221.271 336.646 218.524ZM360.891 252.669C360.901 251.59 360.075 250.707 359.026 250.685C357.988 250.663 357.13 251.525 357.109 252.593C357.088 253.672 357.925 254.555 358.963 254.577C360.001 254.599 360.869 253.738 360.891 252.669ZM285.052 223.899C286.747 223.931 288.134 222.547 288.166 220.792C288.198 219.047 286.853 217.619 285.158 217.586C283.463 217.554 282.065 218.938 282.033 220.683C282.012 222.438 283.357 223.866 285.052 223.899ZM310.261 231.912C310.314 229.077 308.121 226.733 305.367 226.69C302.614 226.635 300.347 228.903 300.294 231.737C300.252 234.572 302.444 236.905 305.198 236.959C307.941 237.003 310.219 234.746 310.261 231.912Z" fill="#2093A3"/>
</g>
</g>
</g>
</g>
<mask id="mask8_481_73" style="mask-type:luminance" maskUnits="userSpaceOnUse" x="0" y="11" width="283" height="397">
<path d="M0 11.1641H282.001V407.477H0V11.1641Z" fill="white"/>
</mask>
<g mask="url(#mask8_481_73)">
<mask id="mask9_481_73" style="mask-type:luminance" maskUnits="userSpaceOnUse" x="-2" y="-3" width="413" height="427">
<path d="M5.6801 -2.20801L410.314 5.0637L403.217 423.64L-1.4165 416.368L5.6801 -2.20801Z" fill="white"/>
</mask>
<g mask="url(#mask9_481_73)">
<mask id="mask10_481_73" style="mask-type:luminance" maskUnits="userSpaceOnUse" x="-2" y="-3" width="413" height="427">
<path d="M5.6801 -2.20801L410.314 5.0637L403.217 423.64L-1.4165 416.368L5.6801 -2.20801Z" fill="white"/>
</mask>
<g mask="url(#mask10_481_73)">
<mask id="mask11_481_73" style="mask-type:luminance" maskUnits="userSpaceOnUse" x="-2" y="-3" width="413" height="427">
<path d="M5.6801 -2.20801L410.314 5.0637L403.217 423.64L-1.4165 416.368L5.6801 -2.20801Z" fill="white"/>
</mask>
<g mask="url(#mask11_481_73)">
<path d="M12.607 204.757C9.54592 210.131 7.28983 215.931 5.95524 222.004C5.00196 226.31 4.8219 228.883 4.81131 228.916C4.74775 229.766 3.97454 230.322 3.19073 230.355C2.35397 230.289 1.72904 229.548 1.80318 228.687C1.80318 228.578 2.00443 225.874 3.00008 221.317C4.4194 214.939 6.78141 208.823 10.0014 203.176C13.359 197.343 19.2694 189.134 28.3785 183.236C36.4496 178.003 46.2048 175.19 55.4939 175.354C56.3201 175.364 57.1145 175.397 57.9195 175.463C62.1245 175.735 66.1601 176.509 69.9308 177.719C74.39 167.842 85.9777 161.715 95.3092 157.899C100.753 155.664 106.463 154.116 112.278 153.331C113.633 153.157 128.589 152.764 128.494 153.189C125.803 164.299 118.198 174.023 108.242 179.104C97.6076 184.511 87.3228 183.138 76.7203 180.499C80.0779 182.2 83.2873 184.282 86.306 186.735C91.1995 190.791 95.1397 195.828 97.8089 201.235C98.1161 201.202 98.4868 201.17 98.8893 201.148C100.499 201.05 102.861 201.017 105.372 201.431C110.392 202.151 116.694 204.866 119.724 209.597C122.912 214.209 123.706 222.233 122.541 228.589C122.012 231.783 121.132 234.541 120.359 236.493C119.65 238.455 118.993 239.567 118.993 239.567C118.993 239.567 116.504 239.262 113.94 237.506C111.398 235.806 108.729 232.775 107.479 228.305C107.109 227.16 106.791 225.841 106.516 224.391C106.166 222.941 105.774 221.382 105.393 219.78C104.492 216.607 103.444 213.336 102.077 210.567C101.431 209.161 100.722 207.875 100.065 206.752C100.383 207.776 100.669 208.823 100.891 209.859C101.844 213.696 102.226 217.719 101.993 221.851C103.052 226.059 104.196 231.674 103.995 236.209C103.772 241.497 102.268 247.526 99.5036 252.78C96.9404 258.002 92.354 262.767 88.149 265.034C83.9016 267.411 79.1564 268.141 75.0467 267.684C71.2018 267.269 66.8591 265.798 63.8828 263.137C62.9613 262.309 55.9918 254.274 55.4092 255.048C59.0105 249.989 64.8467 247.177 70.6193 245.214C79.6542 242.129 90.8076 239.905 96.5273 231.205C97.131 230.278 97.6924 229.079 98.1902 227.738C99.3765 221.797 99.313 216.029 97.9572 210.6C97.7242 209.521 97.4276 208.463 97.0886 207.395C97.1628 209.281 97.1204 211.461 96.7285 213.696C96.2731 216.847 95.0338 220.03 93.5615 222.516C92.7671 223.759 91.888 224.827 91.0406 225.689C90.0873 226.55 89.1764 227.193 88.3079 227.618C84.6113 229.275 80.3321 227.978 76.8897 226.615C73.4897 225.22 70.9053 223.857 70.9053 223.857C70.9053 223.857 70.9582 223.628 70.937 223.247C71.0006 222.876 71.0959 222.418 71.3607 221.884C71.8691 220.837 72.9919 219.616 75.8199 217.861C78.7433 216.193 84.1558 212.868 88.5515 209.008C91.4008 206.555 93.8157 204.102 95.1609 202.707C92.6824 197.659 89.0176 192.95 84.4524 189.156C80.6287 186.059 76.4661 183.563 72.1022 181.753C67.7065 179.954 62.866 178.875 57.7077 178.537C48.2702 177.85 38.2078 180.488 29.9673 185.841C21.3878 191.423 15.7952 199.207 12.607 204.757ZM131.523 401.911L125.56 399.043C125.56 399.043 125.56 399.043 125.549 399.032C116.144 394.563 97.6818 384.903 79.4742 370.512C67.4205 361.126 55.5363 349.428 46.4908 338.199C47.5605 336.465 49.5201 333.249 51.5855 329.597C54.6254 324.146 58.2479 317.648 59.127 313.32C60.0167 308.948 58.7139 304.816 57.2522 301.665C56.5531 300.074 55.7587 298.755 55.1338 297.839C54.4877 296.923 54.0852 296.367 54.0852 296.367C54.0852 296.367 51.183 297.49 47.8889 299.681C44.5736 301.894 40.9723 305.132 39.8178 309.646C38.5785 314.159 39.6377 321.714 41.4807 328.06C42.1374 330.403 42.8471 332.595 43.5144 334.405C42.8047 333.467 42.1163 332.54 41.4702 331.603C39.2458 328.517 37.2651 325.748 35.7187 323.175C35.634 323.034 35.5598 322.925 35.4751 322.805C32.1068 308.545 34.3417 293.696 30.6028 285.421C26.2495 270.562 10.6051 268.043 10.6051 268.043C8.65619 284.996 22.9871 309.733 31.6832 322.499C32.1492 323.252 32.6364 324.004 33.1872 324.865C34.7972 327.493 36.7885 330.305 39.0552 333.445C48.5562 346.789 62.9931 361.584 77.663 372.998C96.1036 387.563 114.788 397.343 124.289 401.867L130.242 404.734C130.994 405.105 131.894 404.767 132.243 403.993C132.339 403.786 132.392 403.579 132.392 403.361C132.402 402.739 132.085 402.172 131.523 401.911ZM112.129 87.079C113.612 88.191 115.392 88.2673 116.091 87.2534C116.79 86.2395 116.133 84.5715 114.608 83.5249C113.072 82.4783 111.303 82.3911 110.646 83.3396C109.979 84.299 110.646 85.967 112.129 87.079ZM134.108 105.689C135.569 106.823 137.476 106.714 138.366 105.427C139.245 104.163 138.736 102.244 137.222 101.197C135.707 100.118 133.8 100.238 132.953 101.459C132.116 102.647 132.635 104.544 134.108 105.689ZM145.812 109.199C143.958 107.858 141.554 108.098 140.431 109.701C139.34 111.336 139.785 113.691 141.575 115.152C143.354 116.58 145.854 116.471 147.03 114.727C148.216 112.993 147.687 110.54 145.812 109.199ZM144.414 118.248C142.03 116.351 138.821 116.493 137.2 118.553C136.237 119.84 136.014 121.519 136.491 123.121C132.519 125.553 128.017 126.73 123.664 126.447C120.889 126.305 118.188 125.553 115.667 124.255C117.023 124.353 118.431 124.288 119.904 124.004C124.48 123.23 129.235 120.712 133.472 116.842C134.966 117.234 136.491 116.853 137.423 115.675C138.789 113.92 138.238 111.184 136.194 109.592C134.161 107.989 131.46 108.033 130.189 109.668C129.055 111.118 129.352 113.408 130.782 115.108C127.149 118.215 123.113 120.309 119.374 120.941C117.256 121.333 115.307 121.268 113.602 120.777C113.866 120.767 114.131 120.756 114.417 120.734C117.129 120.549 121.98 119.644 125.549 116.013C126.397 116.122 127.212 115.882 127.752 115.272C128.759 114.149 128.388 112.208 126.969 110.987C125.57 109.788 123.696 109.701 122.742 110.78C121.948 111.685 122.075 113.146 122.922 114.356C120.084 116.864 116.345 117.507 114.174 117.649C113.443 117.714 112.765 117.714 112.119 117.703C112.458 117.365 112.786 117.038 113.093 116.733C115.783 114.084 117.965 111.554 119.713 109.526C120.38 108.752 120.974 108.066 121.598 107.368L123.028 105.525C125.083 106.616 127.403 106.43 128.61 104.871C130.114 103.018 129.151 99.8672 126.736 98.0901C124.331 96.2368 121.45 96.2913 120.073 97.992C118.982 99.3984 119.321 101.655 120.751 103.519L119.353 105.318C118.792 105.951 118.167 106.659 117.489 107.444C115.773 109.439 113.633 111.903 111.017 114.487C110.487 115.032 109.884 115.643 109.248 116.275C109.079 112.514 110.424 109.189 111.356 107.324C112.161 105.514 113.083 104.054 113.686 103.16C114.724 103.552 115.752 103.432 116.366 102.734C117.182 101.677 116.705 99.8454 115.286 98.6571C113.866 97.4578 112.076 97.2943 111.303 98.2864C110.699 98.9841 110.763 100.107 111.356 101.154C110.657 102.157 109.587 103.836 108.644 105.951C108.125 107.008 107.469 108.491 106.982 110.268C106.982 109.254 107.056 108.284 107.172 107.411C107.522 105.198 108.157 102.876 109.047 100.576C109.884 98.6134 110.837 96.7601 111.864 95.0376C113.347 95.9642 115.021 95.9751 115.805 94.9612C116.737 93.8274 116.059 91.8214 114.364 90.535C112.701 89.2703 110.731 89.1395 109.863 90.197C109.397 90.8075 109.397 91.7124 109.778 92.6391C108.496 94.6996 107.31 96.9454 106.272 99.3984C105.287 101.949 104.588 104.501 104.196 106.975C104.005 108.327 103.942 109.614 103.984 110.835C102.724 107.739 102.088 104.762 101.802 102.396C101.516 99.7037 101.601 96.9454 102.056 94.2853C102.512 92.094 103.264 90.0771 104.259 88.2564C105.986 88.9433 107.659 88.8124 108.507 87.7331C109.661 86.1632 108.507 83.3941 106.049 81.6061C103.571 79.7964 100.817 79.502 99.8108 80.8975C98.7939 82.173 99.6625 84.6587 101.728 86.5993C100.542 88.747 99.6519 91.1019 99.1117 93.6966C98.5821 96.7165 98.4868 99.7582 98.8045 102.767C99.3553 107.335 100.997 113.855 105.615 119.742C99.7472 125.149 91.4008 132.018 81.7938 137.501C76.9215 140.467 71.4243 143.083 64.0628 145.94C57.4429 148.185 52.041 149.515 47.5076 150.028L47.0415 150.082C44.902 150.355 42.8683 150.606 41.0677 150.573C40.1779 150.562 39.3835 150.573 38.6103 150.595C37.4664 150.617 36.4707 150.649 35.581 150.508L30.9417 150.028C30.052 149.93 29.3741 150.562 29.3 151.423C29.2258 152.274 29.819 153.037 30.6557 153.113L35.2103 153.593C36.3013 153.767 37.477 153.735 38.7056 153.702C39.3623 153.691 40.0508 153.669 40.7287 153.68C42.6247 153.735 44.5736 153.517 46.6602 153.266C55.4939 159.971 66.9968 164.822 77.2393 164.277C73.7545 157.496 66.7532 153.211 59.4871 151.521C58.894 151.391 58.2902 151.249 57.6759 151.151C59.9638 150.529 62.4211 149.777 65.0691 148.872C72.6741 145.918 78.3197 143.236 83.2873 140.205C93.1167 134.58 101.654 127.559 107.638 122.042C112.055 126.599 117.637 129.281 123.484 129.586C128.462 129.913 133.589 128.551 138.09 125.771C138.154 125.825 138.186 125.88 138.238 125.934C140.452 127.962 143.842 128.027 145.568 125.76C147.316 123.481 146.786 120.145 144.414 118.248ZM279.408 156.471C279.408 155.588 279.133 154.901 279.069 154.432C278.964 153.964 278.9 153.713 278.9 153.713C278.9 153.713 278.053 154.192 276.549 155.032C275.161 155.795 273.286 156.863 271.231 157.899C269.187 158.957 266.995 160.036 264.813 161.061C263.743 161.551 262.631 162.053 261.508 162.565C260.491 163.001 259.453 163.437 258.405 163.884C257.239 164.353 256.053 164.833 254.899 165.291C253.786 165.672 252.653 166.141 251.52 166.545C249.242 167.362 246.955 168.147 244.773 168.867C242.601 169.586 240.536 170.186 239 170.611C237.369 171.091 236.426 171.363 236.426 171.363C236.426 171.363 236.553 171.581 236.786 172.007C237.051 172.388 237.379 173.097 237.93 173.729C239 175.125 240.779 176.858 243.311 178.362C245.853 179.812 249.137 180.935 252.801 181.197C254.634 181.328 256.551 181.262 258.479 180.946C260.248 180.706 262.811 179.911 264.008 179.409C266.243 178.461 267.715 177.567 269.399 176.389C270.998 175.234 272.428 173.914 273.646 172.508C276.104 169.684 277.724 166.545 278.572 163.688C279.451 160.766 279.557 158.281 279.408 156.471ZM149.159 60.0308C143.503 65.1003 139.721 72.2521 138.461 79.8727C144.837 80.058 151.256 78.5644 156.88 75.4355C165.513 70.5841 172.069 61.9496 174.558 52.1377C165.534 50.9276 156.054 53.882 149.159 60.0308ZM176.126 104.326C173.859 104.293 171.974 106.158 171.942 108.502C171.9 110.846 173.711 112.786 175.988 112.819C178.266 112.863 180.14 110.998 180.183 108.654C180.215 106.289 178.403 104.37 176.126 104.326ZM96.2307 62.2876C100.097 62.3639 103.274 59.1805 103.349 55.2121C103.412 51.2219 100.33 47.9513 96.4743 47.875C92.6082 47.8096 89.4306 50.993 89.3671 54.9613C89.2929 58.9297 92.3646 62.2222 96.2307 62.2876ZM89.4836 76.2423C91.1783 76.275 92.587 74.8904 92.6082 73.1243C92.64 71.369 91.2948 69.93 89.5895 69.8973C87.8948 69.8645 86.4861 71.2491 86.4543 73.0153C86.4225 74.7814 87.7783 76.2096 89.4836 76.2423ZM38.7374 140.565C40.0191 140.587 41.0783 139.529 41.0994 138.221C41.1206 136.902 40.1038 135.801 38.8222 135.779C37.5405 135.757 36.4813 136.814 36.4601 138.134C36.4178 139.453 37.4452 140.543 38.7374 140.565ZM184.472 12.7701C180.723 12.6938 177.63 15.7682 177.567 19.6385C177.503 23.4978 180.479 26.6812 184.229 26.7467C187.978 26.8121 191.061 23.7377 191.135 19.8783C191.198 16.019 188.211 12.8355 184.472 12.7701ZM174.177 42.0641C175.851 42.0968 177.206 40.7232 177.238 39.0224C177.27 37.3217 175.935 35.9044 174.283 35.8717C172.62 35.8499 171.254 37.2127 171.233 38.9134C171.201 40.6142 172.514 42.0423 174.177 42.0641ZM43.0695 242.282C43.0378 244.397 44.6689 246.163 46.7344 246.195C48.7892 246.228 50.5051 244.549 50.5369 242.412C50.5687 240.287 48.9375 238.531 46.8721 238.499C44.8172 238.466 43.1013 240.167 43.0695 242.282ZM134.955 210.698C131.015 210.633 127.774 213.849 127.71 217.915C127.636 221.982 130.782 225.318 134.711 225.383C138.652 225.46 141.893 222.233 141.956 218.177C142.03 214.111 138.885 210.774 134.955 210.698ZM254.274 107.684C254.39 100.925 249.168 95.3537 242.612 95.2338C236.055 95.1139 230.654 100.5 230.537 107.259C230.421 114.018 235.642 119.578 242.199 119.698C248.755 119.818 254.157 114.443 254.274 107.684ZM41.8621 162.729C41.9044 160.036 39.8178 157.801 37.2016 157.757C34.5854 157.714 32.414 159.862 32.3716 162.565C32.3293 165.258 34.4159 167.493 37.0321 167.537C39.6483 167.591 41.8091 165.433 41.8621 162.729Z" fill="#166849"/>
</g>
</g>
</g>
</g>
<mask id="mask12_481_73" style="mask-type:luminance" maskUnits="userSpaceOnUse" x="5" y="0" width="310" height="380">
<path d="M5.42398 0H314.539V379.568H5.42398V0Z" fill="white"/>
</mask>
<g mask="url(#mask12_481_73)">
<mask id="mask13_481_73" style="mask-type:luminance" maskUnits="userSpaceOnUse" x="-2" y="-3" width="413" height="427">
<path d="M5.6801 -2.20792L410.314 5.0638L403.217 423.64L-1.4165 416.368L5.6801 -2.20792Z" fill="white"/>
</mask>
<g mask="url(#mask13_481_73)">
<mask id="mask14_481_73" style="mask-type:luminance" maskUnits="userSpaceOnUse" x="-2" y="-3" width="413" height="427">
<path d="M5.6801 -2.20792L410.314 5.0638L403.217 423.64L-1.4165 416.368L5.6801 -2.20792Z" fill="white"/>
</mask>
<g mask="url(#mask14_481_73)">
<mask id="mask15_481_73" style="mask-type:luminance" maskUnits="userSpaceOnUse" x="-2" y="-3" width="413" height="427">
<path d="M5.6801 -2.20792L410.314 5.0638L403.217 423.64L-1.4165 416.368L5.6801 -2.20792Z" fill="white"/>
</mask>
<g mask="url(#mask15_481_73)">
<path d="M20.891 233.315C18.8997 229.052 17.7345 223.83 17.9888 218.281C18.3383 212.776 19.9695 206.856 23.5072 201.841C25.2654 199.246 27.1614 197.055 29.7988 195.005C32.4468 192.955 35.3278 191.505 38.516 190.644C44.8288 188.878 51.8831 189.641 57.7934 192.868C60.7062 194.46 63.4178 196.826 65.3773 199.268C67.7816 202.342 69.0739 205.406 69.8577 208.862C71.3723 215.719 69.2751 222.969 65.1548 227.919C64.5617 228.551 64.1804 229.042 63.4283 229.772C62.9199 230.23 62.5174 230.622 61.7124 231.2C60.2613 232.312 58.9056 232.955 57.4121 233.533C54.4358 234.602 51.3111 234.82 48.4195 234.264C45.5173 233.729 42.8693 232.454 40.7509 230.688C40.2107 230.263 39.7447 229.761 39.2786 229.281L38.9185 228.922C38.6431 228.605 38.6855 228.638 38.5584 228.485L38.0394 227.799C37.1285 226.545 36.5459 225.4 36.0904 224.146C34.2792 219.142 35.5714 214.029 38.0182 210.922C40.412 207.619 44.0027 206.332 46.6718 206.474C49.4046 206.54 51.2582 207.717 52.3174 208.567C53.3766 209.461 53.7896 210.061 53.7896 210.061C53.7896 210.061 53.6731 209.974 53.5037 209.832C54.404 210.977 54.9759 212.438 54.9442 214.029C54.8912 217.594 52.0208 220.451 48.5572 220.385C45.0936 220.32 42.3291 217.376 42.3927 213.8C42.435 211.598 43.5366 209.679 45.1784 208.546C43.4095 209.221 41.6936 210.617 40.5709 212.71C39.0668 215.381 38.7914 219.131 40.3272 222.293C40.7085 223.067 41.2699 223.83 41.736 224.375L42.3185 224.964C42.3821 225.03 42.6151 225.258 42.5304 225.171L42.8058 225.389C43.1765 225.684 43.526 225.978 43.9391 226.218C45.5173 227.264 47.3285 227.984 49.2669 228.137C51.1946 228.344 53.1965 227.995 54.9865 227.166C55.8445 226.752 56.8189 226.174 57.4439 225.64C57.7087 225.466 58.2595 224.91 58.7255 224.452L59.6682 223.296C62.3056 219.807 63.2483 215 62.2632 210.606C61.8078 208.48 60.6427 206.169 59.4987 204.708C57.8358 202.702 56.0669 201.306 53.9803 200.151C49.8918 197.818 44.9242 197.196 40.4332 198.352C38.23 198.93 36.0269 199.944 34.2263 201.176C32.415 202.386 30.5297 204.283 29.1739 206.125C26.2823 209.897 24.5876 214.389 23.9309 218.826C23.4224 223.274 23.8567 227.668 25.1172 231.494C26.4623 235.332 28.3159 238.417 30.5508 241.088C32.754 243.639 34.9995 245.613 36.9908 247.041C41.0051 249.908 43.7273 250.933 43.7273 250.933C43.7273 250.933 43.0282 250.769 41.7254 250.475C40.4437 250.104 38.516 249.57 36.1964 248.458C33.8979 247.357 31.1546 245.754 28.4007 243.345C25.7633 241.034 22.8293 237.589 20.891 233.315ZM27.5745 136.417C29.3116 132.198 30.4449 127.957 31.1652 123.923C31.9066 119.889 32.6057 116.27 32.8705 112.977C33.1353 109.718 33.2518 106.992 33.3365 105.052L39.7553 94.1167C40.4226 93.0592 41.1746 91.969 41.9478 90.8243L47.3497 82.8875C48.3242 81.5575 49.3728 80.2274 50.4532 78.8646L52.2644 76.5643C54.6052 73.4681 57.1791 70.4155 59.8694 67.3956C59.0644 68.6711 58.2806 69.9576 57.5286 71.2986C55.5691 74.9072 54.2451 78.9519 53.546 82.6477C52.2114 90.1374 54.7006 95.8284 57.052 99.3388C59.4987 102.904 62.0938 104.637 62.0938 104.637C62.0938 104.637 62.8458 103.656 63.9579 101.977C65.1336 100.32 66.4576 97.7689 68.2583 95.1306C70.0166 92.4487 71.6795 89.189 73.3212 85.8965C75.016 82.6804 76.4141 79.1481 77.2297 75.6049C79.1362 68.7802 78.1512 62.8167 76.6577 58.6303C75.8315 56.2427 74.8041 54.4657 74.0839 53.3646C86.3176 42.5496 100.373 33.0103 114.662 26.0547C124.491 21.127 134.384 17.3657 143.737 14.4767C135.825 18.2815 127.806 23.7653 122.828 30.5137C119.651 34.9182 117.977 39.2463 117.183 43.1602C116.452 47.2049 116.621 50.8571 117.13 53.9315C118.157 60.0694 120.456 63.9941 120.456 63.9941C120.456 63.9941 126.09 61.007 133.346 56.4826C140.686 52.0563 149.859 46.3 156.722 39.0174C160.144 35.3542 162.601 31.5494 164.38 27.9517C166.139 24.2995 167.145 20.68 167.717 17.6274C168.48 13.5609 168.384 10.2357 168.225 8.41507C178.415 6.5181 186.719 5.66773 191.761 5.31886C203.009 4.42489 212.33 4.52301 218.167 4.75195C224.448 5.0027 228.102 5.42788 228.123 5.42788C228.96 5.526 229.701 4.92639 229.797 4.06512C229.892 3.21475 229.309 2.4516 228.473 2.34258C228.324 2.32077 224.702 1.90649 218.294 1.63394C217.023 1.60123 215.55 1.55763 213.93 1.52492C208.157 1.4268 200.457 1.53582 191.57 2.23356C178.849 3.13844 145.781 7.01959 113.37 23.242C89.0292 35.0926 65.3031 54.3021 49.8812 74.6564L48.1229 76.9023C47.0108 78.3086 45.9304 79.6714 44.9136 81.0778L39.4799 89.0363C38.6749 90.2138 37.8911 91.3367 37.192 92.4705L30.572 103.754C30.339 104.147 30.1378 104.496 29.9895 104.812C24.3545 110.077 13.2541 123.247 8.19117 148.845C6.51764 157.851 8.87965 166.125 8.87965 166.125C8.87965 166.125 12.1314 162.92 15.9657 157.6C19.6199 152.192 24.6087 145.073 27.5745 136.417ZM304.099 84.4465C298.009 75.4741 288.593 68.2896 277.556 64.1904C271.222 61.8573 264.549 60.6036 258.024 60.4836C253.798 60.4073 249.625 60.8107 245.632 61.6829C235.463 63.8306 226.301 69.4016 219.798 77.371C213.612 84.7409 210.032 94.1712 209.958 103.264C209.862 111.277 212.15 119.322 216.429 125.929C216.896 126.66 217.383 127.336 217.881 128.001C218.22 128.731 218.611 129.483 219.077 130.29C222.17 135.839 228.504 143.1 238.493 147.221C243.407 149.271 249.265 150.426 255.313 150.143C261.329 149.87 267.472 148.202 273.075 145.139C278.626 142.032 283.614 137.551 287.067 132.023C290.552 126.496 292.31 120.533 292.776 115.158C293.814 104.43 289.747 93.5607 282.64 87.0085C275.437 80.3146 267.186 78.8973 261.085 79.5188C254.857 80.1511 250.557 82.8548 248.248 84.9916C247.083 86.1364 246.309 87.0303 245.865 87.739C245.42 88.4149 245.187 88.7747 245.187 88.7747C245.187 88.7747 245.61 88.7638 246.394 88.7311C247.146 88.6766 248.29 88.742 249.593 88.851C252.262 89.1781 255.821 90.2356 259.052 92.4923C262.293 94.6509 265.195 98.0742 266.265 101.356C267.451 104.659 267.801 108.551 267.419 112.759C267.027 117.011 265.947 121.841 261.202 126.692C256.51 131.424 249.053 134.705 241.416 134.433C233.737 134.324 226.534 131.064 222.086 127.586C221.439 127.096 220.846 126.616 220.306 126.125C219.84 125.526 219.395 124.883 218.961 124.196C215.01 118.101 212.892 110.688 212.987 103.285C213.051 94.9126 216.376 86.2127 222.107 79.377C228.102 72.0399 236.904 66.7088 246.288 64.7246C255.916 62.6096 266.678 63.449 276.571 67.123C287.014 71.0042 295.933 77.7853 301.663 86.2454C307.256 94.3675 309.925 105.379 309.194 117.251C308.59 127.379 306.006 137.758 301.515 148.093C293.984 165.417 281.019 180.843 265.915 190.415C252.093 199.311 238.514 202.789 229.542 204.141C225.835 204.708 222.181 205.046 218.686 205.133C216.472 205.188 215.158 205.177 214.894 205.166C214.841 205.166 214.83 205.166 214.83 205.166C213.993 205.155 213.315 205.831 213.305 206.692C213.284 207.553 213.94 208.251 214.777 208.284C214.777 208.295 216.175 208.317 218.781 208.251C222.414 208.153 226.185 207.815 230.019 207.226C239.266 205.82 253.279 202.222 267.546 193.054C283.138 183.165 296.526 167.248 304.301 149.347C308.929 138.663 311.598 127.935 312.234 117.425C312.944 104.855 310.073 93.1464 304.099 84.4465ZM184.622 171.903C185.776 174.934 187.789 177.485 189.96 180.091C191.687 182.042 193.731 184.201 196.114 186.142C196.093 187.831 196.898 189.467 198.444 190.241C200.722 191.473 203.55 190.568 204.747 188.224C205.943 185.891 205.16 183.056 202.999 181.89C201.05 180.919 198.677 181.356 197.237 183.067C195.33 181.421 193.646 179.644 192.227 178.03C190.257 175.665 188.424 173.332 187.429 170.737C186.295 167.935 185.882 165.406 186.136 163.302C186.295 164.01 186.475 164.763 186.708 165.558C187.873 170.105 190.786 174.313 194.801 177.365C194.917 178.303 195.404 179.186 196.231 179.731C197.745 180.745 199.715 180.222 200.658 178.586C201.58 176.951 201.166 174.858 199.726 173.909C198.529 173.114 196.983 173.332 195.902 174.346C192.799 171.773 190.543 168.393 189.611 164.741C189.388 163.967 189.219 163.247 189.07 162.571L190.49 163.76C193.784 166.332 196.951 168.382 199.493 170.028C200.806 170.879 201.982 171.631 202.978 172.34C203.92 173.005 204.778 173.506 205.499 173.899C204.895 176.221 205.774 178.652 207.85 179.753C210.36 181.105 213.474 179.949 214.83 177.18C216.175 174.422 215.36 171.151 213.029 169.897C211.112 168.873 208.676 169.483 207.034 171.217C206.367 170.857 205.573 170.388 204.704 169.778C203.677 169.058 202.448 168.262 201.113 167.379C198.497 165.7 195.521 163.77 192.364 161.307L189.748 159.126C192.778 158.908 195.796 159.791 198.73 160.652L200.086 161.045C202.384 161.83 204.27 162.767 205.456 163.378C205.329 164.544 205.753 165.689 206.664 166.3C207.988 167.248 209.905 166.518 210.816 164.861C211.716 163.214 211.303 161.307 210.053 160.413C209.132 159.802 207.924 159.944 206.96 160.685C205.689 159.987 203.56 158.952 200.955 158.058L199.556 157.654C198.042 157.207 196.464 156.749 194.811 156.433C195.987 156.346 197.269 156.368 198.624 156.51C201.632 156.749 204.376 157.251 206.791 158.014C208.793 158.614 210.795 159.497 212.924 160.423C213.22 160.543 213.527 160.674 213.824 160.805C213.231 162.495 213.75 164.283 215.158 165.035C216.747 165.885 218.813 165.035 219.766 163.116C220.719 161.219 220.274 159.017 218.749 158.21C217.891 157.752 216.853 157.84 215.921 158.341C215.317 158.09 214.692 157.818 214.11 157.556C211.885 156.597 209.809 155.67 207.659 155.038C205.054 154.209 202.088 153.664 198.9 153.424C198.074 153.326 197.29 153.272 196.517 153.261C195.436 153.239 194.409 153.304 193.424 153.446C196.156 151.898 199.239 150.786 202.522 150.219C206.102 149.641 209.142 149.5 211.589 149.848C214.142 150.121 216.525 150.96 219.173 151.996C218.94 153.915 219.671 155.725 221.206 156.531C223.399 157.709 226.248 156.401 227.593 153.599C228.939 150.797 228.377 147.646 226.344 146.567C224.426 145.553 221.789 146.687 220.232 149.063C217.404 147.962 214.83 147.036 211.938 146.741C211.081 146.621 210.17 146.556 209.185 146.534C207.087 146.501 204.725 146.698 202.024 147.145C195.531 148.268 189.769 151.277 185.575 155.648L184.643 154.885C183.012 153.293 181.391 151.527 179.718 149.728C178.796 148.736 177.853 147.723 176.9 146.72C176.106 145.88 175.439 144.888 174.718 143.83C174.295 143.231 173.892 142.609 173.5 142.097C173.087 141.476 172.653 140.865 172.208 140.255C171.435 139.208 170.704 138.194 170.153 137.191C169.655 136.101 169.094 135.022 168.543 133.942C167.177 131.26 165.863 128.742 165.185 125.907C164.995 125.133 164.741 124.392 164.465 123.64C164.042 122.397 163.639 121.23 163.533 119.944L162.612 113.893L162.569 111.887C162.506 108.388 162.432 105.095 163.078 101.792C163.342 98.8919 164.116 96.1009 164.878 93.419C165.111 92.5686 165.366 91.7074 165.514 91.0532C165.853 90.2029 166.181 89.3525 166.509 88.513C167.442 86.071 168.331 83.7924 169.507 81.721C172.293 75.9756 175.587 71.6801 177.578 69.0854C178.245 68.126 178.913 67.4174 179.463 66.8287C179.781 66.5016 180.046 66.1964 180.237 65.9892L181.232 64.8663C181.794 64.234 181.773 63.2528 181.148 62.675C180.862 62.4133 180.501 62.2607 180.152 62.2607C179.728 62.2498 179.326 62.4133 179.019 62.7622L177.981 63.9396C177.779 64.1686 177.557 64.4193 177.292 64.7028C176.667 65.3896 175.915 66.1964 175.184 67.2321C173.14 69.8922 169.74 74.3403 166.87 80.271C165.63 82.4405 164.688 84.839 163.713 87.3901C163.385 88.2078 163.078 89.0472 162.675 90.072C162.453 90.8897 162.23 91.7183 161.976 92.5577C161.171 95.3923 160.345 98.3031 160.08 101.356C159.402 104.823 159.476 108.453 159.551 111.953L159.593 114.166L160.536 120.304C160.663 121.884 161.139 123.302 161.627 124.675C161.849 125.351 162.093 126.016 162.262 126.681C163.025 129.854 164.465 132.667 165.874 135.392C166.404 136.45 166.944 137.485 167.473 138.608C168.151 139.884 168.977 141.018 169.772 142.119C170.185 142.697 170.609 143.264 171.043 143.918C171.445 144.474 171.858 145.051 172.229 145.607C172.992 146.72 173.754 147.842 174.718 148.889C175.672 149.892 176.604 150.906 177.525 151.887C179.241 153.73 180.883 155.518 182.662 157.218L183.584 157.992C179.76 163.138 178.372 169.418 179.633 176.242C180.205 179.764 181.561 183.122 183.912 186.796C185.045 188.562 186.338 190.263 187.757 191.843C187.704 191.909 187.662 191.952 187.619 192.029C186.009 194.634 186.994 198.276 189.801 200.107C192.619 201.644 196.061 200.663 197.491 197.938C198.921 195.223 197.904 191.843 195.245 190.404C193.625 189.358 191.708 189.238 190.108 189.914C188.753 188.398 187.503 186.785 186.422 185.106C184.325 181.824 183.107 178.837 182.599 175.73C181.942 172.165 182.122 168.775 183.065 165.678C183.224 167.586 183.721 169.69 184.622 171.903ZM226.894 158.723C225.581 158.014 223.844 158.81 223.007 160.489C222.181 162.179 222.605 164.141 223.982 164.882C225.348 165.613 227.085 164.828 227.858 163.116C228.631 161.405 228.208 159.442 226.894 158.723ZM212.701 184.081C211.165 183.253 209.259 183.95 208.39 185.629C207.543 187.297 208.136 189.347 209.725 190.208C211.324 191.058 213.252 190.361 214.036 188.66C214.83 186.937 214.237 184.888 212.701 184.081ZM205.668 192.77C203.677 191.702 201.198 192.508 200.118 194.558C199.037 196.608 199.842 199.17 201.929 200.293C204.005 201.405 206.484 200.598 207.49 198.505C208.464 196.39 207.638 193.828 205.668 192.77ZM203.952 27.1667C203.92 27.1558 203.899 27.1231 203.878 27.1122C203.867 27.1667 203.867 27.2321 203.846 27.2758C203.592 27.5483 203.454 27.7009 203.454 27.7009C203.454 27.7009 203.571 27.7882 203.73 27.9299C202.48 35.8121 204.598 44.2068 209.714 51.424C213.178 56.319 219.438 62.446 225.083 65.8584C228.218 49.8323 221.196 41.1651 211.981 33.4791C217.743 36.6952 225.92 40.0531 235.093 40.0422C252.686 40.0203 267.165 27.6355 267.165 27.6355C267.165 27.6355 252.887 11.653 235.294 11.6748C219.618 11.7075 206.6 24.4085 203.952 27.1667ZM157.252 187.875C146.014 184.659 134.14 192.247 134.14 192.247C134.14 192.247 140.496 205.079 151.723 208.295C162.961 211.522 174.824 203.934 174.824 203.934C174.824 203.934 168.49 191.102 157.252 187.875ZM100.437 359.529C95.289 359.049 90.4803 360.543 86.879 362.276C83.2883 363.999 81.0428 365.972 81.0428 365.972C81.0428 365.972 81.6042 366.735 82.6316 367.913C83.6378 369.134 85.1525 370.66 87.0061 372.197C90.7027 375.348 95.861 378.226 101.168 378.455C106.495 378.597 110.933 376.242 114.1 373.822C117.246 371.402 119.11 369.025 119.11 369.025C119.11 369.025 116.897 366.877 113.497 364.653C110.118 362.385 105.542 360.042 100.437 359.529ZM67.4957 314.231C64.9536 314.296 63.1318 314.863 63.1318 314.863C63.1318 314.863 63.7567 317.327 65.2078 320.292C66.7436 323.203 69.201 326.528 72.4739 328C75.6727 329.559 78.988 329.036 81.3817 328.284C83.7861 327.51 85.3961 326.452 85.3961 326.452C85.3961 326.452 85.1737 326.005 84.7394 325.296C84.2839 324.599 83.659 323.618 82.9282 322.527C81.3076 320.401 79.2104 317.828 76.234 316.204C73.3742 314.536 70.0589 314.154 67.4957 314.231ZM93.4248 352.53C96.1681 350.677 97.7993 348.758 97.7993 348.758C97.7993 348.758 97.365 348.278 96.5706 347.559C95.7657 346.85 94.6535 345.869 93.3507 344.779C90.5968 342.729 87.0696 340.298 82.7905 339.382C78.6172 338.368 74.3699 339.109 71.1923 340.156C68.0359 341.17 65.9598 342.555 65.9598 342.555C65.9598 342.555 67.6122 345.411 70.4614 348.572C73.3848 351.636 77.6004 354.863 82.2185 355.484C86.7307 356.226 90.6815 354.351 93.4248 352.53ZM84.6758 293.092C83.4154 290.617 82.1973 288.862 82.1973 288.862C82.1973 288.862 80.4391 290.039 78.6278 292.383C76.8378 294.694 75.0477 298.281 75.1537 302.337C75.2384 306.381 77.1979 309.837 79.0833 312.05C80.9792 314.274 82.8117 315.354 82.8117 315.354C82.8117 315.354 83.9556 313.533 85.0783 311.026C86.2117 308.485 87.3768 305.346 87.3133 302.02C87.2285 298.684 85.9257 295.577 84.6758 293.092ZM76.9437 108.289C81.2017 106.36 86.2541 104.964 92.1856 104.615C93.0117 104.561 93.6578 103.82 93.5943 102.969C93.5519 102.152 92.8952 101.508 92.122 101.497C92.0902 101.497 92.0373 101.497 91.9949 101.497C85.216 101.89 79.507 103.612 74.7406 105.967C67.0296 106.185 59.4458 110.034 54.7006 116.313C50.4532 121.928 48.6313 129.32 49.4681 136.352C54.6264 134.869 59.4987 132.329 63.6825 128.862C70.0166 123.64 74.677 116.335 76.9437 108.289ZM206.155 77.2729C206.632 75.2015 206.897 73.5008 206.96 70.9388C206.981 69.7068 206.78 66.8614 206.356 65.0734C205.922 63.1002 205.297 61.225 204.461 59.5025C202.84 56.0683 200.531 53.3209 198.169 51.4676C196.993 50.5191 195.754 49.8432 194.652 49.2872C193.572 48.7093 192.492 48.3932 191.623 48.1533C190.786 47.8699 189.96 47.8481 189.473 47.7827C188.964 47.7282 188.7 47.7063 188.7 47.7063C188.7 47.7063 188.678 47.9789 188.626 48.5022C188.604 49.0037 188.456 49.7996 188.424 50.6499C188.287 52.3943 188.107 54.6728 187.842 57.0277C187.651 59.11 187.439 61.5303 187.196 64.1141C187.09 65.2806 186.994 66.4253 186.963 67.5482C186.899 68.8674 186.857 69.1835 186.857 71.1241C186.835 71.7346 186.846 73.1846 186.878 74.1985C186.888 75.3214 186.931 76.4771 187.016 77.6436C187.121 79.9767 187.291 82.386 187.439 84.7518C187.609 87.3901 187.736 89.5814 187.842 91.1186C187.948 93.0047 188.001 94.084 188.001 94.084C188.001 94.084 188.265 94.0513 188.774 94.0186C189.261 93.9532 190.055 94.0077 190.903 93.7351C191.803 93.5062 192.905 93.2009 193.974 92.6667C195.087 92.1543 196.347 91.5002 197.555 90.6062C199.959 88.8183 202.342 86.1473 204.079 82.7567C204.969 81.0887 205.647 79.2353 206.155 77.2729ZM168.13 175.087C169.443 169.658 169.443 163.792 167.357 158.548C165.175 153.032 160.991 148.671 157.591 143.863C154.191 139.044 151.469 133.059 152.846 127.292C146.734 131.369 142.55 138.347 141.745 145.804C140.951 153.25 143.557 161.012 148.651 166.365C151.522 169.374 164.232 178.51 163.247 184.986C165.524 182.13 167.272 178.674 168.13 175.087ZM41.4182 280.194C37.7852 286.267 36.7048 293.898 38.5054 300.788C44.4263 298.27 49.2139 293.048 51.3323 286.812C53.0694 281.699 52.9635 275.953 51.1416 270.862C47.1908 273.053 43.7696 276.27 41.4182 280.194ZM141.184 173.757C141.258 168.949 137.551 164.981 132.88 164.904C128.209 164.817 124.364 168.644 124.279 173.452C124.205 178.27 127.912 182.228 132.583 182.315C137.254 182.402 141.099 178.576 141.184 173.757ZM116.24 187.265C116.208 189.183 117.68 190.753 119.545 190.786C121.398 190.83 122.923 189.303 122.966 187.384C122.998 185.466 121.515 183.896 119.661 183.863C117.797 183.83 116.272 185.346 116.24 187.265ZM30.5614 256.231C27.1084 256.177 24.2592 259.001 24.2062 262.566C24.1427 266.12 26.886 269.052 30.339 269.107C33.792 269.172 36.6412 266.338 36.6942 262.784C36.7577 259.23 34.0144 256.297 30.5614 256.231ZM16.8448 242.833C14.8429 242.8 13.1906 244.435 13.1482 246.507C13.1164 248.578 14.7158 250.279 16.7177 250.312C18.7302 250.344 20.3719 248.709 20.4143 246.638C20.4461 244.566 18.8573 242.865 16.8448 242.833ZM15.7538 173.223C15.6797 177.082 18.6666 180.265 22.4162 180.331C26.1658 180.407 29.248 177.333 29.3116 173.462C29.3857 169.603 26.3988 166.42 22.6492 166.354C18.8997 166.3 15.8174 169.374 15.7538 173.223ZM222.054 193.893C221.99 197.872 225.073 201.165 228.939 201.241C232.805 201.306 236.003 198.123 236.067 194.144C236.141 190.154 233.059 186.861 229.182 186.796C225.316 186.73 222.128 189.892 222.054 193.893ZM189.494 117.589C184.272 117.491 179.961 121.786 179.866 127.161C179.771 132.547 183.944 136.995 189.155 137.082C194.377 137.18 198.698 132.885 198.783 127.499C198.879 122.124 194.716 117.676 189.494 117.589ZM191.21 42.3643C193.35 42.4079 195.129 40.6418 195.161 38.4395C195.203 36.2264 193.487 34.4058 191.348 34.3621C189.208 34.3294 187.439 36.0956 187.397 38.2978C187.365 40.5109 189.07 42.3316 191.21 42.3643ZM146.152 98.2704C148.779 98.314 150.96 96.1445 151.003 93.4299C151.056 90.7153 148.948 88.4694 146.321 88.4258C143.684 88.3822 141.502 90.5408 141.459 93.2555C141.417 95.9701 143.514 98.2159 146.152 98.2704ZM111.993 144.332C112.046 141.454 109.811 139.066 107.014 139.012C104.218 138.957 101.898 141.268 101.856 144.147C101.803 147.025 104.038 149.412 106.834 149.467C109.631 149.532 111.95 147.232 111.993 144.332ZM92.2173 152.41C93.5837 152.432 94.7276 151.309 94.7488 149.892C94.77 148.486 93.679 147.308 92.3021 147.286C90.9357 147.265 89.8024 148.398 89.7812 149.805C89.7388 151.211 90.8404 152.389 92.2173 152.41ZM36.6836 124.054C36.6624 125.373 37.6898 126.463 38.9609 126.485C40.2425 126.507 41.3017 125.46 41.3229 124.141C41.3441 122.822 40.3272 121.732 39.0456 121.71C37.764 121.677 36.7048 122.735 36.6836 124.054ZM81.8266 121.328C81.7948 123.291 83.3095 124.893 85.2054 124.926C87.0908 124.959 88.669 123.389 88.7008 121.448C88.7326 119.497 87.2073 117.883 85.322 117.84C83.4366 117.807 81.8584 119.366 81.8266 121.328ZM45.189 101.835C43.9391 101.814 42.9011 102.838 42.8799 104.125C42.8587 105.411 43.8544 106.469 45.1042 106.491C46.3541 106.512 47.3815 105.488 47.4027 104.201C47.4239 102.915 46.4388 101.857 45.189 101.835ZM83.7861 90.966C83.7967 90.2574 83.2565 89.6796 82.568 89.6687C81.8902 89.6578 81.3288 90.2138 81.3182 90.9224C81.3076 91.631 81.8478 92.2088 82.5257 92.2198C83.2142 92.2307 83.7755 91.6746 83.7861 90.966ZM112.268 70.3174C112.31 68.1697 110.637 66.3926 108.561 66.3599C106.474 66.3163 104.748 68.0388 104.716 70.1756C104.674 72.3234 106.347 74.1004 108.423 74.144C110.51 74.1767 112.236 72.4651 112.268 70.3174ZM130.243 68.4313C130.221 69.6414 131.164 70.6553 132.35 70.6771C133.526 70.6989 134.511 69.7396 134.532 68.5076C134.553 67.2975 133.611 66.2836 132.424 66.2618C131.238 66.2509 130.264 67.2212 130.243 68.4313ZM61.2676 332.841C58.6196 332.797 56.427 334.978 56.3741 337.714C56.3317 340.439 58.4501 342.696 61.0981 342.751C63.7461 342.794 65.9386 340.614 65.981 337.877C66.034 335.152 63.9156 332.895 61.2676 332.841ZM69.6776 298.052C71.224 292.001 70.6627 285.416 68.1418 279.726C65.6209 274.035 61.1511 269.314 55.6962 266.567C55.7598 279.289 60.5261 291.892 68.7031 301.41C69.0421 300.287 69.3916 299.175 69.6776 298.052ZM76.9755 207.957C79.6447 208 81.8372 205.82 81.8796 203.073C81.9325 200.325 79.8141 198.069 77.145 198.014C74.4864 197.97 72.2938 200.151 72.2409 202.898C72.1985 205.646 74.3169 207.902 76.9755 207.957ZM48.0064 168.764C47.9852 169.832 48.822 170.726 49.86 170.737C50.9086 170.759 51.7666 169.897 51.7878 168.829C51.8089 167.75 50.9722 166.867 49.9342 166.845C48.8856 166.845 48.0276 167.684 48.0064 168.764ZM123.856 197.523C122.161 197.491 120.773 198.875 120.742 200.631C120.71 202.375 122.055 203.814 123.75 203.836C125.444 203.868 126.843 202.484 126.874 200.74C126.895 198.984 125.54 197.556 123.856 197.523ZM98.6255 189.51C98.5831 192.345 100.776 194.689 103.519 194.732C106.273 194.787 108.55 192.53 108.593 189.685C108.645 186.85 106.453 184.517 103.699 184.463C100.945 184.419 98.6784 186.676 98.6255 189.51Z" fill="#70B445"/>
</g>
</g>
</g>
</g>
<path d="M51.144 478.972C50.088 478.972 48.968 478.844 47.784 478.588C46.632 478.3 45.512 477.708 44.424 476.812C43.368 475.916 42.456 474.556 41.688 472.732L40.584 470.044H27.816L23.88 478.78H21.384L35.544 447.1H37.704L48.456 472.732C49.032 474.14 49.736 475.26 50.568 476.092C51.4 476.924 52.36 477.404 53.448 477.532V478.732C53.192 478.796 52.824 478.844 52.344 478.876C51.896 478.94 51.496 478.972 51.144 478.972ZM28.824 467.884H39.672L34.392 455.356L28.824 467.884ZM62.1889 478.78V466.108L53.6929 453.34C53.1489 452.508 52.5089 451.708 51.7729 450.94C51.0689 450.172 50.3329 449.516 49.5649 448.972C48.7969 448.428 48.0449 448.124 47.3089 448.06V447.1H52.5409C53.7569 447.1 54.8449 447.372 55.8049 447.916C56.7969 448.46 57.6769 449.132 58.4449 449.932C59.2129 450.732 59.8529 451.548 60.3649 452.38L66.8929 462.22L76.2049 447.1H79.3249L68.4289 464.812V478.78H62.1889ZM96.7823 479.26C93.9023 479.26 91.5023 478.732 89.5823 477.676C87.6623 476.62 86.2223 475.036 85.2623 472.924C84.3023 470.78 83.8223 468.124 83.8223 464.956V453.34C83.8223 451.964 83.6463 450.844 83.2943 449.98C82.9423 449.116 82.1423 448.636 80.8943 448.54H80.4623V447.1H85.7422C86.8623 447.1 87.7263 447.292 88.3343 447.676C88.9743 448.06 89.4223 448.7 89.6783 449.596C89.9343 450.492 90.0623 451.74 90.0623 453.34L90.1103 466.396C90.1423 469.724 90.7823 472.348 92.0303 474.268C93.3103 476.156 95.2143 477.1 97.7423 477.1C99.9183 477.1 101.694 476.668 103.07 475.804C104.446 474.94 105.454 473.612 106.094 471.82C106.766 470.028 107.102 467.74 107.102 464.956V447.1H109.502V464.956C109.502 467.964 109.086 470.54 108.254 472.684C107.454 474.796 106.126 476.428 104.27 477.58C102.414 478.7 99.9183 479.26 96.7823 479.26ZM139.566 479.26C138.446 479.26 137.374 479.036 136.35 478.588C135.326 478.14 134.318 477.42 133.326 476.428C132.366 475.404 131.358 474.028 130.302 472.3L125.502 464.284H123.582V478.78H117.294V453.34C117.294 451.9 117.086 450.748 116.67 449.884C116.286 448.988 115.374 448.54 113.934 448.54H113.454V447.1H126.702C127.566 447.1 128.558 447.164 129.678 447.292C130.83 447.388 131.982 447.612 133.134 447.964C134.286 448.284 135.358 448.764 136.35 449.404C137.342 450.044 138.142 450.892 138.75 451.948C139.358 452.972 139.662 454.252 139.662 455.788C139.662 457.484 139.278 458.876 138.51 459.964C137.774 461.02 136.814 461.852 135.63 462.46C134.446 463.068 133.198 463.548 131.886 463.9L136.926 472.3C138.142 474.348 139.262 475.708 140.286 476.38C141.31 477.052 142.174 477.452 142.878 477.58V478.78C142.622 478.908 142.158 479.02 141.486 479.116C140.846 479.212 140.206 479.26 139.566 479.26ZM123.582 462.364H126.462C127.23 462.364 127.998 462.252 128.766 462.028C129.534 461.804 130.222 461.436 130.83 460.924C131.47 460.412 131.982 459.724 132.366 458.86C132.75 457.996 132.942 456.94 132.942 455.692C132.942 454.444 132.75 453.404 132.366 452.572C132.014 451.708 131.518 451.02 130.878 450.508C130.27 449.964 129.582 449.58 128.814 449.356C128.078 449.132 127.326 449.02 126.558 449.02C126.302 449.02 125.918 449.036 125.406 449.068C124.926 449.1 124.318 449.196 123.582 449.356V462.364ZM156.149 479.26L144.965 452.716C144.197 450.924 143.445 449.676 142.709 448.972C142.005 448.236 141.173 447.804 140.213 447.676V446.716C140.341 446.716 140.661 446.7 141.173 446.668C141.653 446.636 142.005 446.62 142.229 446.62C143.349 446.62 144.485 446.748 145.637 447.004C146.821 447.26 147.941 447.82 148.997 448.684C150.053 449.548 150.965 450.892 151.733 452.716L159.317 470.668L169.445 447.1H171.893L158.069 479.26H156.149ZM176.826 478.78V453.34C176.826 451.9 176.618 450.748 176.202 449.884C175.818 448.988 174.906 448.54 173.466 448.54H172.986V447.1H194.154C195.274 447.1 196.122 447.292 196.698 447.676C197.274 448.028 197.674 448.508 197.898 449.116C198.122 449.692 198.234 450.3 198.234 450.94V455.02H196.794C196.794 452.972 196.266 451.5 195.21 450.604C194.186 449.708 192.714 449.26 190.794 449.26H183.066V461.26H195.546V463.42H183.066V476.62H191.274C193.034 476.62 194.522 476.236 195.738 475.468C196.986 474.668 198.026 473.228 198.858 471.148L200.154 471.628L198.762 475.42C198.41 476.444 197.946 477.26 197.37 477.868C196.826 478.476 195.898 478.78 194.586 478.78H176.826ZM205.607 478.78V453.34C205.607 451.9 205.399 450.748 204.983 449.884C204.599 448.988 203.687 448.54 202.247 448.54H201.767V447.1H214.823C221.415 447.1 226.359 448.492 229.655 451.276C232.983 454.06 234.647 457.884 234.647 462.748C234.647 465.916 233.927 468.7 232.487 471.1C231.079 473.5 228.999 475.388 226.247 476.764C223.495 478.108 220.103 478.78 216.071 478.78H205.607ZM215.927 476.86C218.167 476.86 220.151 476.3 221.879 475.18C223.607 474.06 224.967 472.46 225.959 470.38C226.951 468.3 227.447 465.82 227.447 462.94C227.447 460.124 226.951 457.676 225.959 455.596C224.999 453.516 223.639 451.9 221.879 450.748C220.151 449.596 218.135 449.02 215.831 449.02C215.127 449.02 214.519 449.036 214.007 449.068C213.495 449.1 212.775 449.196 211.847 449.356V476.524C212.551 476.652 213.095 476.748 213.479 476.812C213.895 476.844 214.279 476.86 214.631 476.86C214.983 476.86 215.415 476.86 215.927 476.86ZM249.495 479.596C248.183 479.596 246.887 479.468 245.607 479.212C244.327 478.956 243.159 478.588 242.103 478.108C241.047 477.596 240.199 476.988 239.559 476.284C238.951 475.548 238.647 474.732 238.647 473.836V468.22H239.991C240.503 471.548 241.527 473.916 243.063 475.324C244.631 476.732 246.759 477.436 249.447 477.436C250.663 477.436 251.719 477.26 252.615 476.908C253.543 476.556 254.247 476.044 254.727 475.372C255.239 474.668 255.495 473.804 255.495 472.78C255.495 471.404 255.047 470.268 254.151 469.372C253.287 468.444 252.087 467.516 250.551 466.588L244.647 463.036C242.471 461.756 240.935 460.444 240.039 459.1C239.143 457.756 238.695 456.204 238.695 454.444C238.695 451.916 239.655 449.916 241.575 448.444C243.527 446.972 246.151 446.236 249.447 446.236C250.759 446.236 252.055 446.364 253.335 446.62C254.615 446.876 255.783 447.26 256.839 447.772C257.895 448.252 258.727 448.844 259.335 449.548C259.975 450.252 260.295 451.068 260.295 451.996V457.612H258.951C258.407 454.284 257.383 451.916 255.879 450.508C254.375 449.1 252.407 448.396 249.975 448.396C248.823 448.396 247.815 448.588 246.951 448.972C246.119 449.356 245.479 449.9 245.031 450.604C244.583 451.276 244.359 452.092 244.359 453.052C244.359 454.396 244.807 455.484 245.703 456.316C246.631 457.148 247.847 458.012 249.351 458.908L255.255 462.412C257.431 463.692 259.015 464.956 260.007 466.204C261.031 467.42 261.543 468.908 261.543 470.668C261.543 473.42 260.503 475.596 258.423 477.196C256.343 478.796 253.367 479.596 249.495 479.596ZM267.857 478.78V453.34C267.857 451.9 267.649 450.748 267.233 449.884C266.849 448.988 265.937 448.54 264.497 448.54H264.017V447.1H269.777C270.897 447.1 271.761 447.292 272.369 447.676C273.009 448.06 273.457 448.7 273.713 449.596C273.969 450.492 274.097 451.74 274.097 453.34V461.26H287.057V447.1H293.297V472.54C293.297 473.98 293.489 475.148 293.873 476.044C294.289 476.908 295.217 477.34 296.657 477.34H297.137V478.78H291.377C290.257 478.78 289.377 478.604 288.737 478.252C288.129 477.868 287.697 477.228 287.441 476.332C287.185 475.404 287.057 474.14 287.057 472.54V463.42H274.097V478.78H267.857ZM327.988 478.972C326.932 478.972 325.812 478.844 324.628 478.588C323.476 478.3 322.356 477.708 321.268 476.812C320.212 475.916 319.3 474.556 318.532 472.732L317.428 470.044H304.66L300.724 478.78H298.228L312.388 447.1H314.548L325.3 472.732C325.876 474.14 326.58 475.26 327.412 476.092C328.244 476.924 329.204 477.404 330.292 477.532V478.732C330.036 478.796 329.668 478.844 329.188 478.876C328.74 478.94 328.34 478.972 327.988 478.972ZM305.668 467.884H316.516L311.236 455.356L305.668 467.884ZM333.482 478.78V453.34C333.482 451.9 333.274 450.748 332.858 449.884C332.474 448.988 331.562 448.54 330.122 448.54H329.642V447.1H335.402C336.522 447.1 337.386 447.292 337.994 447.676C338.634 448.06 339.082 448.7 339.338 449.596C339.594 450.492 339.722 451.74 339.722 453.34V476.62H356.282V478.78H333.482ZM386.441 478.972C385.385 478.972 384.265 478.844 383.081 478.588C381.929 478.3 380.809 477.708 379.721 476.812C378.665 475.916 377.753 474.556 376.985 472.732L375.881 470.044H363.113L359.177 478.78H356.681L370.841 447.1H373.001L383.753 472.732C384.329 474.14 385.033 475.26 385.865 476.092C386.697 476.924 387.657 477.404 388.745 477.532V478.732C388.489 478.796 388.121 478.844 387.641 478.876C387.193 478.94 386.793 478.972 386.441 478.972ZM364.121 467.884H374.969L369.689 455.356L364.121 467.884Z" fill="black"/>
</svg>
