<svg width="292.25" height="196" viewBox="0 0 223 196" fill="none" xmlns="http://www.w3.org/2000/svg">
<path d="M6.14391 162.017V180.955H4.43558V160.788C4.43558 159.679 4.17516 158.819 3.66474 158.205C3.14912 157.595 2.27933 157.288 1.06058 157.288H0.810577V156.309H3.35224C4.64391 156.309 5.71162 156.496 6.56058 156.871C7.40433 157.246 8.12829 157.809 8.72724 158.559L21.6647 174.017V156.309H23.3939V181.184H22.0397L6.14391 162.017Z" fill="#70B445"/>
<path d="M41.9162 181.33C40.1923 181.33 38.7079 180.934 37.4579 180.142C36.2183 179.34 35.2704 178.246 34.6037 176.871C33.9475 175.486 33.6246 173.924 33.6246 172.184C33.6246 170.34 33.9579 168.726 34.6246 167.351C35.2912 165.965 36.2183 164.903 37.4162 164.163C38.6089 163.413 39.9839 163.038 41.5412 163.038C43.9423 163.038 45.8589 163.741 47.2912 165.142C48.7183 166.533 49.4371 168.424 49.4371 170.809L49.3329 172.809H38.0621C38.0621 175.059 38.4579 176.778 39.2496 177.955C40.0517 179.137 41.1506 179.726 42.5412 179.726C43.7079 179.726 44.6975 179.47 45.5204 178.955C46.3381 178.429 47.1089 177.663 47.8329 176.663L48.8121 177.413C48.0881 178.637 47.1714 179.595 46.0621 180.288C44.9631 180.981 43.5829 181.33 41.9162 181.33ZM44.9996 171.205C44.9996 168.913 44.7079 167.246 44.1246 166.205C43.5412 165.163 42.6767 164.642 41.5412 164.642C40.51 164.642 39.6714 165.2 39.0204 166.309C38.3798 167.408 38.0621 169.038 38.0621 171.205H44.9996Z" fill="#70B445"/>
<path d="M65.9461 181.33C63.8055 181.33 62.1544 180.804 60.9878 179.746C59.8315 178.694 59.2586 176.955 59.2586 174.538V168.121C59.2586 166.845 59.0815 165.903 58.7378 165.288C58.3888 164.679 57.6961 164.371 56.6544 164.371H56.2794V163.413H60.1544C61.0555 163.413 61.743 163.554 62.2169 163.83C62.6857 164.095 63.019 164.559 63.2169 165.226C63.4253 165.882 63.5294 166.845 63.5294 168.121V174.538C63.5294 177.944 64.7065 179.642 67.0711 179.642C68.3628 179.642 69.5294 178.903 70.5711 177.413V163.413H74.8211V180.955H72.1753L70.8836 179.351H70.6961C70.1648 179.924 69.493 180.392 68.6753 180.767C67.868 181.142 66.9565 181.33 65.9461 181.33Z" fill="#70B445"/>
<path d="M86.0584 168.121C86.0584 166.845 85.8917 165.903 85.5584 165.288C85.2251 164.679 84.5376 164.371 83.4959 164.371H83.1209V163.413H86.5167C87.3917 163.413 88.0636 163.533 88.5376 163.767C89.022 164.007 89.3917 164.382 89.6417 164.892C90.1938 164.382 90.8709 163.944 91.6626 163.58C92.4647 163.22 93.3605 163.038 94.3501 163.038C95.3917 163.038 96.2095 163.262 96.8084 163.705C97.2095 163.986 97.5167 164.325 97.7251 164.726C97.9438 165.116 98.0792 165.34 98.1209 165.392L96.3709 166.684C96.0897 166.325 95.7147 166.017 95.2459 165.767C94.772 165.517 94.2355 165.392 93.6417 165.392C92.8917 165.392 92.2147 165.528 91.6209 165.788C91.022 166.038 90.548 166.392 90.2042 166.851C90.2876 167.465 90.3292 167.955 90.3292 168.33V180.955H86.0584V168.121Z" fill="#70B445"/>
<path d="M114.296 181.33C112.514 181.33 110.983 180.929 109.691 180.121C108.4 179.304 107.405 178.205 106.712 176.83C106.014 175.455 105.671 173.908 105.671 172.184C105.671 170.465 106.014 168.913 106.712 167.538C107.405 166.153 108.4 165.054 109.691 164.246C110.983 163.444 112.514 163.038 114.296 163.038C116.056 163.038 117.592 163.444 118.9 164.246C120.202 165.054 121.202 166.153 121.9 167.538C122.592 168.913 122.941 170.465 122.941 172.184C122.941 173.908 122.592 175.455 121.9 176.83C121.202 178.205 120.202 179.304 118.9 180.121C117.592 180.929 116.056 181.33 114.296 181.33ZM114.296 179.726C115.613 179.726 116.65 179.028 117.4 177.621C118.16 176.205 118.546 174.392 118.546 172.184C118.546 169.965 118.16 168.153 117.4 166.746C116.65 165.345 115.613 164.642 114.296 164.642C112.973 164.642 111.941 165.345 111.191 166.746C110.441 168.153 110.066 169.965 110.066 172.184C110.066 174.392 110.441 176.205 111.191 177.621C111.941 179.028 112.973 179.726 114.296 179.726Z" fill="#70B445"/>
<path d="M133.472 167.705C132.831 166.304 132.264 165.325 131.764 164.767C131.264 164.215 130.649 163.908 129.93 163.851V163.101L131.264 163.038C132.79 163.038 134.102 163.371 135.201 164.038C136.311 164.694 137.274 165.913 138.097 167.705L141.389 175.205L146.535 163.413H148.472L140.68 181.33H139.555L133.472 167.705Z" fill="#70B445"/>
<path d="M164.506 181.33C162.782 181.33 161.298 180.934 160.048 180.142C158.808 179.34 157.86 178.246 157.194 176.871C156.537 175.486 156.215 173.924 156.215 172.184C156.215 170.34 156.548 168.726 157.215 167.351C157.881 165.965 158.808 164.903 160.006 164.163C161.199 163.413 162.574 163.038 164.131 163.038C166.532 163.038 168.449 163.741 169.881 165.142C171.308 166.533 172.027 168.424 172.027 170.809L171.923 172.809H160.652C160.652 175.059 161.048 176.778 161.84 177.955C162.642 179.137 163.741 179.726 165.131 179.726C166.298 179.726 167.287 179.47 168.11 178.955C168.928 178.429 169.699 177.663 170.423 176.663L171.402 177.413C170.678 178.637 169.761 179.595 168.652 180.288C167.553 180.981 166.173 181.33 164.506 181.33ZM167.59 171.205C167.59 168.913 167.298 167.246 166.715 166.205C166.131 165.163 165.267 164.642 164.131 164.642C163.1 164.642 162.261 165.2 161.61 166.309C160.97 167.408 160.652 169.038 160.652 171.205H167.59Z" fill="#70B445"/>
<path d="M188.119 181.33C185.755 181.33 183.932 180.476 182.64 178.767C181.359 177.048 180.724 174.851 180.724 172.184C180.724 169.491 181.375 167.298 182.682 165.601C184 163.892 185.901 163.038 188.39 163.038C189.859 163.038 191.265 163.413 192.599 164.163V161.017C192.599 159.757 192.421 158.819 192.078 158.205C191.729 157.595 191.036 157.288 189.994 157.288H189.474V156.309H193.494C194.395 156.309 195.083 156.449 195.557 156.726C196.026 157.007 196.359 157.476 196.557 158.142C196.765 158.798 196.869 159.757 196.869 161.017V180.955H194.203L192.911 179.267H192.724C192.291 179.851 191.703 180.345 190.953 180.746C190.213 181.132 189.27 181.33 188.119 181.33ZM189.015 179.726C189.89 179.726 190.588 179.512 191.119 179.08C191.661 178.637 192.151 178.069 192.599 177.371V165.767C191.333 165.017 190.229 164.642 189.286 164.642C187.838 164.642 186.791 165.324 186.14 166.684C185.5 168.033 185.182 169.866 185.182 172.184C185.182 174.476 185.484 176.309 186.099 177.684C186.724 179.048 187.692 179.726 189.015 179.726Z" fill="#70B445"/>
<path d="M212.318 181.33C210.568 181.33 209.13 180.892 208.005 180.017C206.891 179.132 206.338 177.861 206.338 176.205C206.338 174.319 207.13 172.944 208.713 172.08C210.297 171.205 212.786 170.767 216.193 170.767H216.984C216.984 168.507 216.672 166.924 216.047 166.017C215.422 165.101 214.495 164.642 213.276 164.642C212.26 164.642 211.427 164.882 210.776 165.351C210.135 165.825 209.677 166.684 209.401 167.934H207.505C207.505 167.09 207.557 166.387 207.672 165.83C207.781 165.262 208.031 164.767 208.422 164.351C208.849 163.892 209.568 163.559 210.568 163.351C211.578 163.142 212.734 163.038 214.026 163.038C216.318 163.038 218.088 163.653 219.338 164.871C220.599 166.08 221.234 168.08 221.234 170.871V180.955H218.588L217.276 179.267H217.088C216.698 179.851 216.088 180.345 215.255 180.746C214.432 181.132 213.453 181.33 212.318 181.33ZM213.651 179.538C214.427 179.538 215.088 179.309 215.63 178.851C216.182 178.392 216.635 177.84 216.984 177.184V172.371H216.193C212.578 172.371 210.776 173.653 210.776 176.205C210.776 177.278 211.036 178.101 211.568 178.684C212.109 179.257 212.802 179.538 213.651 179.538Z" fill="#70B445"/>
<path d="M155.583 40.6458C157.396 40.6458 158.865 39.177 158.865 37.3645C158.865 36.6353 158.625 35.9635 158.224 35.4166L163.292 28.927C165.156 30.1666 167.391 30.8958 169.797 30.8958C173.068 30.8958 176.026 29.552 178.151 27.3958L186.286 34.2916C185.484 35.4999 185.016 36.9426 185.016 38.5051C185.016 42.703 188.422 46.1145 192.63 46.1145C196.828 46.1145 200.24 42.703 200.24 38.5051C200.24 34.302 196.828 30.8958 192.63 30.8958C190.62 30.8958 188.797 31.6718 187.432 32.9426L179.297 26.0468C180.703 24.1093 181.536 21.7291 181.536 19.151C181.536 12.6718 176.281 7.41138 169.797 7.41138C163.313 7.41138 158.057 12.6718 158.057 19.151C158.057 22.5937 159.536 25.6874 161.896 27.8385L156.833 34.328C156.443 34.1666 156.026 34.078 155.583 34.078C153.771 34.078 152.297 35.552 152.297 37.3645C152.297 39.177 153.771 40.6458 155.583 40.6458Z" fill="url(#paint0_linear_449_2)"/>
<path d="M158.344 119.396L139.01 105.776C139.599 104.698 139.932 103.458 139.932 102.141C139.932 97.9374 136.526 94.5312 132.323 94.5312C128.12 94.5312 124.714 97.9374 124.714 102.141C124.714 106.344 128.12 109.75 132.323 109.75C134.573 109.75 136.599 108.776 137.99 107.219L157.323 120.849C157.203 121.187 157.13 121.557 157.13 121.943C157.13 123.755 158.604 125.229 160.417 125.229C162.229 125.229 163.703 123.755 163.703 121.943C163.703 120.542 162.823 119.349 161.589 118.88L161.87 115.885C161.937 115.885 162.005 115.891 162.068 115.891C168.552 115.891 173.807 110.63 173.807 104.151C173.807 97.6666 168.552 92.4114 162.068 92.4114C155.589 92.4114 150.333 97.6666 150.333 104.151C150.333 109.963 154.557 114.786 160.104 115.719L159.828 118.713C159.271 118.812 158.766 119.057 158.344 119.396Z" fill="url(#paint1_linear_449_2)"/>
<path d="M144.177 56.6093C144.177 56.9895 144.245 57.3541 144.365 57.6978L138 62.1614C136.693 60.6926 134.823 59.7395 132.734 59.6249L131.875 45.9895C135.432 45.3489 138.13 42.2447 138.13 38.5051C138.13 34.302 134.724 30.8958 130.521 30.8958C126.318 30.8958 122.911 34.302 122.911 38.5051C122.911 40.0208 123.354 41.4322 124.12 42.6197L116.531 48.8541C116 48.4791 115.349 48.2603 114.651 48.2603C112.839 48.2603 111.37 49.7291 111.37 51.5416C111.37 53.3541 112.839 54.828 114.651 54.828C116.464 54.828 117.938 53.3541 117.938 51.5416C117.938 51.0728 117.833 50.6249 117.656 50.2187L125.245 43.9843C126.521 45.2135 128.224 45.9999 130.109 46.1041L130.964 59.7395C127.411 60.3801 124.714 63.4843 124.714 67.2239C124.714 71.427 128.12 74.8333 132.323 74.8333C136.526 74.8333 139.932 71.427 139.932 67.2239C139.932 65.9166 139.604 64.6822 139.021 63.6093L145.38 59.1458C145.948 59.6145 146.672 59.8958 147.464 59.8958C149.276 59.8958 150.745 58.4218 150.745 56.6093C150.745 54.7916 149.276 53.3228 147.464 53.3228C145.651 53.3228 144.177 54.7916 144.177 56.6093Z" fill="#2093A3"/>
<mask id="mask0_449_2" style="mask-type:luminance" maskUnits="userSpaceOnUse" x="158" y="48" width="48" height="43">
<path d="M158 48.3333H205.547V90.9999H158V48.3333Z" fill="white"/>
</mask>
<g mask="url(#mask0_449_2)">
<path d="M199.115 54.2498C195.833 54.2498 193.12 56.6873 192.693 59.854H181.5C181.047 53.7811 175.984 48.9946 169.797 48.9946C163.312 48.9946 158.057 54.255 158.057 60.7394C158.057 67.2186 163.312 72.4738 169.797 72.4738C175.984 72.4738 181.047 67.6925 181.5 61.6196H192.693C192.948 63.505 194.01 65.13 195.521 66.1353L190.911 75.6665C190.13 75.3957 189.292 75.2446 188.417 75.2446C184.214 75.2446 180.807 78.6509 180.807 82.854C180.807 87.0571 184.214 90.4686 188.417 90.4686C192.62 90.4686 196.026 87.0571 196.026 82.854C196.026 80.1561 194.625 77.7863 192.505 76.4373L197.115 66.9061C197.745 67.1144 198.417 67.2238 199.115 67.2238C202.703 67.2238 205.604 64.3175 205.604 60.7394C205.604 57.1509 202.703 54.2498 199.115 54.2498Z" fill="#2093A3"/>
</g>
<path d="M70.0573 30.8958C71.0938 30.8958 72.099 30.7551 73.0573 30.5051L81.6927 55.4166C80.8386 56.0103 80.2813 56.9947 80.2813 58.1093C80.2813 59.927 81.75 61.3958 83.5625 61.3958C85.375 61.3958 86.849 59.927 86.849 58.1093C86.849 56.2968 85.375 54.828 83.5625 54.828C83.4948 54.828 83.4323 54.8333 83.3646 54.8385L74.7292 29.9218C76.1094 29.328 77.349 28.4687 78.3958 27.4166L88.974 36.4218C88.1667 37.6301 87.6927 39.0833 87.6927 40.6458C87.6927 44.8489 91.099 48.2603 95.3021 48.2603C99.5052 48.2603 102.911 44.8489 102.911 40.6458C102.911 36.4478 99.5052 33.0364 95.3021 33.0364C93.3021 33.0364 91.4792 33.8124 90.1198 35.078L79.5417 26.0676C80.9583 24.1301 81.7969 21.7395 81.7969 19.151C81.7969 12.6718 76.5365 7.41138 70.0573 7.41138C63.5729 7.41138 58.3177 12.6718 58.3177 19.151C58.3177 25.6353 63.5729 30.8958 70.0573 30.8958Z" fill="#2093A3"/>
<path d="M64.8854 80.0885C71.3698 80.0885 76.625 74.8333 76.625 68.349C76.625 61.8646 71.3698 56.6094 64.8854 56.6094C58.4011 56.6094 53.1459 61.8646 53.1459 68.349C53.1459 73.4479 56.4011 77.7865 60.9479 79.4063L58.2969 89.125C57.2917 89.1354 56.3906 89.5885 55.7917 90.3073L49.1198 87.3177C49.3438 86.599 49.4688 85.8333 49.4688 85.0365C49.4688 80.8333 46.0625 77.4271 41.8594 77.4271C37.6563 77.4271 34.2448 80.8333 34.2448 85.0365C34.2448 89.2396 37.6563 92.6458 41.8594 92.6458C44.6354 92.6458 47.0625 91.1563 48.3959 88.9323L55.0729 91.9271C55.0469 92.0833 55.0313 92.2448 55.0313 92.4115C55.0313 94.224 56.5 95.6927 58.3177 95.6927C60.1302 95.6927 61.599 94.224 61.599 92.4115C61.599 91.2135 60.9584 90.1667 60 89.5938L62.6563 79.8698C63.3802 80.0104 64.125 80.0885 64.8854 80.0885Z" fill="#2093A3"/>
<mask id="mask1_449_2" style="mask-type:luminance" maskUnits="userSpaceOnUse" x="18" y="25" width="48" height="49">
<path d="M18.3281 25.6667H66V73.6667H18.3281V25.6667Z" fill="white"/>
</mask>
<g mask="url(#mask1_449_2)">
<path d="M41.8594 60.7396C41.8594 59.2813 41.5937 57.8906 41.1094 56.6094L59.1094 48.25C59.7083 48.9479 60.6041 49.3958 61.5989 49.3958C63.4166 49.3958 64.8854 47.9271 64.8854 46.1146C64.8854 44.2969 63.4166 42.8281 61.5989 42.8281C60.7083 42.8281 59.9062 43.1875 59.3125 43.7604L47.8698 37.1094C48.276 36.1823 48.5 35.1563 48.5 34.0781C48.5 29.875 45.0937 26.4688 40.8906 26.4688C36.6875 26.4688 33.2812 29.875 33.2812 34.0781C33.2812 38.2813 36.6875 41.6875 40.8906 41.6875C43.3854 41.6875 45.5937 40.4896 46.9844 38.6406L58.4271 45.2917C58.3541 45.5521 58.3177 45.8281 58.3177 46.1146C58.3177 46.2917 58.3333 46.4687 58.3646 46.6406L40.3594 55.0052C38.3489 51.4219 34.5208 48.9948 30.1198 48.9948C23.6354 48.9948 18.3802 54.2552 18.3802 60.7396C18.3802 67.2187 23.6354 72.4792 30.1198 72.4792C36.5989 72.4792 41.8594 67.2187 41.8594 60.7396Z" fill="url(#paint2_linear_449_2)"/>
</g>
<path d="M189.891 96.776C188.438 96.776 187.094 97.2552 186.016 98.0625L172.646 84.4844C172.922 84.0052 173.083 83.4479 173.083 82.8542C173.083 81.0417 171.609 79.5729 169.797 79.5729C168.37 79.5729 167.156 80.4844 166.703 81.7656L147.396 80.474C147.083 78.9792 145.76 77.8594 144.177 77.8594C142.365 77.8594 140.896 79.3281 140.896 81.1458C140.896 82.9583 142.365 84.4271 144.177 84.4271C145.609 84.4271 146.823 83.5156 147.271 82.2396L166.583 83.526C166.891 85.0208 168.214 86.1406 169.797 86.1406C170.375 86.1406 170.917 85.9896 171.385 85.7292L184.75 99.3073C183.906 100.401 183.406 101.776 183.406 103.266C183.406 106.849 186.307 109.75 189.891 109.75C193.479 109.75 196.38 106.849 196.38 103.266C196.38 99.6823 193.479 96.776 189.891 96.776Z" fill="#70B445"/>
<mask id="mask2_449_2" style="mask-type:luminance" maskUnits="userSpaceOnUse" x="84" y="0" width="65" height="25">
<path d="M84.6667 0.34375H148.667V24.3333H84.6667V0.34375Z" fill="white"/>
</mask>
<g mask="url(#mask2_449_2)">
<path d="M91.1719 16.8541C94.3177 16.8541 96.9375 14.6197 97.5365 11.6458L107.047 12.2447C107.13 18.6562 112.349 23.828 118.781 23.828C125.266 23.828 130.521 18.5728 130.521 12.0885C130.521 11.1405 130.406 10.2135 130.188 9.32804L141.443 5.69263C142.031 6.57284 143.036 7.16138 144.177 7.16138C145.99 7.16138 147.464 5.68742 147.464 3.87492C147.464 2.06242 145.99 0.58846 144.177 0.58846C142.365 0.58846 140.896 2.06242 140.896 3.87492C140.896 3.91659 140.896 3.96346 140.901 4.00513L129.646 7.64575C127.896 3.3645 123.693 0.348877 118.781 0.348877C112.844 0.348877 107.943 4.75513 107.156 10.4791L97.6406 9.88013C97.3959 6.52596 94.5938 3.87492 91.1719 3.87492C87.5886 3.87492 84.6823 6.78117 84.6823 10.3645C84.6823 13.9478 87.5886 16.8541 91.1719 16.8541Z" fill="url(#paint3_linear_449_2)"/>
</g>
<mask id="mask3_449_2" style="mask-type:luminance" maskUnits="userSpaceOnUse" x="155" y="113" width="31" height="38">
<path d="M155.333 113.667H186V150.807H155.333V113.667Z" fill="white"/>
</mask>
<g mask="url(#mask3_449_2)">
<path d="M177.406 114.63C173.203 114.63 169.797 118.037 169.797 122.24C169.797 123.792 170.266 125.24 171.068 126.443L166.406 130.391C165.255 129.354 163.734 128.724 162.068 128.724C158.484 128.724 155.583 131.63 155.583 135.214C155.583 138.797 158.484 141.703 162.068 141.703C163.031 141.703 163.943 141.495 164.766 141.12L167.359 145.214C166.833 145.792 166.51 146.563 166.51 147.406C166.51 149.219 167.984 150.693 169.797 150.693C171.609 150.693 173.083 149.219 173.083 147.406C173.083 145.594 171.609 144.12 169.797 144.12C169.469 144.12 169.151 144.172 168.849 144.261L166.26 140.172C167.667 138.979 168.557 137.203 168.557 135.214C168.557 133.938 168.188 132.745 167.547 131.74L172.208 127.792C173.573 129.068 175.396 129.849 177.406 129.849C181.609 129.849 185.016 126.443 185.016 122.24C185.016 118.037 181.609 114.63 177.406 114.63Z" fill="#2093A3"/>
</g>
<path d="M107.042 102.141C104.49 102.141 102.234 103.396 100.854 105.323L94.2344 101.661C94.9167 100.177 95.3021 98.5208 95.3021 96.776C95.3021 93.2655 93.7604 90.1145 91.3177 87.9635L96.5729 80.9947C98.4011 82.1718 100.578 82.8541 102.911 82.8541C109.396 82.8541 114.651 77.5989 114.651 71.1145C114.651 64.6353 109.396 59.3801 102.911 59.3801C96.4271 59.3801 91.1719 64.6353 91.1719 71.1145C91.1719 74.6249 92.7188 77.776 95.1615 79.927L89.9011 86.8958C88.0729 85.7239 85.9011 85.0364 83.5625 85.0364C77.0781 85.0364 71.8229 90.2916 71.8229 96.776C71.8229 103.26 77.0781 108.516 83.5625 108.516C87.6667 108.516 91.2813 106.406 93.3802 103.213L100 106.87C99.6354 107.76 99.4323 108.734 99.4323 109.75C99.4323 113.958 102.839 117.365 107.042 117.365C111.245 117.365 114.651 113.958 114.651 109.75C114.651 105.552 111.245 102.141 107.042 102.141Z" fill="url(#paint4_linear_449_2)"/>
<path d="M144.177 114.63C140.911 114.63 138.125 116.688 137.047 119.578L127.99 117.354C127.932 115.589 126.49 114.177 124.714 114.177C124.661 114.177 124.62 114.182 124.568 114.182L117.255 91.8542C118.13 91.2657 118.714 90.2605 118.714 89.1251C118.714 87.3126 117.245 85.8386 115.427 85.8386C113.615 85.8386 112.146 87.3126 112.146 89.1251C112.146 90.9376 113.615 92.4115 115.427 92.4115C115.474 92.4115 115.521 92.4063 115.573 92.4011L122.885 114.734C122.01 115.318 121.427 116.323 121.427 117.458C121.427 119.276 122.896 120.745 124.714 120.745C125.937 120.745 127.01 120.073 127.573 119.073L136.63 121.297C136.589 121.604 136.568 121.917 136.568 122.24C136.568 126.443 139.974 129.849 144.177 129.849C148.38 129.849 151.786 126.443 151.786 122.24C151.786 118.037 148.38 114.63 144.177 114.63Z" fill="#2093A3"/>
<mask id="mask4_449_2" style="mask-type:luminance" maskUnits="userSpaceOnUse" x="155" y="100" width="14" height="10">
<path d="M155.75 100.333H168.385V109.307H155.75V100.333Z" fill="white"/>
</mask>
<g mask="url(#mask4_449_2)">
<path d="M165.922 101.594C165.672 101.505 165.411 101.427 165.135 101.359C165.12 101.521 165.089 101.677 165.052 101.828C165.266 101.88 165.474 101.943 165.667 102.005C165.75 101.875 165.833 101.74 165.922 101.594ZM167.885 102.807C167.755 102.958 167.63 103.099 167.51 103.24C167.599 103.401 167.651 103.573 167.651 103.75C167.651 104.948 165.38 105.932 162.516 106.005C162.396 106.01 162.276 106.01 162.156 106.01C162.125 106.01 162.099 106.01 162.068 106.01C159.073 105.99 156.661 104.984 156.661 103.75C156.661 103.349 156.911 102.974 157.349 102.651C157.318 102.505 157.292 102.349 157.266 102.193C156.323 102.781 155.755 103.568 155.755 104.479C155.755 106.922 157.063 108.125 159.016 108.693C159.068 109.198 160.453 109.599 162.156 109.599C163.859 109.599 165.245 109.198 165.297 108.693C167.25 108.125 168.557 106.922 168.557 104.479C168.557 103.854 168.323 103.292 167.885 102.807Z" fill="white"/>
</g>
<mask id="mask5_449_2" style="mask-type:luminance" maskUnits="userSpaceOnUse" x="162" y="99" width="7" height="7">
<path d="M162 99H168.385V105.667H162V99Z" fill="white"/>
</mask>
<g mask="url(#mask5_449_2)">
<path d="M168.375 101.651C166.979 103.125 166.229 104.068 165.703 105.016C164.943 105.302 164.005 105.484 162.99 105.552C163.036 105.495 163.089 105.443 163.151 105.396C164.63 104.281 165.417 103.401 166.974 100.62C167.135 100.328 167.438 100.172 167.74 100.172C167.922 100.172 168.104 100.224 168.26 100.339C168.688 100.651 168.74 101.266 168.375 101.651Z" fill="white"/>
</g>
<path d="M160.781 104.734C160.573 104.479 160.354 104.234 160.12 104C159.87 103.745 159.599 103.505 159.313 103.281C159.031 103.057 158.734 102.849 158.432 102.646L158.443 102.63C158.76 102.802 159.078 102.984 159.385 103.182C159.677 103.375 160.682 103.963 160.974 104.219C160.995 104.234 161.026 104.224 161.031 104.198C161.604 101.495 158.063 101.719 157.672 101.755C157.656 101.755 157.641 101.771 157.641 101.792C158.062 105.489 160.187 104.995 160.766 104.792C160.786 104.781 160.797 104.755 160.781 104.734Z" fill="white"/>
<mask id="mask6_449_2" style="mask-type:luminance" maskUnits="userSpaceOnUse" x="160" y="97" width="6" height="8">
<path d="M160.667 97.823H166V104.333H160.667V97.823Z" fill="white"/>
</mask>
<g mask="url(#mask6_449_2)">
<path d="M164.042 97.849C164.036 97.8281 164.016 97.8229 163.995 97.8333C159.563 100.281 160.958 102.693 161.62 103.495C161.635 103.516 161.667 103.516 161.677 103.495C161.906 103.094 162.12 102.693 162.318 102.292C162.776 101.365 163.151 100.417 163.5 99.4687C163.505 99.4531 163.516 99.4479 163.531 99.4479H163.547C163.568 99.4479 163.583 99.4687 163.578 99.4896C163.38 100.448 163.151 101.401 162.833 102.354C162.688 102.792 162.531 103.224 162.354 103.656C162.344 103.682 162.365 103.708 162.391 103.703C166.25 102.937 164.245 98.2865 164.042 97.849Z" fill="white"/>
</g>
<path d="M162.141 103.302C162.125 103.625 162.104 103.958 162.031 104.276C161.995 104.453 161.938 104.63 161.891 104.807C161.823 105.057 161.766 105.312 161.724 105.568C161.536 105.562 161.349 105.552 161.167 105.536C161.177 105.469 161.182 105.396 161.177 105.323C161.161 105.219 161.125 105.114 161.083 105.021C160.958 104.745 160.786 104.484 160.578 104.26C160.552 104.234 160.589 104.187 160.62 104.208C160.714 104.26 160.807 104.318 160.896 104.375C160.938 104.406 160.979 104.432 161.021 104.469C161.125 104.557 161.208 104.667 161.286 104.781C161.302 104.807 161.333 104.802 161.344 104.776C161.536 104.25 161.781 103.75 162.078 103.281C162.094 103.25 162.141 103.266 162.141 103.302Z" fill="white"/>
<mask id="mask7_449_2" style="mask-type:luminance" maskUnits="userSpaceOnUse" x="76" y="91" width="9" height="11">
<path d="M76.6667 91.6667H84.6667V101.667H76.6667V91.6667Z" fill="white"/>
</mask>
<g mask="url(#mask7_449_2)">
<path d="M79.4948 95.8907C82.3594 97.422 83.4375 99.4324 83.8385 100.573C83.7917 99.3751 83.4583 97.1876 81.8333 95.3022C80.4427 93.6876 78.6406 93.3178 77.7917 91.6667C77.7917 91.6667 76.1927 95.0209 77.5 97.8022C78.6094 100.167 80.4219 101.412 83.5729 101.474C83.5208 101.151 82.9583 98.2917 79.2656 96.323C79.151 96.2605 79.1042 96.1095 79.1667 95.9949C79.2292 95.8751 79.375 95.8282 79.4948 95.8907Z" fill="white"/>
</g>
<mask id="mask8_449_2" style="mask-type:luminance" maskUnits="userSpaceOnUse" x="84" y="96" width="6" height="6">
<path d="M84.6667 96.3333H89.9739V101.667H84.6667V96.3333Z" fill="white"/>
</mask>
<g mask="url(#mask8_449_2)">
<path d="M89.4166 96.7656C88.6927 96.7656 87.6458 96.9271 86.5364 97.6198C84.9896 98.5885 84.875 100.286 84.9166 101.063C85.3802 100.302 86.7344 98.3229 88.5208 97.8854C88.651 97.8542 88.7812 97.9323 88.8125 98.0625C88.8489 98.1927 88.7656 98.3281 88.6354 98.3594C86.8437 98.7969 85.4479 101.115 85.2083 101.526C85.6979 101.62 86.1302 101.661 86.5208 101.661C88.3073 101.661 89.125 100.734 89.4791 99.2656C89.8802 97.5885 90.4323 96.8854 90.4323 96.8854C90.4323 96.8854 90.0416 96.7656 89.4166 96.7656Z" fill="white"/>
</g>
<mask id="mask9_449_2" style="mask-type:luminance" maskUnits="userSpaceOnUse" x="164" y="10" width="12" height="18">
<path d="M164.052 10.0469H175.536V27.276H164.052V10.0469Z" fill="white"/>
</mask>
<g mask="url(#mask9_449_2)">
<path d="M167.802 25.3958C168.432 25.6666 169.161 25.9895 169.885 26.3124C170.729 25.9374 171.438 25.6301 172.01 25.3801C171.875 24.9166 171.625 23.8593 171.5 23.151C171.438 22.7864 171.479 22.4426 171.63 22.1093C172.76 19.6197 173.12 18.026 173.089 15.7968C172.552 14.1458 171.229 12.8593 170.406 11.4999C170.193 11.1458 170.042 10.3958 169.911 10.0676C169.776 10.3958 169.625 11.1458 169.411 11.4999C168.589 12.8593 167.266 14.1458 166.729 15.7968C166.698 18.026 167.063 19.6197 168.188 22.1093C168.339 22.4426 168.38 22.7916 168.318 23.151C168.193 23.8645 167.938 24.9322 167.802 25.3958ZM167.948 16.1145C168.484 14.901 169.521 12.7187 169.911 11.6458C169.885 11.6666 169.896 11.1562 169.911 11.1458C169.922 11.1562 169.932 11.6666 169.911 11.6458C170.297 12.7187 171.333 14.901 171.87 16.1145C171.87 16.1145 172.141 19.677 169.891 19.677C167.641 19.677 167.948 16.1145 167.948 16.1145ZM175.75 25.5676C175.734 25.9739 175.036 26.6458 173.099 27.2343C172.875 27.302 172.63 27.3645 172.354 27.4218L172.255 27.3801C171.99 27.2603 171.688 27.1197 171.365 26.9791C170.979 26.802 170.568 26.6197 170.151 26.4322C170.896 26.0989 171.542 25.8176 172.073 25.5885C173.052 25.1718 173.656 24.9322 173.839 24.8958C175.047 24.6458 175.641 25.1562 175.75 25.5676ZM171.12 27.1041C171.401 27.2291 171.667 27.3489 171.906 27.4583C171.708 27.4999 171.505 27.5312 171.302 27.5572C171.208 27.5676 171.109 27.578 171.005 27.5833C170.88 27.5937 170.745 27.6041 170.604 27.6093C169.51 27.6718 168.042 27.6041 166.703 27.2343C164.885 26.7343 164.068 26.0416 164.052 25.5676C164.161 25.1562 164.755 24.6458 165.964 24.8958C166.167 24.9374 166.859 25.2239 167.74 25.5989C168.313 25.8489 168.969 26.1405 169.62 26.4322C169.667 26.4478 169.708 26.4687 169.755 26.4895L169.885 26.5468C170.313 26.7395 170.729 26.927 171.12 27.1041ZM168.76 18.7968C168.661 18.6458 168.594 18.4791 168.563 18.302C168.526 18.1249 168.531 17.9478 168.568 17.7655C168.604 17.5885 168.672 17.427 168.776 17.276C168.88 17.1249 169.005 16.9999 169.156 16.901C169.307 16.802 169.474 16.7343 169.656 16.703C169.833 16.6666 170.01 16.6666 170.188 16.703C170.365 16.7447 170.531 16.8124 170.682 16.9166C170.833 17.0155 170.958 17.1458 171.057 17.2968C171.156 17.4478 171.224 17.6145 171.255 17.7916C171.292 17.9739 171.286 18.151 171.25 18.328C171.214 18.5051 171.146 18.6718 171.042 18.8176C170.938 18.9687 170.813 19.0937 170.661 19.1926C170.51 19.2968 170.344 19.3593 170.167 19.3958C169.984 19.427 169.807 19.427 169.63 19.3905C169.453 19.3541 169.286 19.2812 169.135 19.1822C168.984 19.078 168.859 18.953 168.76 18.7968Z" fill="white"/>
</g>
<mask id="mask10_449_2" style="mask-type:luminance" maskUnits="userSpaceOnUse" x="62" y="12" width="10" height="10">
<path d="M62.9844 12.4324H71.3333V21.6667H62.9844V12.4324Z" fill="white"/>
</mask>
<g mask="url(#mask10_449_2)">
<path d="M65.9271 19.5989C67.1719 20.2864 68.6511 20.3437 69.1042 20.3437C69.1875 20.3437 69.2344 20.3385 69.2448 20.3385C69.4427 20.3333 69.599 20.1666 69.5886 19.9687C69.5834 19.7708 69.4167 19.6146 69.2136 19.6198C69.1979 19.6198 67.5625 19.6771 66.2761 18.9687C65.0417 18.2916 64.8854 17.2239 64.8229 16.7656C64.7344 16.151 64.5052 14.8958 64.0313 14.1718C65.1771 14.1718 67.6042 14.7239 68.9271 19.1041C68.9584 19.2083 69.0521 19.276 69.1563 19.276C69.1823 19.276 69.2031 19.2708 69.2292 19.2656C69.3542 19.2291 69.4271 19.0937 69.3854 18.9687C68.4167 15.7552 66.8229 14.5104 65.6615 14.0312C65.5104 13.9687 65.3594 13.9166 65.2136 13.875C65.9636 13.8021 66.875 13.8802 67.7865 14.3593C69.8229 15.4427 69.7865 16.2812 69.7136 18.1198L69.7084 18.2552C69.6979 18.4531 69.8542 18.6198 70.0521 18.6302C70.2552 18.6406 70.4167 18.4843 70.4271 18.2864L70.4323 18.1458C70.5104 16.2656 70.5625 15.0156 68.1198 13.7239C65.6875 12.4323 63.2917 13.6302 63.1927 13.6823C63.0677 13.7448 62.9896 13.875 62.9948 14.0156C63 14.1562 63.0886 14.2812 63.2188 14.3333C63.5365 14.4583 63.9271 15.5729 64.1094 16.8698C64.1823 17.3802 64.3802 18.75 65.9271 19.5989Z" fill="white"/>
</g>
<mask id="mask11_449_2" style="mask-type:luminance" maskUnits="userSpaceOnUse" x="68" y="15" width="10" height="8">
<path d="M68.6667 15H77.9167V23H68.6667V15Z" fill="white"/>
</mask>
<g mask="url(#mask11_449_2)">
<path d="M77.2292 17.2188C75.8386 16.0886 73.3438 15.849 71.5834 17.4011C69.1771 19.5365 69.6927 22.0573 69.7136 22.1615C69.7604 22.3594 69.9479 22.4792 70.1406 22.4375C70.3334 22.3959 70.4584 22.2084 70.4167 22.0104C70.4011 21.9219 69.9792 19.7865 72.0625 17.9427C73.1563 16.974 74.6302 16.849 75.7813 17.2396C71.8646 17.4792 70.7656 20.7084 70.7552 20.7448C70.7136 20.8698 70.7865 21.0052 70.9115 21.0469C70.9375 21.0521 70.9584 21.0573 70.9844 21.0573C71.0834 21.0573 71.1771 20.9948 71.2136 20.8907C71.224 20.8594 72.2709 17.7761 76.1146 17.7032C75.7136 18.0417 75.2396 18.5104 75.0104 19.0157C74.9427 19.1563 74.8854 19.2969 74.8229 19.4323C74.1563 20.9427 73.6771 22.0313 70.9636 22.1823C70.7656 22.1927 70.6146 22.3646 70.625 22.5625C70.6354 22.75 70.7969 22.9011 70.9844 22.9011C70.9896 22.9011 71 22.9011 71.0052 22.9011C74.1563 22.724 74.7969 21.2657 75.4792 19.724C75.5417 19.5886 75.599 19.4532 75.6615 19.3177C76.0156 18.5469 77.1823 17.8125 77.1927 17.8021C77.2917 17.7396 77.3542 17.6354 77.3646 17.5209C77.3698 17.4063 77.3229 17.2917 77.2292 17.2188Z" fill="white"/>
</g>
<mask id="mask12_449_2" style="mask-type:luminance" maskUnits="userSpaceOnUse" x="64" y="21" width="8" height="5">
<path d="M64.6667 21.6667H71.3333V25.0678H64.6667V21.6667Z" fill="white"/>
</mask>
<g mask="url(#mask12_449_2)">
<path d="M68.474 21.9166C66.8646 21.3698 64.9896 22.3385 64.9115 22.3802C64.8542 22.4114 64.8073 22.4687 64.7917 22.5312C64.776 22.5937 64.7865 22.6666 64.8177 22.7187C64.849 22.7708 65.5573 23.901 66.4479 24.3385C67.4323 24.8229 68.2135 24.7864 68.7812 24.7552C69.3906 24.7291 69.5521 24.7343 69.6615 25.125C69.6875 25.2343 69.7865 25.3021 69.8906 25.3021C69.9115 25.3021 69.9323 25.3021 69.9531 25.2968C70.0833 25.2604 70.1562 25.1302 70.1198 25C69.9115 24.2239 69.3542 24.25 68.7604 24.276C68.2135 24.3073 67.5312 24.3385 66.6562 23.9114C66.1094 23.6406 65.6198 23.026 65.3802 22.6927C65.9115 22.4635 67.2187 21.9948 68.3177 22.3698C69.6771 22.8281 69.8229 24.0937 69.8281 24.1458C69.8437 24.2812 69.9583 24.375 70.0885 24.3646C70.224 24.3489 70.3177 24.2343 70.3073 24.0989C70.2969 24.0364 70.1302 22.4791 68.474 21.9166Z" fill="white"/>
</g>
<mask id="mask13_449_2" style="mask-type:luminance" maskUnits="userSpaceOnUse" x="170" y="60" width="8" height="7">
<path d="M170 60.3333H177.188V66.9687H170V60.3333Z" fill="white"/>
</mask>
<g mask="url(#mask13_449_2)">
<path fill-rule="evenodd" clip-rule="evenodd" d="M176.594 63.63L173.542 60.5728L170.49 63.6248L173.547 66.6769C174.385 67.5155 175.755 67.5155 176.594 66.6769C177.432 65.8384 177.432 64.4686 176.594 63.63ZM173.958 61.7759L176.203 64.0207C176.729 64.5415 176.813 65.3488 176.453 65.9634C176.807 64.5103 175.526 63.7342 173.958 61.7759Z" fill="white"/>
</g>
<mask id="mask14_449_2" style="mask-type:luminance" maskUnits="userSpaceOnUse" x="168" y="53" width="4" height="5">
<path d="M168.667 53.1824H171.333V57.6667H168.667V53.1824Z" fill="white"/>
</mask>
<g mask="url(#mask14_449_2)">
<path fill-rule="evenodd" clip-rule="evenodd" d="M169.74 56.3854C170.167 55.9635 170.406 55.3854 170.406 54.7865C170.406 54.1823 170.167 53.6094 169.74 53.1875C169.312 53.6094 169.073 54.1823 169.073 54.7865C169.073 55.3854 169.312 55.9635 169.74 56.3854Z" fill="white"/>
</g>
<path fill-rule="evenodd" clip-rule="evenodd" d="M169.521 58.0781C168.922 58.0833 168.344 57.8438 167.917 57.4219C167.495 56.9948 167.255 56.4167 167.26 55.8177C167.859 55.8125 168.438 56.0521 168.865 56.474C169.286 56.901 169.526 57.4792 169.521 58.0781ZM169.958 58.0781C170.563 58.0833 171.135 57.8438 171.563 57.4219C171.99 56.9948 172.224 56.4167 172.219 55.8177C171.62 55.8125 171.042 56.0521 170.615 56.474C170.193 56.901 169.953 57.4792 169.958 58.0781Z" fill="white"/>
<path fill-rule="evenodd" clip-rule="evenodd" d="M170.141 60.9688C170.932 60.974 171.698 60.6615 172.255 60.099C172.818 59.5365 173.13 58.7761 173.125 57.9844C172.333 57.9792 171.568 58.2917 171.01 58.849C170.448 59.4115 170.135 60.1719 170.141 60.9688Z" fill="white"/>
<path fill-rule="evenodd" clip-rule="evenodd" d="M169.339 60.9688C168.547 60.974 167.781 60.6615 167.224 60.099C166.661 59.5365 166.349 58.7761 166.354 57.9844C167.146 57.9792 167.911 58.2917 168.469 58.849C169.031 59.4115 169.344 60.1719 169.339 60.9688Z" fill="white"/>
<mask id="mask15_449_2" style="mask-type:luminance" maskUnits="userSpaceOnUse" x="162" y="60" width="8" height="7">
<path d="M162.255 60.3333H170V66.9687H162.255V60.3333Z" fill="white"/>
</mask>
<g mask="url(#mask15_449_2)">
<path fill-rule="evenodd" clip-rule="evenodd" d="M162.885 63.63L165.937 60.5728L168.99 63.6248L165.932 66.6769C165.094 67.5155 163.724 67.5155 162.885 66.6769C162.047 65.8384 162.047 64.4686 162.885 63.63ZM165.521 61.7759L163.276 64.0207C162.75 64.5415 162.667 65.3488 163.026 65.9634C162.672 64.5103 163.953 63.7342 165.521 61.7759Z" fill="white"/>
</g>
<path d="M118.599 7.70825C116.328 7.70825 114.474 9.56242 114.474 11.8333C114.474 14.1093 116.328 15.9635 118.599 15.9635C120.875 15.9635 122.729 14.1093 122.729 11.8333C122.729 9.56242 120.875 7.70825 118.599 7.70825ZM118.599 15.1353C116.781 15.1353 115.297 13.6562 115.297 11.8333C115.297 10.0155 116.781 8.53638 118.599 8.53638C120.422 8.53638 121.901 10.0155 121.901 11.8333C121.901 13.6562 120.422 15.1353 118.599 15.1353Z" fill="white"/>
<mask id="mask16_449_2" style="mask-type:luminance" maskUnits="userSpaceOnUse" x="118" y="5" width="2" height="2">
<path d="M118 5.23438H119.333V7H118V5.23438Z" fill="white"/>
</mask>
<g mask="url(#mask16_449_2)">
<path d="M118.599 6.88542C118.828 6.88542 119.016 6.69792 119.016 6.47396V5.64583C119.016 5.42187 118.828 5.23438 118.599 5.23438C118.37 5.23438 118.188 5.42187 118.188 5.64583V6.47396C118.188 6.70313 118.375 6.88542 118.599 6.88542Z" fill="white"/>
</g>
<path d="M115.563 7.39576C115.635 7.53118 115.776 7.60409 115.922 7.60409C115.99 7.60409 116.063 7.58847 116.125 7.5468C116.323 7.43743 116.391 7.18222 116.276 6.9843L115.865 6.27076C115.75 6.07285 115.495 6.00514 115.297 6.11972C115.104 6.2343 115.036 6.48951 115.146 6.68222L115.563 7.39576Z" fill="white"/>
<path d="M114.161 8.7968L113.448 8.38534C113.25 8.27076 113 8.33847 112.885 8.53639C112.771 8.72909 112.839 8.9843 113.036 9.09889L113.75 9.51034C113.818 9.5468 113.885 9.56764 113.953 9.56764C114.099 9.56764 114.24 9.48951 114.312 9.3593C114.427 9.16139 114.359 8.91139 114.161 8.7968Z" fill="white"/>
<mask id="mask17_449_2" style="mask-type:luminance" maskUnits="userSpaceOnUse" x="112" y="11" width="2" height="2">
<path d="M112 11H114V12.3333H112V11Z" fill="white"/>
</mask>
<g mask="url(#mask17_449_2)">
<path d="M113.651 11.8333C113.651 11.6094 113.464 11.4219 113.234 11.4219H112.411C112.187 11.4219 112 11.6094 112 11.8333C112 12.0625 112.187 12.25 112.411 12.25H113.24C113.464 12.25 113.651 12.0677 113.651 11.8333Z" fill="white"/>
</g>
<path d="M113.75 14.1615L113.036 14.5729C112.839 14.6875 112.771 14.9427 112.885 15.1354C112.964 15.2708 113.099 15.3438 113.245 15.3438C113.312 15.3438 113.385 15.3229 113.448 15.2865L114.161 14.875C114.359 14.7604 114.427 14.5104 114.312 14.3125C114.198 14.1146 113.948 14.0469 113.75 14.1615Z" fill="white"/>
<path d="M116.125 16.1251C115.927 16.0105 115.677 16.0782 115.562 16.2761L115.151 16.9897C115.036 17.1876 115.104 17.4376 115.302 17.5522C115.365 17.5886 115.437 17.6095 115.505 17.6095C115.651 17.6095 115.786 17.5365 115.865 17.4011L116.276 16.6876C116.391 16.4897 116.323 16.2397 116.125 16.1251Z" fill="white"/>
<mask id="mask18_449_2" style="mask-type:luminance" maskUnits="userSpaceOnUse" x="118" y="16" width="2" height="3">
<path d="M118 16.3333H119.333V18.2343H118V16.3333Z" fill="white"/>
</mask>
<g mask="url(#mask18_449_2)">
<path d="M118.599 16.7864C118.375 16.7864 118.188 16.9739 118.188 17.1978V18.026C118.188 18.2551 118.375 18.4374 118.599 18.4374C118.828 18.4374 119.016 18.2551 119.016 18.026V17.1978C119.016 16.9739 118.828 16.7864 118.599 16.7864Z" fill="white"/>
</g>
<path d="M121.641 16.2761C121.526 16.0782 121.271 16.0105 121.078 16.1251C120.88 16.2397 120.813 16.4897 120.927 16.6876L121.339 17.4011C121.417 17.5365 121.552 17.6095 121.698 17.6095C121.766 17.6095 121.839 17.5886 121.901 17.5522C122.099 17.4376 122.167 17.1876 122.052 16.9897L121.641 16.2761Z" fill="white"/>
<path d="M124.167 14.5729L123.453 14.1615C123.255 14.0469 123.005 14.1146 122.891 14.3125C122.776 14.5104 122.844 14.7604 123.042 14.875L123.755 15.2865C123.818 15.3229 123.891 15.3438 123.958 15.3438C124.104 15.3438 124.24 15.2656 124.318 15.1354C124.432 14.9427 124.365 14.6875 124.167 14.5729Z" fill="white"/>
<mask id="mask19_449_2" style="mask-type:luminance" maskUnits="userSpaceOnUse" x="123" y="11" width="2" height="2">
<path d="M123.333 11H125V12.3333H123.333V11Z" fill="white"/>
</mask>
<g mask="url(#mask19_449_2)">
<path d="M124.792 11.4219H123.964C123.74 11.4219 123.552 11.6094 123.552 11.8333C123.552 12.0625 123.74 12.25 123.964 12.25H124.792C125.016 12.25 125.203 12.0625 125.203 11.8333C125.203 11.6094 125.016 11.4219 124.792 11.4219Z" fill="white"/>
</g>
<path d="M123.245 9.56764C123.318 9.56764 123.385 9.55201 123.453 9.51555L124.167 9.09889C124.359 8.9843 124.427 8.7343 124.318 8.53639C124.203 8.33847 123.948 8.27076 123.75 8.38534L123.042 8.7968C122.844 8.91139 122.776 9.16139 122.891 9.3593C122.964 9.49472 123.104 9.56764 123.245 9.56764Z" fill="white"/>
<path d="M121.078 7.5468C121.141 7.58847 121.214 7.60409 121.281 7.60409C121.422 7.60409 121.563 7.53118 121.641 7.39576L122.052 6.68222C122.167 6.48951 122.099 6.2343 121.901 6.11972C121.703 6.00514 121.453 6.07285 121.339 6.27076L120.927 6.9843C120.813 7.18222 120.88 7.43743 121.078 7.5468Z" fill="white"/>
<mask id="mask20_449_2" style="mask-type:luminance" maskUnits="userSpaceOnUse" x="58" y="62" width="13" height="13">
<path d="M58.7969 62.573H70.7969V74.573H58.7969V62.573Z" fill="white"/>
</mask>
<g mask="url(#mask20_449_2)">
<path d="M65.1354 74.5105H64.3906C64.1406 74.5105 63.9063 74.4636 63.6771 74.3647C63.4479 74.2709 63.2448 74.1355 63.0729 73.9636C62.8958 73.7865 62.7604 73.5834 62.6667 73.3595C62.5729 73.1303 62.526 72.8907 62.526 72.6459V70.7761H60.6615C60.4115 70.7761 60.1771 70.7292 59.9479 70.6355C59.7187 70.5417 59.5156 70.4063 59.3438 70.2292C59.1667 70.0574 59.0313 69.8542 58.9375 69.6251C58.8437 69.3959 58.7969 69.1615 58.7969 68.9115V68.1667C58.7969 67.922 58.8437 67.6824 58.9375 67.4532C59.0313 67.224 59.1667 67.0261 59.3438 66.849C59.5156 66.672 59.7187 66.5417 59.9479 66.4428C60.1771 66.349 60.4115 66.3022 60.6615 66.3022H62.526V64.4376C62.526 64.1876 62.5729 63.9532 62.6667 63.724C62.7604 63.4949 62.8958 63.2917 63.0729 63.1199C63.2448 62.9428 63.4479 62.8074 63.6771 62.7136C63.9063 62.6199 64.1406 62.573 64.3906 62.573H65.1354C65.4688 62.573 65.7813 62.6563 66.0677 62.823C66.2708 62.948 66.3125 63.1147 66.1927 63.323C66.0729 63.5313 65.9063 63.5782 65.6979 63.4688C65.5208 63.3647 65.3385 63.3178 65.1354 63.3178H64.3906C64.0833 63.3178 63.8177 63.4272 63.599 63.6459C63.3802 63.8647 63.2708 64.1303 63.2708 64.4376V66.6772C63.2708 66.7761 63.2344 66.8647 63.1615 66.9376C63.0885 67.0105 63 67.047 62.8958 67.047H60.6615C60.349 67.047 60.0885 67.1563 59.8698 67.3751C59.651 67.5938 59.5417 67.8595 59.5417 68.1667V68.9115C59.5417 69.224 59.651 69.4845 59.8698 69.7032C60.0885 69.922 60.349 70.0313 60.6615 70.0313H62.8958C63 70.0313 63.0885 70.0678 63.1615 70.1407C63.2344 70.2136 63.2708 70.3022 63.2708 70.4063V72.6459C63.2708 72.9532 63.3802 73.2188 63.599 73.4376C63.8177 73.6511 64.0833 73.7605 64.3906 73.7605H65.1354C65.4427 73.7605 65.7083 73.6511 65.9271 73.4376C66.1458 73.2188 66.2552 72.9532 66.2552 72.6459V70.4063C66.2552 70.3022 66.2917 70.2136 66.3646 70.1407C66.4375 70.0678 66.526 70.0313 66.6302 70.0313H68.8646C69.1771 70.0313 69.4375 69.922 69.6563 69.7032C69.875 69.4845 69.9844 69.224 69.9844 68.9115V68.1667C69.9844 67.9688 69.9375 67.7813 69.8385 67.6095C69.724 67.3959 69.776 67.2292 69.9792 67.1095C70.1875 66.9949 70.3542 67.0313 70.4844 67.2345C70.651 67.5209 70.7344 67.8334 70.7344 68.1667V68.9115C70.7292 69.1615 70.6823 69.3959 70.5885 69.6251C70.4948 69.8542 70.3594 70.0574 70.1823 70.2292C70.0104 70.4063 69.8073 70.5417 69.5781 70.6355C69.3542 70.7292 69.1146 70.7761 68.8646 70.7761H67V72.6459C67 72.8907 66.9531 73.1303 66.8594 73.3595C66.7656 73.5834 66.6302 73.7865 66.4531 73.9636C66.2813 74.1355 66.0781 74.2709 65.849 74.3647C65.6198 74.4636 65.3854 74.5105 65.1354 74.5105Z" fill="white"/>
</g>
<path d="M67 68.5417C66.9271 68.5417 66.8594 68.5208 66.7969 68.4792C66.5469 68.3125 64.3906 66.8385 64.3906 65.5573C64.3906 65.2448 64.4792 64.9635 64.6563 64.7083C64.8333 64.4531 65.0625 64.2708 65.3542 64.1615C65.6458 64.0521 65.9427 64.0365 66.2396 64.1094C66.5417 64.1823 66.7969 64.3385 67 64.5677C67.2083 64.3385 67.4583 64.1823 67.7604 64.1094C68.0625 64.0365 68.3594 64.0521 68.6458 64.1615C68.9375 64.2708 69.1719 64.4531 69.349 64.7083C69.526 64.9635 69.6146 65.2448 69.6146 65.5573C69.6146 66.8385 67.4531 68.3125 67.2083 68.4792C67.1458 68.5208 67.0781 68.5417 67 68.5417ZM65.8802 64.8073C65.6771 64.8073 65.5 64.8802 65.3542 65.026C65.2083 65.1719 65.1354 65.349 65.1354 65.5573C65.1354 66.1406 66.1667 67.1146 67 67.7135C67.7969 67.1458 68.8646 66.1667 68.8646 65.5573C68.8646 65.349 68.7917 65.1719 68.6458 65.026C68.5 64.8802 68.3281 64.8073 68.1198 64.8073C67.9167 64.8073 67.7396 64.8802 67.5938 65.026C67.4479 65.1719 67.375 65.349 67.375 65.5573C67.375 65.6563 67.3385 65.7448 67.2656 65.8177C67.1927 65.8906 67.1042 65.9271 67 65.9271C66.8958 65.9271 66.8125 65.8906 66.7396 65.8177C66.6667 65.7448 66.6302 65.6563 66.6302 65.5573C66.6302 65.349 66.5573 65.1719 66.4115 65.026C66.2656 64.8802 66.0885 64.8073 65.8802 64.8073Z" fill="white"/>
<path d="M0.797333 195.66L4.214 186.327H6.13067L9.54733 195.66H7.73483L6.98483 193.493H3.339L2.56817 195.66H0.797333ZM3.79733 192.16H6.50567L5.1515 188.285L3.79733 192.16Z" fill="#2093A3"/>
<path d="M15.6603 195.66V192.347L12.5353 186.327H14.4728L16.5353 190.639L18.5978 186.327H20.4937L17.3687 192.347V195.66H15.6603Z" fill="#2093A3"/>
<path d="M27.6979 195.827C27.0156 195.827 26.3958 195.691 25.8437 195.431C25.3021 195.155 24.8646 194.738 24.5312 194.181C24.2083 193.629 24.0521 192.926 24.0521 192.077V186.327H25.7604V192.097C25.7604 192.837 25.9323 193.384 26.2812 193.743C26.625 194.092 27.1146 194.264 27.7396 194.264C28.3489 194.264 28.8333 194.092 29.1979 193.743C29.5573 193.384 29.7396 192.837 29.7396 192.097V186.327H31.4479V192.077C31.4479 192.926 31.2708 193.629 30.9271 194.181C30.5937 194.738 30.1406 195.155 29.5729 195.431C29.0156 195.691 28.3906 195.827 27.6979 195.827Z" fill="#2093A3"/>
<path d="M35.711 195.66V186.327H39.1277C39.8777 186.327 40.4922 186.452 40.9818 186.702C41.4662 186.952 41.8256 187.301 42.0652 187.743C42.2995 188.176 42.4193 188.65 42.4193 189.16C42.4193 189.733 42.2631 190.254 41.961 190.722C41.6693 191.196 41.211 191.535 40.586 191.743L42.5235 195.66H40.5443L38.8152 191.972H37.3985V195.66H35.711ZM37.3985 190.722H39.0235C39.5912 190.722 40.0079 190.592 40.2735 190.327C40.5339 190.051 40.6693 189.681 40.6693 189.222C40.6693 188.78 40.5339 188.426 40.2735 188.16C40.0079 187.884 39.586 187.743 39.0027 187.743H37.3985V190.722Z" fill="#2093A3"/>
<path d="M49.2219 195.66L45.826 186.327H47.6385L50.2844 193.91L52.9302 186.327H54.7427L51.326 195.66H49.2219Z" fill="#2093A3"/>
<path d="M58.3707 195.66V186.327H64.4541V187.702H60.0582V190.264H64.0582V191.597H60.0582V194.285H64.4541V195.66H58.3707Z" fill="#2093A3"/>
<path d="M68.5944 195.66V186.327H71.761C72.8548 186.327 73.761 186.525 74.4694 186.91C75.1777 187.301 75.6985 187.842 76.0319 188.535C76.3756 189.233 76.5527 190.051 76.5527 190.993C76.5527 191.941 76.3756 192.759 76.0319 193.452C75.6985 194.15 75.1777 194.691 74.4694 195.077C73.761 195.467 72.8548 195.66 71.761 195.66H68.5944ZM70.2819 194.202H71.6985C72.4746 194.202 73.0839 194.077 73.5319 193.827C73.9902 193.566 74.3131 193.196 74.511 192.722C74.7037 192.254 74.8027 191.676 74.8027 190.993C74.8027 190.327 74.7037 189.759 74.511 189.285C74.3131 188.801 73.9902 188.431 73.5319 188.181C73.0839 187.92 72.4746 187.785 71.6985 187.785H70.2819V194.202Z" fill="#2093A3"/>
<path d="M80.5907 195.66V186.327H82.2782V195.66H80.5907Z" fill="#2093A3"/>
<path d="M90.8376 195.827C89.9053 195.827 89.098 195.629 88.4209 195.222C87.7386 194.806 87.2178 194.238 86.8584 193.514C86.4939 192.795 86.3168 191.962 86.3168 191.014C86.3168 190.056 86.4939 189.217 86.8584 188.493C87.2178 187.759 87.7386 187.191 88.4209 186.785C89.098 186.368 89.9053 186.16 90.8376 186.16C91.9626 186.16 92.8793 186.441 93.5876 186.993C94.3064 187.551 94.7595 188.337 94.9418 189.347H93.0668C92.9418 188.837 92.6918 188.441 92.3168 188.16C91.9418 187.868 91.4418 187.722 90.8168 187.722C89.9522 187.722 89.2803 188.014 88.7959 188.597C88.3064 189.181 88.0668 189.988 88.0668 191.014C88.0668 192.03 88.3064 192.827 88.7959 193.41C89.2803 193.993 89.9522 194.285 90.8168 194.285C91.4418 194.285 91.9418 194.155 92.3168 193.889C92.6918 193.613 92.9418 193.233 93.0668 192.743H94.9418C94.7595 193.717 94.3064 194.472 93.5876 195.014C92.8793 195.556 91.9626 195.827 90.8376 195.827Z" fill="#2093A3"/>
<path d="M104.664 195.66V186.327H106.352L110.748 192.91V186.327H112.456V195.66H110.748L106.352 189.097V195.66H104.664Z" fill="#2093A3"/>
<path d="M116.794 195.66V186.327H122.877V187.702H118.481V190.264H122.481V191.597H118.481V194.285H122.877V195.66H116.794Z" fill="#2093A3"/>
<path d="M130.601 195.827C129.918 195.827 129.299 195.691 128.747 195.431C128.205 195.155 127.767 194.738 127.434 194.181C127.111 193.629 126.955 192.926 126.955 192.077V186.327H128.663V192.097C128.663 192.837 128.835 193.384 129.184 193.743C129.528 194.092 130.017 194.264 130.642 194.264C131.252 194.264 131.736 194.092 132.101 193.743C132.46 193.384 132.642 192.837 132.642 192.097V186.327H134.351V192.077C134.351 192.926 134.174 193.629 133.83 194.181C133.497 194.738 133.043 195.155 132.476 195.431C131.918 195.691 131.293 195.827 130.601 195.827Z" fill="#2093A3"/>
<path d="M138.614 195.66V186.327H142.03C142.78 186.327 143.395 186.452 143.885 186.702C144.369 186.952 144.728 187.301 144.968 187.743C145.202 188.176 145.322 188.65 145.322 189.16C145.322 189.733 145.166 190.254 144.864 190.722C144.572 191.196 144.114 191.535 143.489 191.743L145.426 195.66H143.447L141.718 191.972H140.301V195.66H138.614ZM140.301 190.722H141.926C142.494 190.722 142.911 190.592 143.176 190.327C143.437 190.051 143.572 189.681 143.572 189.222C143.572 188.78 143.437 188.426 143.176 188.16C142.911 187.884 142.489 187.743 141.905 187.743H140.301V190.722Z" fill="#2093A3"/>
<path d="M153.791 195.827C152.859 195.827 152.047 195.629 151.354 195.222C150.656 194.806 150.109 194.238 149.708 193.514C149.317 192.78 149.125 191.941 149.125 190.993C149.125 190.051 149.317 189.217 149.708 188.493C150.109 187.759 150.656 187.191 151.354 186.785C152.047 186.368 152.859 186.16 153.791 186.16C154.718 186.16 155.531 186.368 156.229 186.785C156.937 187.191 157.484 187.759 157.875 188.493C158.26 189.217 158.458 190.051 158.458 190.993C158.458 191.941 158.26 192.78 157.875 193.514C157.484 194.238 156.937 194.806 156.229 195.222C155.531 195.629 154.718 195.827 153.791 195.827ZM153.791 194.285C154.677 194.285 155.385 193.993 155.916 193.41C156.458 192.827 156.729 192.024 156.729 190.993C156.729 189.967 156.458 189.16 155.916 188.577C155.385 187.993 154.677 187.702 153.791 187.702C152.901 187.702 152.192 187.993 151.666 188.577C151.135 189.16 150.875 189.967 150.875 190.993C150.875 192.024 151.135 192.827 151.666 193.41C152.192 193.993 152.901 194.285 153.791 194.285Z" fill="#2093A3"/>
<path d="M172.4 195.827C171.468 195.827 170.661 195.629 169.984 195.222C169.301 194.806 168.78 194.238 168.421 193.514C168.056 192.795 167.879 191.962 167.879 191.014C167.879 190.056 168.056 189.217 168.421 188.493C168.78 187.759 169.301 187.191 169.984 186.785C170.661 186.368 171.468 186.16 172.4 186.16C173.525 186.16 174.442 186.441 175.15 186.993C175.869 187.551 176.322 188.337 176.504 189.347H174.629C174.504 188.837 174.254 188.441 173.879 188.16C173.504 187.868 173.004 187.722 172.379 187.722C171.515 187.722 170.843 188.014 170.359 188.597C169.869 189.181 169.629 189.988 169.629 191.014C169.629 192.03 169.869 192.827 170.359 193.41C170.843 193.993 171.515 194.285 172.379 194.285C173.004 194.285 173.504 194.155 173.879 193.889C174.254 193.613 174.504 193.233 174.629 192.743H176.504C176.322 193.717 175.869 194.472 175.15 195.014C174.442 195.556 173.525 195.827 172.4 195.827Z" fill="#2093A3"/>
<path d="M180.535 195.66V186.327H182.222V194.327H186.368V195.66H180.535Z" fill="#2093A3"/>
<path d="M190.398 195.66V186.327H192.086V195.66H190.398Z" fill="#2093A3"/>
<path d="M196.437 195.66V186.327H198.125L202.52 192.91V186.327H204.229V195.66H202.52L198.125 189.097V195.66H196.437Z" fill="#2093A3"/>
<path d="M208.567 195.66V186.327H210.254V195.66H208.567Z" fill="#2093A3"/>
<path d="M218.814 195.827C217.881 195.827 217.074 195.629 216.397 195.222C215.715 194.806 215.194 194.238 214.834 193.514C214.47 192.795 214.293 191.962 214.293 191.014C214.293 190.056 214.47 189.217 214.834 188.493C215.194 187.759 215.715 187.191 216.397 186.785C217.074 186.368 217.881 186.16 218.814 186.16C219.939 186.16 220.855 186.441 221.564 186.993C222.282 187.551 222.735 188.337 222.918 189.347H221.043C220.918 188.837 220.668 188.441 220.293 188.16C219.918 187.868 219.418 187.722 218.793 187.722C217.928 187.722 217.256 188.014 216.772 188.597C216.282 189.181 216.043 189.988 216.043 191.014C216.043 192.03 216.282 192.827 216.772 193.41C217.256 193.993 217.928 194.285 218.793 194.285C219.418 194.285 219.918 194.155 220.293 193.889C220.668 193.613 220.918 193.233 221.043 192.743H222.918C222.735 193.717 222.282 194.472 221.564 195.014C220.855 195.556 219.939 195.827 218.814 195.827Z" fill="#2093A3"/>
<defs>
<linearGradient id="paint0_linear_449_2" x1="176.268" y1="7.41138" x2="176.268" y2="46.1145" gradientUnits="userSpaceOnUse">
<stop stop-color="#166849"/>
<stop offset="1" stop-color="#13577A"/>
</linearGradient>
<linearGradient id="paint1_linear_449_2" x1="149.26" y1="92.4114" x2="149.26" y2="125.229" gradientUnits="userSpaceOnUse">
<stop stop-color="#166849"/>
<stop offset="1" stop-color="#13577A"/>
</linearGradient>
<linearGradient id="paint2_linear_449_2" x1="41.6328" y1="26.4687" x2="41.6328" y2="72.4792" gradientUnits="userSpaceOnUse">
<stop stop-color="#166849"/>
<stop offset="1" stop-color="#13577A"/>
</linearGradient>
<linearGradient id="paint3_linear_449_2" x1="116.073" y1="0.348877" x2="116.073" y2="23.828" gradientUnits="userSpaceOnUse">
<stop stop-color="#166849"/>
<stop offset="1" stop-color="#13577A"/>
</linearGradient>
<linearGradient id="paint4_linear_449_2" x1="93.237" y1="59.3801" x2="93.237" y2="117.365" gradientUnits="userSpaceOnUse">
<stop stop-color="#166849"/>
<stop offset="1" stop-color="#13577A"/>
</linearGradient>
</defs>
</svg>
