<svg width="500" height="500" viewBox="0 0 500 500" fill="none" xmlns="http://www.w3.org/2000/svg">
<path d="M144.144 287.017V305.955H142.436V285.788C142.436 284.679 142.175 283.819 141.665 283.205C141.149 282.595 140.279 282.288 139.061 282.288H138.811V281.309H141.352C142.644 281.309 143.712 281.496 144.561 281.871C145.404 282.246 146.128 282.809 146.727 283.559L159.665 299.017V281.309H161.394V306.184H160.04L144.144 287.017Z" fill="#70B445"/>
<path d="M179.916 306.33C178.192 306.33 176.708 305.934 175.458 305.142C174.218 304.34 173.27 303.246 172.604 301.871C171.947 300.486 171.625 298.924 171.625 297.184C171.625 295.34 171.958 293.726 172.625 292.351C173.291 290.965 174.218 289.903 175.416 289.163C176.609 288.413 177.984 288.038 179.541 288.038C181.942 288.038 183.859 288.741 185.291 290.142C186.718 291.533 187.437 293.424 187.437 295.809L187.333 297.809H176.062C176.062 300.059 176.458 301.778 177.25 302.955C178.052 304.137 179.151 304.726 180.541 304.726C181.708 304.726 182.697 304.47 183.52 303.955C184.338 303.429 185.109 302.663 185.833 301.663L186.812 302.413C186.088 303.637 185.171 304.595 184.062 305.288C182.963 305.981 181.583 306.33 179.916 306.33ZM183 296.205C183 293.913 182.708 292.246 182.125 291.205C181.541 290.163 180.677 289.642 179.541 289.642C178.51 289.642 177.671 290.2 177.02 291.309C176.38 292.408 176.062 294.038 176.062 296.205H183Z" fill="#70B445"/>
<path d="M203.946 306.33C201.805 306.33 200.154 305.804 198.988 304.746C197.832 303.694 197.259 301.955 197.259 299.538V293.121C197.259 291.845 197.082 290.903 196.738 290.288C196.389 289.679 195.696 289.371 194.654 289.371H194.279V288.413H198.154C199.055 288.413 199.743 288.554 200.217 288.83C200.686 289.095 201.019 289.559 201.217 290.226C201.425 290.882 201.529 291.845 201.529 293.121V299.538C201.529 302.944 202.707 304.642 205.071 304.642C206.363 304.642 207.529 303.903 208.571 302.413V288.413H212.821V305.955H210.175L208.884 304.351H208.696C208.165 304.924 207.493 305.392 206.675 305.767C205.868 306.142 204.957 306.33 203.946 306.33Z" fill="#70B445"/>
<path d="M224.058 293.121C224.058 291.845 223.892 290.903 223.558 290.288C223.225 289.679 222.538 289.371 221.496 289.371H221.121V288.413H224.517C225.392 288.413 226.064 288.533 226.538 288.767C227.022 289.007 227.392 289.382 227.642 289.892C228.194 289.382 228.871 288.944 229.663 288.58C230.465 288.22 231.36 288.038 232.35 288.038C233.392 288.038 234.209 288.262 234.808 288.705C235.209 288.986 235.517 289.325 235.725 289.726C235.944 290.116 236.079 290.34 236.121 290.392L234.371 291.684C234.09 291.325 233.715 291.017 233.246 290.767C232.772 290.517 232.235 290.392 231.642 290.392C230.892 290.392 230.215 290.528 229.621 290.788C229.022 291.038 228.548 291.392 228.204 291.851C228.288 292.465 228.329 292.955 228.329 293.33V305.955H224.058V293.121Z" fill="#70B445"/>
<path d="M252.296 306.33C250.514 306.33 248.983 305.929 247.691 305.121C246.4 304.304 245.405 303.205 244.712 301.83C244.014 300.455 243.671 298.908 243.671 297.184C243.671 295.465 244.014 293.913 244.712 292.538C245.405 291.153 246.4 290.054 247.691 289.246C248.983 288.444 250.514 288.038 252.296 288.038C254.056 288.038 255.592 288.444 256.9 289.246C258.202 290.054 259.202 291.153 259.9 292.538C260.592 293.913 260.941 295.465 260.941 297.184C260.941 298.908 260.592 300.455 259.9 301.83C259.202 303.205 258.202 304.304 256.9 305.121C255.592 305.929 254.056 306.33 252.296 306.33ZM252.296 304.726C253.613 304.726 254.65 304.028 255.4 302.621C256.16 301.205 256.546 299.392 256.546 297.184C256.546 294.965 256.16 293.153 255.4 291.746C254.65 290.345 253.613 289.642 252.296 289.642C250.973 289.642 249.941 290.345 249.191 291.746C248.441 293.153 248.066 294.965 248.066 297.184C248.066 299.392 248.441 301.205 249.191 302.621C249.941 304.028 250.973 304.726 252.296 304.726Z" fill="#70B445"/>
<path d="M271.472 292.705C270.831 291.304 270.264 290.325 269.764 289.767C269.264 289.215 268.649 288.908 267.93 288.851V288.101L269.264 288.038C270.79 288.038 272.102 288.371 273.201 289.038C274.311 289.694 275.274 290.913 276.097 292.705L279.389 300.205L284.535 288.413H286.472L278.68 306.33H277.555L271.472 292.705Z" fill="#70B445"/>
<path d="M302.506 306.33C300.782 306.33 299.298 305.934 298.048 305.142C296.808 304.34 295.86 303.246 295.194 301.871C294.537 300.486 294.215 298.924 294.215 297.184C294.215 295.34 294.548 293.726 295.215 292.351C295.881 290.965 296.808 289.903 298.006 289.163C299.199 288.413 300.574 288.038 302.131 288.038C304.532 288.038 306.449 288.741 307.881 290.142C309.308 291.533 310.027 293.424 310.027 295.809L309.923 297.809H298.652C298.652 300.059 299.048 301.778 299.84 302.955C300.642 304.137 301.741 304.726 303.131 304.726C304.298 304.726 305.287 304.47 306.11 303.955C306.928 303.429 307.699 302.663 308.423 301.663L309.402 302.413C308.678 303.637 307.761 304.595 306.652 305.288C305.553 305.981 304.173 306.33 302.506 306.33ZM305.59 296.205C305.59 293.913 305.298 292.246 304.715 291.205C304.131 290.163 303.267 289.642 302.131 289.642C301.1 289.642 300.261 290.2 299.61 291.309C298.97 292.408 298.652 294.038 298.652 296.205H305.59Z" fill="#70B445"/>
<path d="M326.119 306.33C323.755 306.33 321.932 305.476 320.64 303.767C319.359 302.048 318.724 299.851 318.724 297.184C318.724 294.491 319.375 292.298 320.682 290.601C322 288.892 323.901 288.038 326.39 288.038C327.859 288.038 329.265 288.413 330.599 289.163V286.017C330.599 284.757 330.421 283.819 330.078 283.205C329.729 282.595 329.036 282.288 327.994 282.288H327.474V281.309H331.494C332.395 281.309 333.083 281.449 333.557 281.726C334.026 282.007 334.359 282.476 334.557 283.142C334.765 283.798 334.869 284.757 334.869 286.017V305.955H332.203L330.911 304.267H330.724C330.291 304.851 329.703 305.345 328.953 305.746C328.213 306.132 327.27 306.33 326.119 306.33ZM327.015 304.726C327.89 304.726 328.588 304.512 329.119 304.08C329.661 303.637 330.151 303.069 330.599 302.371V290.767C329.333 290.017 328.229 289.642 327.286 289.642C325.838 289.642 324.791 290.324 324.14 291.684C323.5 293.033 323.182 294.866 323.182 297.184C323.182 299.476 323.484 301.309 324.099 302.684C324.724 304.048 325.692 304.726 327.015 304.726Z" fill="#70B445"/>
<path d="M350.318 306.33C348.568 306.33 347.13 305.892 346.005 305.017C344.891 304.132 344.338 302.861 344.338 301.205C344.338 299.319 345.13 297.944 346.713 297.08C348.297 296.205 350.786 295.767 354.193 295.767H354.984C354.984 293.507 354.672 291.924 354.047 291.017C353.422 290.101 352.495 289.642 351.276 289.642C350.26 289.642 349.427 289.882 348.776 290.351C348.135 290.825 347.677 291.684 347.401 292.934H345.505C345.505 292.09 345.557 291.387 345.672 290.83C345.781 290.262 346.031 289.767 346.422 289.351C346.849 288.892 347.568 288.559 348.568 288.351C349.578 288.142 350.734 288.038 352.026 288.038C354.318 288.038 356.088 288.653 357.338 289.871C358.599 291.08 359.234 293.08 359.234 295.871V305.955H356.588L355.276 304.267H355.088C354.698 304.851 354.088 305.345 353.255 305.746C352.432 306.132 351.453 306.33 350.318 306.33ZM351.651 304.538C352.427 304.538 353.088 304.309 353.63 303.851C354.182 303.392 354.635 302.84 354.984 302.184V297.371H354.193C350.578 297.371 348.776 298.653 348.776 301.205C348.776 302.278 349.036 303.101 349.568 303.684C350.109 304.257 350.802 304.538 351.651 304.538Z" fill="#70B445"/>
<path d="M293.583 165.646C295.396 165.646 296.865 164.177 296.865 162.365C296.865 161.635 296.625 160.963 296.224 160.417L301.292 153.927C303.156 155.167 305.391 155.896 307.797 155.896C311.068 155.896 314.026 154.552 316.151 152.396L324.286 159.292C323.484 160.5 323.016 161.943 323.016 163.505C323.016 167.703 326.422 171.115 330.63 171.115C334.828 171.115 338.24 167.703 338.24 163.505C338.24 159.302 334.828 155.896 330.63 155.896C328.62 155.896 326.797 156.672 325.432 157.943L317.297 151.047C318.703 149.109 319.536 146.729 319.536 144.151C319.536 137.672 314.281 132.411 307.797 132.411C301.313 132.411 296.057 137.672 296.057 144.151C296.057 147.594 297.536 150.687 299.896 152.838L294.833 159.328C294.443 159.167 294.026 159.078 293.583 159.078C291.771 159.078 290.297 160.552 290.297 162.365C290.297 164.177 291.771 165.646 293.583 165.646Z" fill="url(#paint0_linear_355_2)"/>
<path d="M296.344 244.396L277.01 230.776C277.599 229.698 277.932 228.458 277.932 227.141C277.932 222.937 274.526 219.531 270.323 219.531C266.12 219.531 262.714 222.937 262.714 227.141C262.714 231.344 266.12 234.75 270.323 234.75C272.573 234.75 274.599 233.776 275.99 232.219L295.323 245.849C295.203 246.187 295.13 246.557 295.13 246.943C295.13 248.755 296.604 250.229 298.417 250.229C300.229 250.229 301.703 248.755 301.703 246.943C301.703 245.542 300.823 244.349 299.589 243.88L299.87 240.885C299.937 240.885 300.005 240.891 300.068 240.891C306.552 240.891 311.807 235.63 311.807 229.151C311.807 222.667 306.552 217.411 300.068 217.411C293.589 217.411 288.333 222.667 288.333 229.151C288.333 234.963 292.557 239.786 298.104 240.719L297.828 243.713C297.271 243.812 296.766 244.057 296.344 244.396Z" fill="url(#paint1_linear_355_2)"/>
<path d="M282.177 181.609C282.177 181.99 282.245 182.354 282.365 182.698L276 187.161C274.693 185.693 272.823 184.74 270.734 184.625L269.875 170.99C273.432 170.349 276.13 167.245 276.13 163.505C276.13 159.302 272.724 155.896 268.521 155.896C264.318 155.896 260.911 159.302 260.911 163.505C260.911 165.021 261.354 166.432 262.12 167.62L254.531 173.854C254 173.479 253.349 173.26 252.651 173.26C250.839 173.26 249.37 174.729 249.37 176.542C249.37 178.354 250.839 179.828 252.651 179.828C254.464 179.828 255.938 178.354 255.938 176.542C255.938 176.073 255.833 175.625 255.656 175.219L263.245 168.984C264.521 170.213 266.224 171 268.109 171.104L268.964 184.74C265.411 185.38 262.714 188.484 262.714 192.224C262.714 196.427 266.12 199.833 270.323 199.833C274.526 199.833 277.932 196.427 277.932 192.224C277.932 190.917 277.604 189.682 277.021 188.609L283.38 184.146C283.948 184.615 284.672 184.896 285.464 184.896C287.276 184.896 288.745 183.422 288.745 181.609C288.745 179.792 287.276 178.323 285.464 178.323C283.651 178.323 282.177 179.792 282.177 181.609Z" fill="#2093A3"/>
<mask id="mask0_355_2" style="mask-type:luminance" maskUnits="userSpaceOnUse" x="296" y="173" width="48" height="43">
<path d="M296 173.333H343.547V216H296V173.333Z" fill="white"/>
</mask>
<g mask="url(#mask0_355_2)">
<path d="M337.115 179.25C333.833 179.25 331.12 181.687 330.693 184.854H319.5C319.047 178.781 313.984 173.995 307.797 173.995C301.312 173.995 296.057 179.255 296.057 185.739C296.057 192.219 301.312 197.474 307.797 197.474C313.984 197.474 319.047 192.693 319.5 186.62H330.693C330.948 188.505 332.01 190.13 333.521 191.135L328.911 200.667C328.13 200.396 327.292 200.245 326.417 200.245C322.214 200.245 318.807 203.651 318.807 207.854C318.807 212.057 322.214 215.469 326.417 215.469C330.62 215.469 334.026 212.057 334.026 207.854C334.026 205.156 332.625 202.786 330.505 201.437L335.115 191.906C335.745 192.114 336.417 192.224 337.115 192.224C340.703 192.224 343.604 189.318 343.604 185.739C343.604 182.151 340.703 179.25 337.115 179.25Z" fill="#2093A3"/>
</g>
<path d="M208.057 155.896C209.094 155.896 210.099 155.755 211.057 155.505L219.693 180.417C218.839 181.01 218.281 181.995 218.281 183.109C218.281 184.927 219.75 186.396 221.563 186.396C223.375 186.396 224.849 184.927 224.849 183.109C224.849 181.297 223.375 179.828 221.563 179.828C221.495 179.828 221.432 179.833 221.365 179.838L212.729 154.922C214.109 154.328 215.349 153.469 216.396 152.417L226.974 161.422C226.167 162.63 225.693 164.083 225.693 165.646C225.693 169.849 229.099 173.26 233.302 173.26C237.505 173.26 240.911 169.849 240.911 165.646C240.911 161.448 237.505 158.036 233.302 158.036C231.302 158.036 229.479 158.812 228.12 160.078L217.542 151.068C218.958 149.13 219.797 146.74 219.797 144.151C219.797 137.672 214.536 132.411 208.057 132.411C201.573 132.411 196.318 137.672 196.318 144.151C196.318 150.635 201.573 155.896 208.057 155.896Z" fill="#2093A3"/>
<path d="M202.885 205.089C209.37 205.089 214.625 199.833 214.625 193.349C214.625 186.865 209.37 181.609 202.885 181.609C196.401 181.609 191.146 186.865 191.146 193.349C191.146 198.448 194.401 202.786 198.948 204.406L196.297 214.125C195.292 214.135 194.391 214.589 193.792 215.307L187.12 212.318C187.344 211.599 187.469 210.833 187.469 210.036C187.469 205.833 184.063 202.427 179.859 202.427C175.656 202.427 172.245 205.833 172.245 210.036C172.245 214.24 175.656 217.646 179.859 217.646C182.635 217.646 185.063 216.156 186.396 213.932L193.073 216.927C193.047 217.083 193.031 217.245 193.031 217.411C193.031 219.224 194.5 220.693 196.318 220.693C198.13 220.693 199.599 219.224 199.599 217.411C199.599 216.214 198.958 215.167 198 214.594L200.656 204.87C201.38 205.01 202.125 205.089 202.885 205.089Z" fill="#2093A3"/>
<mask id="mask1_355_2" style="mask-type:luminance" maskUnits="userSpaceOnUse" x="156" y="150" width="48" height="49">
<path d="M156.328 150.667H204V198.667H156.328V150.667Z" fill="white"/>
</mask>
<g mask="url(#mask1_355_2)">
<path d="M179.859 185.74C179.859 184.281 179.594 182.891 179.109 181.609L197.109 173.25C197.708 173.948 198.604 174.396 199.599 174.396C201.417 174.396 202.885 172.927 202.885 171.115C202.885 169.297 201.417 167.828 199.599 167.828C198.708 167.828 197.906 168.188 197.312 168.76L185.87 162.109C186.276 161.182 186.5 160.156 186.5 159.078C186.5 154.875 183.094 151.469 178.891 151.469C174.687 151.469 171.281 154.875 171.281 159.078C171.281 163.281 174.687 166.688 178.891 166.688C181.385 166.688 183.594 165.49 184.984 163.641L196.427 170.292C196.354 170.552 196.318 170.828 196.318 171.115C196.318 171.292 196.333 171.469 196.365 171.641L178.359 180.005C176.349 176.422 172.521 173.995 168.12 173.995C161.635 173.995 156.38 179.255 156.38 185.74C156.38 192.219 161.635 197.479 168.12 197.479C174.599 197.479 179.859 192.219 179.859 185.74Z" fill="url(#paint2_linear_355_2)"/>
</g>
<path d="M327.891 221.776C326.438 221.776 325.094 222.255 324.016 223.063L310.646 209.484C310.922 209.005 311.083 208.448 311.083 207.854C311.083 206.042 309.609 204.573 307.797 204.573C306.37 204.573 305.156 205.484 304.703 206.766L285.396 205.474C285.083 203.979 283.76 202.859 282.177 202.859C280.365 202.859 278.896 204.328 278.896 206.146C278.896 207.958 280.365 209.427 282.177 209.427C283.609 209.427 284.823 208.516 285.271 207.24L304.583 208.526C304.891 210.021 306.214 211.141 307.797 211.141C308.375 211.141 308.917 210.99 309.385 210.729L322.75 224.307C321.906 225.401 321.406 226.776 321.406 228.266C321.406 231.849 324.307 234.75 327.891 234.75C331.479 234.75 334.38 231.849 334.38 228.266C334.38 224.682 331.479 221.776 327.891 221.776Z" fill="#70B445"/>
<mask id="mask2_355_2" style="mask-type:luminance" maskUnits="userSpaceOnUse" x="222" y="125" width="65" height="25">
<path d="M222.667 125.344H286.667V149.333H222.667V125.344Z" fill="white"/>
</mask>
<g mask="url(#mask2_355_2)">
<path d="M229.172 141.854C232.318 141.854 234.938 139.62 235.536 136.646L245.047 137.245C245.13 143.656 250.349 148.828 256.781 148.828C263.266 148.828 268.521 143.573 268.521 137.088C268.521 136.141 268.406 135.213 268.188 134.328L279.443 130.693C280.031 131.573 281.036 132.161 282.177 132.161C283.99 132.161 285.464 130.687 285.464 128.875C285.464 127.062 283.99 125.588 282.177 125.588C280.365 125.588 278.896 127.062 278.896 128.875C278.896 128.917 278.896 128.963 278.901 129.005L267.646 132.646C265.896 128.365 261.693 125.349 256.781 125.349C250.844 125.349 245.943 129.755 245.156 135.479L235.641 134.88C235.396 131.526 232.594 128.875 229.172 128.875C225.589 128.875 222.682 131.781 222.682 135.365C222.682 138.948 225.589 141.854 229.172 141.854Z" fill="url(#paint3_linear_355_2)"/>
</g>
<mask id="mask3_355_2" style="mask-type:luminance" maskUnits="userSpaceOnUse" x="293" y="238" width="31" height="38">
<path d="M293.333 238.667H324V275.807H293.333V238.667Z" fill="white"/>
</mask>
<g mask="url(#mask3_355_2)">
<path d="M315.406 239.63C311.203 239.63 307.797 243.037 307.797 247.24C307.797 248.792 308.266 250.24 309.068 251.443L304.406 255.391C303.255 254.354 301.734 253.724 300.068 253.724C296.484 253.724 293.583 256.63 293.583 260.214C293.583 263.797 296.484 266.703 300.068 266.703C301.031 266.703 301.943 266.495 302.766 266.12L305.359 270.214C304.833 270.792 304.51 271.563 304.51 272.406C304.51 274.219 305.984 275.693 307.797 275.693C309.609 275.693 311.083 274.219 311.083 272.406C311.083 270.594 309.609 269.12 307.797 269.12C307.469 269.12 307.151 269.172 306.849 269.261L304.26 265.172C305.667 263.979 306.557 262.203 306.557 260.214C306.557 258.938 306.188 257.745 305.547 256.74L310.208 252.792C311.573 254.068 313.396 254.849 315.406 254.849C319.609 254.849 323.016 251.443 323.016 247.24C323.016 243.037 319.609 239.63 315.406 239.63Z" fill="#2093A3"/>
</g>
<path d="M245.042 227.141C242.49 227.141 240.234 228.396 238.854 230.323L232.234 226.661C232.917 225.177 233.302 223.521 233.302 221.776C233.302 218.266 231.76 215.115 229.318 212.963L234.573 205.995C236.401 207.172 238.578 207.854 240.911 207.854C247.396 207.854 252.651 202.599 252.651 196.115C252.651 189.635 247.396 184.38 240.911 184.38C234.427 184.38 229.172 189.635 229.172 196.115C229.172 199.625 230.719 202.776 233.161 204.927L227.901 211.896C226.073 210.724 223.901 210.036 221.563 210.036C215.078 210.036 209.823 215.292 209.823 221.776C209.823 228.26 215.078 233.516 221.563 233.516C225.667 233.516 229.281 231.406 231.38 228.213L238 231.87C237.635 232.76 237.432 233.734 237.432 234.75C237.432 238.958 240.839 242.365 245.042 242.365C249.245 242.365 252.651 238.958 252.651 234.75C252.651 230.552 249.245 227.141 245.042 227.141Z" fill="url(#paint4_linear_355_2)"/>
<path d="M282.177 239.63C278.911 239.63 276.125 241.688 275.047 244.578L265.99 242.354C265.932 240.589 264.49 239.177 262.714 239.177C262.661 239.177 262.62 239.182 262.568 239.182L255.255 216.854C256.13 216.266 256.714 215.26 256.714 214.125C256.714 212.313 255.245 210.839 253.427 210.839C251.615 210.839 250.146 212.313 250.146 214.125C250.146 215.938 251.615 217.412 253.427 217.412C253.474 217.412 253.521 217.406 253.573 217.401L260.885 239.734C260.01 240.318 259.427 241.323 259.427 242.458C259.427 244.276 260.896 245.745 262.714 245.745C263.937 245.745 265.01 245.073 265.573 244.073L274.63 246.297C274.589 246.604 274.568 246.917 274.568 247.24C274.568 251.443 277.974 254.849 282.177 254.849C286.38 254.849 289.786 251.443 289.786 247.24C289.786 243.037 286.38 239.63 282.177 239.63Z" fill="#2093A3"/>
<mask id="mask4_355_2" style="mask-type:luminance" maskUnits="userSpaceOnUse" x="293" y="225" width="14" height="10">
<path d="M293.75 225.333H306.385V234.307H293.75V225.333Z" fill="white"/>
</mask>
<g mask="url(#mask4_355_2)">
<path d="M303.922 226.594C303.672 226.505 303.411 226.427 303.135 226.359C303.12 226.521 303.089 226.677 303.052 226.828C303.266 226.88 303.474 226.943 303.667 227.005C303.75 226.875 303.833 226.74 303.922 226.594ZM305.885 227.807C305.755 227.958 305.63 228.099 305.51 228.24C305.599 228.401 305.651 228.573 305.651 228.75C305.651 229.948 303.38 230.932 300.516 231.005C300.396 231.01 300.276 231.01 300.156 231.01C300.125 231.01 300.099 231.01 300.068 231.01C297.073 230.99 294.661 229.984 294.661 228.75C294.661 228.349 294.911 227.974 295.349 227.651C295.318 227.505 295.292 227.349 295.266 227.193C294.323 227.781 293.755 228.568 293.755 229.479C293.755 231.922 295.063 233.125 297.016 233.693C297.068 234.198 298.453 234.599 300.156 234.599C301.859 234.599 303.245 234.198 303.297 233.693C305.25 233.125 306.557 231.922 306.557 229.479C306.557 228.854 306.323 228.292 305.885 227.807Z" fill="white"/>
</g>
<mask id="mask5_355_2" style="mask-type:luminance" maskUnits="userSpaceOnUse" x="300" y="224" width="7" height="7">
<path d="M300 224H306.385V230.667H300V224Z" fill="white"/>
</mask>
<g mask="url(#mask5_355_2)">
<path d="M306.375 226.651C304.979 228.125 304.229 229.068 303.703 230.016C302.943 230.302 302.005 230.484 300.99 230.552C301.036 230.495 301.089 230.443 301.151 230.396C302.63 229.281 303.417 228.401 304.974 225.62C305.135 225.328 305.438 225.172 305.74 225.172C305.922 225.172 306.104 225.224 306.26 225.339C306.688 225.651 306.74 226.266 306.375 226.651Z" fill="white"/>
</g>
<path d="M298.781 229.734C298.573 229.479 298.354 229.234 298.12 229C297.87 228.745 297.599 228.505 297.313 228.281C297.031 228.057 296.734 227.849 296.432 227.646L296.443 227.63C296.76 227.802 297.078 227.984 297.385 228.182C297.677 228.375 298.682 228.963 298.974 229.219C298.995 229.234 299.026 229.224 299.031 229.198C299.604 226.495 296.063 226.719 295.672 226.755C295.656 226.755 295.641 226.771 295.641 226.792C296.062 230.489 298.187 229.995 298.766 229.792C298.786 229.781 298.797 229.755 298.781 229.734Z" fill="white"/>
<mask id="mask6_355_2" style="mask-type:luminance" maskUnits="userSpaceOnUse" x="298" y="222" width="6" height="8">
<path d="M298.667 222.823H304V229.333H298.667V222.823Z" fill="white"/>
</mask>
<g mask="url(#mask6_355_2)">
<path d="M302.042 222.849C302.036 222.828 302.016 222.823 301.995 222.833C297.563 225.281 298.958 227.693 299.62 228.495C299.635 228.516 299.667 228.516 299.677 228.495C299.906 228.094 300.12 227.693 300.318 227.292C300.776 226.365 301.151 225.417 301.5 224.469C301.505 224.453 301.516 224.448 301.531 224.448H301.547C301.568 224.448 301.583 224.469 301.578 224.49C301.38 225.448 301.151 226.401 300.833 227.354C300.688 227.792 300.531 228.224 300.354 228.656C300.344 228.682 300.365 228.708 300.391 228.703C304.25 227.937 302.245 223.286 302.042 222.849Z" fill="white"/>
</g>
<path d="M300.141 228.302C300.125 228.625 300.104 228.958 300.031 229.276C299.995 229.453 299.938 229.63 299.891 229.807C299.823 230.057 299.766 230.312 299.724 230.568C299.536 230.562 299.349 230.552 299.167 230.536C299.177 230.469 299.182 230.396 299.177 230.323C299.161 230.219 299.125 230.114 299.083 230.021C298.958 229.745 298.786 229.484 298.578 229.26C298.552 229.234 298.589 229.187 298.62 229.208C298.714 229.26 298.807 229.318 298.896 229.375C298.938 229.406 298.979 229.432 299.021 229.469C299.125 229.557 299.208 229.667 299.286 229.781C299.302 229.807 299.333 229.802 299.344 229.776C299.536 229.25 299.781 228.75 300.078 228.281C300.094 228.25 300.141 228.266 300.141 228.302Z" fill="white"/>
<mask id="mask7_355_2" style="mask-type:luminance" maskUnits="userSpaceOnUse" x="214" y="216" width="9" height="11">
<path d="M214.667 216.667H222.667V226.667H214.667V216.667Z" fill="white"/>
</mask>
<g mask="url(#mask7_355_2)">
<path d="M217.495 220.891C220.359 222.422 221.437 224.432 221.839 225.573C221.792 224.375 221.458 222.188 219.833 220.302C218.443 218.688 216.641 218.318 215.792 216.667C215.792 216.667 214.193 220.021 215.5 222.802C216.609 225.167 218.422 226.412 221.573 226.474C221.521 226.151 220.958 223.292 217.266 221.323C217.151 221.26 217.104 221.109 217.167 220.995C217.229 220.875 217.375 220.828 217.495 220.891Z" fill="white"/>
</g>
<mask id="mask8_355_2" style="mask-type:luminance" maskUnits="userSpaceOnUse" x="222" y="221" width="6" height="6">
<path d="M222.667 221.333H227.974V226.667H222.667V221.333Z" fill="white"/>
</mask>
<g mask="url(#mask8_355_2)">
<path d="M227.417 221.766C226.693 221.766 225.646 221.927 224.536 222.62C222.99 223.589 222.875 225.286 222.917 226.063C223.38 225.302 224.734 223.323 226.521 222.885C226.651 222.854 226.781 222.932 226.812 223.063C226.849 223.193 226.766 223.328 226.635 223.359C224.844 223.797 223.448 226.115 223.208 226.526C223.698 226.62 224.13 226.661 224.521 226.661C226.307 226.661 227.125 225.734 227.479 224.266C227.88 222.589 228.432 221.885 228.432 221.885C228.432 221.885 228.042 221.766 227.417 221.766Z" fill="white"/>
</g>
<mask id="mask9_355_2" style="mask-type:luminance" maskUnits="userSpaceOnUse" x="302" y="135" width="12" height="18">
<path d="M302.052 135.047H313.536V152.276H302.052V135.047Z" fill="white"/>
</mask>
<g mask="url(#mask9_355_2)">
<path d="M305.802 150.396C306.432 150.667 307.161 150.99 307.885 151.312C308.729 150.937 309.438 150.63 310.01 150.38C309.875 149.917 309.625 148.859 309.5 148.151C309.438 147.786 309.479 147.443 309.63 147.109C310.76 144.62 311.12 143.026 311.089 140.797C310.552 139.146 309.229 137.859 308.406 136.5C308.193 136.146 308.042 135.396 307.911 135.068C307.776 135.396 307.625 136.146 307.411 136.5C306.589 137.859 305.266 139.146 304.729 140.797C304.698 143.026 305.063 144.62 306.188 147.109C306.339 147.443 306.38 147.792 306.318 148.151C306.193 148.865 305.938 149.932 305.802 150.396ZM305.948 141.115C306.484 139.901 307.521 137.719 307.911 136.646C307.885 136.667 307.896 136.156 307.911 136.146C307.922 136.156 307.932 136.667 307.911 136.646C308.297 137.719 309.333 139.901 309.87 141.115C309.87 141.115 310.141 144.677 307.891 144.677C305.641 144.677 305.948 141.115 305.948 141.115ZM313.75 150.568C313.734 150.974 313.036 151.646 311.099 152.234C310.875 152.302 310.63 152.365 310.354 152.422L310.255 152.38C309.99 152.26 309.688 152.12 309.365 151.979C308.979 151.802 308.568 151.62 308.151 151.432C308.896 151.099 309.542 150.818 310.073 150.588C311.052 150.172 311.656 149.932 311.839 149.896C313.047 149.646 313.641 150.156 313.75 150.568ZM309.12 152.104C309.401 152.229 309.667 152.349 309.906 152.458C309.708 152.5 309.505 152.531 309.302 152.557C309.208 152.568 309.109 152.578 309.005 152.583C308.88 152.594 308.745 152.604 308.604 152.609C307.51 152.672 306.042 152.604 304.703 152.234C302.885 151.734 302.068 151.042 302.052 150.568C302.161 150.156 302.755 149.646 303.964 149.896C304.167 149.937 304.859 150.224 305.74 150.599C306.313 150.849 306.969 151.141 307.62 151.432C307.667 151.448 307.708 151.469 307.755 151.49L307.885 151.547C308.313 151.74 308.729 151.927 309.12 152.104ZM306.76 143.797C306.661 143.646 306.594 143.479 306.563 143.302C306.526 143.125 306.531 142.948 306.568 142.766C306.604 142.588 306.672 142.427 306.776 142.276C306.88 142.125 307.005 142 307.156 141.901C307.307 141.802 307.474 141.734 307.656 141.703C307.833 141.667 308.01 141.667 308.188 141.703C308.365 141.745 308.531 141.812 308.682 141.917C308.833 142.016 308.958 142.146 309.057 142.297C309.156 142.448 309.224 142.615 309.255 142.792C309.292 142.974 309.286 143.151 309.25 143.328C309.214 143.505 309.146 143.672 309.042 143.818C308.938 143.969 308.813 144.094 308.661 144.193C308.51 144.297 308.344 144.359 308.167 144.396C307.984 144.427 307.807 144.427 307.63 144.391C307.453 144.354 307.286 144.281 307.135 144.182C306.984 144.078 306.859 143.953 306.76 143.797Z" fill="white"/>
</g>
<mask id="mask10_355_2" style="mask-type:luminance" maskUnits="userSpaceOnUse" x="200" y="137" width="10" height="10">
<path d="M200.984 137.432H209.333V146.667H200.984V137.432Z" fill="white"/>
</mask>
<g mask="url(#mask10_355_2)">
<path d="M203.927 144.599C205.172 145.286 206.651 145.344 207.104 145.344C207.188 145.344 207.234 145.339 207.245 145.339C207.443 145.333 207.599 145.167 207.589 144.969C207.583 144.771 207.417 144.615 207.214 144.62C207.198 144.62 205.563 144.677 204.276 143.969C203.042 143.292 202.885 142.224 202.823 141.766C202.734 141.151 202.505 139.896 202.031 139.172C203.177 139.172 205.604 139.724 206.927 144.104C206.958 144.208 207.052 144.276 207.156 144.276C207.182 144.276 207.203 144.271 207.229 144.266C207.354 144.229 207.427 144.094 207.385 143.969C206.417 140.755 204.823 139.51 203.661 139.031C203.51 138.969 203.359 138.917 203.214 138.875C203.964 138.802 204.875 138.88 205.786 139.359C207.823 140.443 207.786 141.281 207.714 143.12L207.708 143.255C207.698 143.453 207.854 143.62 208.052 143.63C208.255 143.641 208.417 143.484 208.427 143.286L208.432 143.146C208.51 141.266 208.563 140.016 206.12 138.724C203.688 137.432 201.292 138.63 201.193 138.682C201.068 138.745 200.99 138.875 200.995 139.016C201 139.156 201.089 139.281 201.219 139.333C201.536 139.458 201.927 140.573 202.109 141.87C202.182 142.38 202.38 143.75 203.927 144.599Z" fill="white"/>
</g>
<mask id="mask11_355_2" style="mask-type:luminance" maskUnits="userSpaceOnUse" x="206" y="140" width="10" height="8">
<path d="M206.667 140H215.917V148H206.667V140Z" fill="white"/>
</mask>
<g mask="url(#mask11_355_2)">
<path d="M215.229 142.219C213.839 141.089 211.344 140.849 209.583 142.401C207.177 144.536 207.693 147.057 207.714 147.161C207.76 147.359 207.948 147.479 208.141 147.438C208.333 147.396 208.458 147.208 208.417 147.01C208.401 146.922 207.979 144.786 210.063 142.943C211.156 141.974 212.63 141.849 213.781 142.24C209.865 142.479 208.766 145.708 208.755 145.745C208.714 145.87 208.786 146.005 208.911 146.047C208.938 146.052 208.958 146.057 208.984 146.057C209.083 146.057 209.177 145.995 209.214 145.891C209.224 145.859 210.271 142.776 214.115 142.703C213.714 143.042 213.24 143.51 213.01 144.016C212.943 144.156 212.885 144.297 212.823 144.432C212.156 145.943 211.677 147.031 208.964 147.182C208.766 147.193 208.615 147.365 208.625 147.563C208.635 147.75 208.797 147.901 208.984 147.901C208.99 147.901 209 147.901 209.005 147.901C212.156 147.724 212.797 146.266 213.479 144.724C213.542 144.589 213.599 144.453 213.661 144.318C214.016 143.547 215.182 142.813 215.193 142.802C215.292 142.74 215.354 142.635 215.365 142.521C215.37 142.406 215.323 142.292 215.229 142.219Z" fill="white"/>
</g>
<mask id="mask12_355_2" style="mask-type:luminance" maskUnits="userSpaceOnUse" x="202" y="146" width="8" height="5">
<path d="M202.667 146.667H209.333V150.068H202.667V146.667Z" fill="white"/>
</mask>
<g mask="url(#mask12_355_2)">
<path d="M206.474 146.917C204.865 146.37 202.99 147.339 202.911 147.38C202.854 147.411 202.807 147.469 202.792 147.531C202.776 147.594 202.786 147.667 202.818 147.719C202.849 147.771 203.557 148.901 204.448 149.339C205.432 149.823 206.214 149.786 206.781 149.755C207.391 149.729 207.552 149.734 207.661 150.125C207.687 150.234 207.786 150.302 207.891 150.302C207.911 150.302 207.932 150.302 207.953 150.297C208.083 150.26 208.156 150.13 208.12 150C207.911 149.224 207.354 149.25 206.76 149.276C206.214 149.307 205.531 149.339 204.656 148.911C204.109 148.641 203.62 148.026 203.38 147.693C203.911 147.464 205.219 146.995 206.318 147.37C207.677 147.828 207.823 149.094 207.828 149.146C207.844 149.281 207.958 149.375 208.089 149.365C208.224 149.349 208.318 149.234 208.307 149.099C208.297 149.036 208.13 147.479 206.474 146.917Z" fill="white"/>
</g>
<mask id="mask13_355_2" style="mask-type:luminance" maskUnits="userSpaceOnUse" x="308" y="185" width="8" height="7">
<path d="M308 185.333H315.188V191.969H308V185.333Z" fill="white"/>
</mask>
<g mask="url(#mask13_355_2)">
<path fill-rule="evenodd" clip-rule="evenodd" d="M314.594 188.63L311.542 185.573L308.49 188.625L311.547 191.677C312.385 192.515 313.755 192.515 314.594 191.677C315.432 190.838 315.432 189.469 314.594 188.63ZM311.958 186.776L314.203 189.021C314.729 189.542 314.813 190.349 314.453 190.963C314.807 189.51 313.526 188.734 311.958 186.776Z" fill="white"/>
</g>
<mask id="mask14_355_2" style="mask-type:luminance" maskUnits="userSpaceOnUse" x="306" y="178" width="4" height="5">
<path d="M306.667 178.182H309.333V182.667H306.667V178.182Z" fill="white"/>
</mask>
<g mask="url(#mask14_355_2)">
<path fill-rule="evenodd" clip-rule="evenodd" d="M307.74 181.385C308.167 180.964 308.406 180.385 308.406 179.786C308.406 179.182 308.167 178.609 307.74 178.188C307.312 178.609 307.073 179.182 307.073 179.786C307.073 180.385 307.312 180.964 307.74 181.385Z" fill="white"/>
</g>
<path fill-rule="evenodd" clip-rule="evenodd" d="M307.521 183.078C306.922 183.083 306.344 182.844 305.917 182.422C305.495 181.995 305.255 181.417 305.26 180.818C305.859 180.813 306.438 181.052 306.865 181.474C307.286 181.901 307.526 182.479 307.521 183.078ZM307.958 183.078C308.563 183.083 309.135 182.844 309.563 182.422C309.99 181.995 310.224 181.417 310.219 180.818C309.62 180.813 309.042 181.052 308.615 181.474C308.193 181.901 307.953 182.479 307.958 183.078Z" fill="white"/>
<path fill-rule="evenodd" clip-rule="evenodd" d="M308.141 185.969C308.932 185.974 309.698 185.662 310.255 185.099C310.818 184.537 311.13 183.776 311.125 182.984C310.333 182.979 309.568 183.292 309.01 183.849C308.448 184.412 308.135 185.172 308.141 185.969Z" fill="white"/>
<path fill-rule="evenodd" clip-rule="evenodd" d="M307.339 185.969C306.547 185.974 305.781 185.662 305.224 185.099C304.661 184.537 304.349 183.776 304.354 182.984C305.146 182.979 305.911 183.292 306.469 183.849C307.031 184.412 307.344 185.172 307.339 185.969Z" fill="white"/>
<mask id="mask15_355_2" style="mask-type:luminance" maskUnits="userSpaceOnUse" x="300" y="185" width="8" height="7">
<path d="M300.255 185.333H308V191.969H300.255V185.333Z" fill="white"/>
</mask>
<g mask="url(#mask15_355_2)">
<path fill-rule="evenodd" clip-rule="evenodd" d="M300.885 188.63L303.937 185.573L306.99 188.625L303.932 191.677C303.094 192.515 301.724 192.515 300.885 191.677C300.047 190.838 300.047 189.469 300.885 188.63ZM303.521 186.776L301.276 189.021C300.75 189.542 300.667 190.349 301.026 190.963C300.672 189.51 301.953 188.734 303.521 186.776Z" fill="white"/>
</g>
<path d="M256.599 132.708C254.328 132.708 252.474 134.562 252.474 136.833C252.474 139.109 254.328 140.963 256.599 140.963C258.875 140.963 260.729 139.109 260.729 136.833C260.729 134.562 258.875 132.708 256.599 132.708ZM256.599 140.135C254.781 140.135 253.297 138.656 253.297 136.833C253.297 135.016 254.781 133.536 256.599 133.536C258.422 133.536 259.901 135.016 259.901 136.833C259.901 138.656 258.422 140.135 256.599 140.135Z" fill="white"/>
<mask id="mask16_355_2" style="mask-type:luminance" maskUnits="userSpaceOnUse" x="256" y="130" width="2" height="2">
<path d="M256 130.234H257.333V132H256V130.234Z" fill="white"/>
</mask>
<g mask="url(#mask16_355_2)">
<path d="M256.599 131.885C256.828 131.885 257.016 131.698 257.016 131.474V130.646C257.016 130.422 256.828 130.234 256.599 130.234C256.37 130.234 256.188 130.422 256.188 130.646V131.474C256.188 131.703 256.375 131.885 256.599 131.885Z" fill="white"/>
</g>
<path d="M253.563 132.396C253.635 132.531 253.776 132.604 253.922 132.604C253.99 132.604 254.063 132.588 254.125 132.547C254.323 132.437 254.391 132.182 254.276 131.984L253.865 131.271C253.75 131.073 253.495 131.005 253.297 131.12C253.104 131.234 253.036 131.49 253.146 131.682L253.563 132.396Z" fill="white"/>
<path d="M252.161 133.797L251.448 133.385C251.25 133.271 251 133.338 250.885 133.536C250.771 133.729 250.839 133.984 251.036 134.099L251.75 134.51C251.818 134.547 251.885 134.568 251.953 134.568C252.099 134.568 252.24 134.49 252.312 134.359C252.427 134.161 252.359 133.911 252.161 133.797Z" fill="white"/>
<mask id="mask17_355_2" style="mask-type:luminance" maskUnits="userSpaceOnUse" x="250" y="136" width="2" height="2">
<path d="M250 136H252V137.333H250V136Z" fill="white"/>
</mask>
<g mask="url(#mask17_355_2)">
<path d="M251.651 136.833C251.651 136.609 251.464 136.422 251.234 136.422H250.411C250.187 136.422 250 136.609 250 136.833C250 137.063 250.187 137.25 250.411 137.25H251.24C251.464 137.25 251.651 137.068 251.651 136.833Z" fill="white"/>
</g>
<path d="M251.75 139.161L251.036 139.573C250.839 139.688 250.771 139.943 250.885 140.135C250.964 140.271 251.099 140.344 251.245 140.344C251.312 140.344 251.385 140.323 251.448 140.286L252.161 139.875C252.359 139.76 252.427 139.51 252.312 139.313C252.198 139.115 251.948 139.047 251.75 139.161Z" fill="white"/>
<path d="M254.125 141.125C253.927 141.011 253.677 141.078 253.562 141.276L253.151 141.99C253.036 142.188 253.104 142.438 253.302 142.552C253.365 142.589 253.437 142.609 253.505 142.609C253.651 142.609 253.786 142.537 253.865 142.401L254.276 141.688C254.391 141.49 254.323 141.24 254.125 141.125Z" fill="white"/>
<mask id="mask18_355_2" style="mask-type:luminance" maskUnits="userSpaceOnUse" x="256" y="141" width="2" height="3">
<path d="M256 141.333H257.333V143.234H256V141.333Z" fill="white"/>
</mask>
<g mask="url(#mask18_355_2)">
<path d="M256.599 141.786C256.375 141.786 256.188 141.974 256.188 142.198V143.026C256.188 143.255 256.375 143.437 256.599 143.437C256.828 143.437 257.016 143.255 257.016 143.026V142.198C257.016 141.974 256.828 141.786 256.599 141.786Z" fill="white"/>
</g>
<path d="M259.641 141.276C259.526 141.078 259.271 141.011 259.078 141.125C258.88 141.24 258.813 141.49 258.927 141.688L259.339 142.401C259.417 142.537 259.552 142.609 259.698 142.609C259.766 142.609 259.839 142.589 259.901 142.552C260.099 142.438 260.167 142.188 260.052 141.99L259.641 141.276Z" fill="white"/>
<path d="M262.167 139.573L261.453 139.161C261.255 139.047 261.005 139.115 260.891 139.313C260.776 139.51 260.844 139.76 261.042 139.875L261.755 140.286C261.818 140.323 261.891 140.344 261.958 140.344C262.104 140.344 262.24 140.266 262.318 140.135C262.432 139.943 262.365 139.688 262.167 139.573Z" fill="white"/>
<mask id="mask19_355_2" style="mask-type:luminance" maskUnits="userSpaceOnUse" x="261" y="136" width="2" height="2">
<path d="M261.333 136H263V137.333H261.333V136Z" fill="white"/>
</mask>
<g mask="url(#mask19_355_2)">
<path d="M262.792 136.422H261.964C261.74 136.422 261.552 136.609 261.552 136.833C261.552 137.063 261.74 137.25 261.964 137.25H262.792C263.016 137.25 263.203 137.063 263.203 136.833C263.203 136.609 263.016 136.422 262.792 136.422Z" fill="white"/>
</g>
<path d="M261.245 134.568C261.318 134.568 261.385 134.552 261.453 134.516L262.167 134.099C262.359 133.984 262.427 133.734 262.318 133.536C262.203 133.338 261.948 133.271 261.75 133.385L261.042 133.797C260.844 133.911 260.776 134.161 260.891 134.359C260.964 134.495 261.104 134.568 261.245 134.568Z" fill="white"/>
<path d="M259.078 132.547C259.141 132.588 259.214 132.604 259.281 132.604C259.422 132.604 259.563 132.531 259.641 132.396L260.052 131.682C260.167 131.49 260.099 131.234 259.901 131.12C259.703 131.005 259.453 131.073 259.339 131.271L258.927 131.984C258.813 132.182 258.88 132.437 259.078 132.547Z" fill="white"/>
<mask id="mask20_355_2" style="mask-type:luminance" maskUnits="userSpaceOnUse" x="196" y="187" width="13" height="13">
<path d="M196.797 187.573H208.797V199.573H196.797V187.573Z" fill="white"/>
</mask>
<g mask="url(#mask20_355_2)">
<path d="M203.135 199.51H202.391C202.141 199.51 201.906 199.464 201.677 199.365C201.448 199.271 201.245 199.135 201.073 198.964C200.896 198.787 200.76 198.583 200.667 198.359C200.573 198.13 200.526 197.891 200.526 197.646V195.776H198.661C198.411 195.776 198.177 195.729 197.948 195.635C197.719 195.542 197.516 195.406 197.344 195.229C197.167 195.057 197.031 194.854 196.938 194.625C196.844 194.396 196.797 194.162 196.797 193.912V193.167C196.797 192.922 196.844 192.682 196.938 192.453C197.031 192.224 197.167 192.026 197.344 191.849C197.516 191.672 197.719 191.542 197.948 191.443C198.177 191.349 198.411 191.302 198.661 191.302H200.526V189.438C200.526 189.188 200.573 188.953 200.667 188.724C200.76 188.495 200.896 188.292 201.073 188.12C201.245 187.943 201.448 187.807 201.677 187.714C201.906 187.62 202.141 187.573 202.391 187.573H203.135C203.469 187.573 203.781 187.656 204.068 187.823C204.271 187.948 204.313 188.115 204.193 188.323C204.073 188.531 203.906 188.578 203.698 188.469C203.521 188.365 203.339 188.318 203.135 188.318H202.391C202.083 188.318 201.818 188.427 201.599 188.646C201.38 188.865 201.271 189.13 201.271 189.438V191.677C201.271 191.776 201.234 191.865 201.161 191.938C201.089 192.01 201 192.047 200.896 192.047H198.661C198.349 192.047 198.089 192.156 197.87 192.375C197.651 192.594 197.542 192.859 197.542 193.167V193.912C197.542 194.224 197.651 194.484 197.87 194.703C198.089 194.922 198.349 195.031 198.661 195.031H200.896C201 195.031 201.089 195.068 201.161 195.141C201.234 195.214 201.271 195.302 201.271 195.406V197.646C201.271 197.953 201.38 198.219 201.599 198.438C201.818 198.651 202.083 198.76 202.391 198.76H203.135C203.443 198.76 203.708 198.651 203.927 198.438C204.146 198.219 204.255 197.953 204.255 197.646V195.406C204.255 195.302 204.292 195.214 204.365 195.141C204.437 195.068 204.526 195.031 204.63 195.031H206.865C207.177 195.031 207.437 194.922 207.656 194.703C207.875 194.484 207.984 194.224 207.984 193.912V193.167C207.984 192.969 207.938 192.781 207.839 192.609C207.724 192.396 207.776 192.229 207.979 192.109C208.188 191.995 208.354 192.031 208.484 192.234C208.651 192.521 208.734 192.833 208.734 193.167V193.912C208.729 194.162 208.682 194.396 208.589 194.625C208.495 194.854 208.359 195.057 208.182 195.229C208.01 195.406 207.807 195.542 207.578 195.635C207.354 195.729 207.115 195.776 206.865 195.776H205V197.646C205 197.891 204.953 198.13 204.859 198.359C204.766 198.583 204.63 198.787 204.453 198.964C204.281 199.135 204.078 199.271 203.849 199.365C203.62 199.464 203.385 199.51 203.135 199.51Z" fill="white"/>
</g>
<path d="M205 193.542C204.927 193.542 204.859 193.521 204.797 193.479C204.547 193.313 202.391 191.839 202.391 190.557C202.391 190.245 202.479 189.964 202.656 189.708C202.833 189.453 203.063 189.271 203.354 189.161C203.646 189.052 203.943 189.036 204.24 189.109C204.542 189.182 204.797 189.339 205 189.568C205.208 189.339 205.458 189.182 205.76 189.109C206.063 189.036 206.359 189.052 206.646 189.161C206.938 189.271 207.172 189.453 207.349 189.708C207.526 189.964 207.615 190.245 207.615 190.557C207.615 191.839 205.453 193.313 205.208 193.479C205.146 193.521 205.078 193.542 205 193.542ZM203.88 189.807C203.677 189.807 203.5 189.88 203.354 190.026C203.208 190.172 203.135 190.349 203.135 190.557C203.135 191.141 204.167 192.115 205 192.714C205.797 192.146 206.865 191.167 206.865 190.557C206.865 190.349 206.792 190.172 206.646 190.026C206.5 189.88 206.328 189.807 206.12 189.807C205.917 189.807 205.74 189.88 205.594 190.026C205.448 190.172 205.375 190.349 205.375 190.557C205.375 190.656 205.339 190.745 205.266 190.818C205.193 190.891 205.104 190.927 205 190.927C204.896 190.927 204.812 190.891 204.74 190.818C204.667 190.745 204.63 190.656 204.63 190.557C204.63 190.349 204.557 190.172 204.411 190.026C204.266 189.88 204.089 189.807 203.88 189.807Z" fill="white"/>
<path d="M138.797 320.66L142.214 311.327H144.131L147.547 320.66H145.735L144.985 318.493H141.339L140.568 320.66H138.797ZM141.797 317.16H144.506L143.151 313.285L141.797 317.16Z" fill="#2093A3"/>
<path d="M153.66 320.66V317.347L150.535 311.327H152.473L154.535 315.639L156.598 311.327H158.494L155.369 317.347V320.66H153.66Z" fill="#2093A3"/>
<path d="M165.698 320.827C165.016 320.827 164.396 320.691 163.844 320.431C163.302 320.155 162.865 319.738 162.531 319.181C162.208 318.629 162.052 317.926 162.052 317.077V311.327H163.76V317.097C163.76 317.837 163.932 318.384 164.281 318.743C164.625 319.092 165.115 319.264 165.74 319.264C166.349 319.264 166.833 319.092 167.198 318.743C167.557 318.384 167.74 317.837 167.74 317.097V311.327H169.448V317.077C169.448 317.926 169.271 318.629 168.927 319.181C168.594 319.738 168.141 320.155 167.573 320.431C167.016 320.691 166.391 320.827 165.698 320.827Z" fill="#2093A3"/>
<path d="M173.711 320.66V311.327H177.128C177.878 311.327 178.492 311.452 178.982 311.702C179.466 311.952 179.826 312.301 180.065 312.743C180.3 313.176 180.419 313.65 180.419 314.16C180.419 314.733 180.263 315.254 179.961 315.722C179.669 316.196 179.211 316.535 178.586 316.743L180.523 320.66H178.544L176.815 316.972H175.398V320.66H173.711ZM175.398 315.722H177.023C177.591 315.722 178.008 315.592 178.273 315.327C178.534 315.051 178.669 314.681 178.669 314.222C178.669 313.78 178.534 313.426 178.273 313.16C178.008 312.884 177.586 312.743 177.003 312.743H175.398V315.722Z" fill="#2093A3"/>
<path d="M187.222 320.66L183.826 311.327H185.639L188.284 318.91L190.93 311.327H192.743L189.326 320.66H187.222Z" fill="#2093A3"/>
<path d="M196.371 320.66V311.327H202.454V312.702H198.058V315.264H202.058V316.597H198.058V319.285H202.454V320.66H196.371Z" fill="#2093A3"/>
<path d="M206.594 320.66V311.327H209.761C210.855 311.327 211.761 311.525 212.469 311.91C213.178 312.301 213.699 312.842 214.032 313.535C214.376 314.233 214.553 315.051 214.553 315.993C214.553 316.941 214.376 317.759 214.032 318.452C213.699 319.15 213.178 319.691 212.469 320.077C211.761 320.467 210.855 320.66 209.761 320.66H206.594ZM208.282 319.202H209.699C210.475 319.202 211.084 319.077 211.532 318.827C211.99 318.566 212.313 318.196 212.511 317.722C212.704 317.254 212.803 316.676 212.803 315.993C212.803 315.327 212.704 314.759 212.511 314.285C212.313 313.801 211.99 313.431 211.532 313.181C211.084 312.92 210.475 312.785 209.699 312.785H208.282V319.202Z" fill="#2093A3"/>
<path d="M218.591 320.66V311.327H220.278V320.66H218.591Z" fill="#2093A3"/>
<path d="M228.838 320.827C227.905 320.827 227.098 320.629 226.421 320.222C225.739 319.806 225.218 319.238 224.858 318.514C224.494 317.795 224.317 316.962 224.317 316.014C224.317 315.056 224.494 314.217 224.858 313.493C225.218 312.759 225.739 312.191 226.421 311.785C227.098 311.368 227.905 311.16 228.838 311.16C229.963 311.16 230.879 311.441 231.588 311.993C232.306 312.551 232.759 313.337 232.942 314.347H231.067C230.942 313.837 230.692 313.441 230.317 313.16C229.942 312.868 229.442 312.722 228.817 312.722C227.952 312.722 227.28 313.014 226.796 313.597C226.306 314.181 226.067 314.988 226.067 316.014C226.067 317.03 226.306 317.827 226.796 318.41C227.28 318.993 227.952 319.285 228.817 319.285C229.442 319.285 229.942 319.155 230.317 318.889C230.692 318.613 230.942 318.233 231.067 317.743H232.942C232.759 318.717 232.306 319.472 231.588 320.014C230.879 320.556 229.963 320.827 228.838 320.827Z" fill="#2093A3"/>
<path d="M242.664 320.66V311.327H244.352L248.748 317.91V311.327H250.456V320.66H248.748L244.352 314.097V320.66H242.664Z" fill="#2093A3"/>
<path d="M254.794 320.66V311.327H260.877V312.702H256.481V315.264H260.481V316.597H256.481V319.285H260.877V320.66H254.794Z" fill="#2093A3"/>
<path d="M268.601 320.827C267.918 320.827 267.299 320.691 266.747 320.431C266.205 320.155 265.767 319.738 265.434 319.181C265.111 318.629 264.955 317.926 264.955 317.077V311.327H266.663V317.097C266.663 317.837 266.835 318.384 267.184 318.743C267.528 319.092 268.017 319.264 268.642 319.264C269.252 319.264 269.736 319.092 270.101 318.743C270.46 318.384 270.642 317.837 270.642 317.097V311.327H272.351V317.077C272.351 317.926 272.174 318.629 271.83 319.181C271.497 319.738 271.043 320.155 270.476 320.431C269.918 320.691 269.293 320.827 268.601 320.827Z" fill="#2093A3"/>
<path d="M276.614 320.66V311.327H280.03C280.78 311.327 281.395 311.452 281.885 311.702C282.369 311.952 282.728 312.301 282.968 312.743C283.202 313.176 283.322 313.65 283.322 314.16C283.322 314.733 283.166 315.254 282.864 315.722C282.572 316.196 282.114 316.535 281.489 316.743L283.426 320.66H281.447L279.718 316.972H278.301V320.66H276.614ZM278.301 315.722H279.926C280.494 315.722 280.911 315.592 281.176 315.327C281.437 315.051 281.572 314.681 281.572 314.222C281.572 313.78 281.437 313.426 281.176 313.16C280.911 312.884 280.489 312.743 279.905 312.743H278.301V315.722Z" fill="#2093A3"/>
<path d="M291.791 320.827C290.859 320.827 290.047 320.629 289.354 320.222C288.656 319.806 288.109 319.238 287.708 318.514C287.317 317.78 287.125 316.941 287.125 315.993C287.125 315.051 287.317 314.217 287.708 313.493C288.109 312.759 288.656 312.191 289.354 311.785C290.047 311.368 290.859 311.16 291.791 311.16C292.718 311.16 293.531 311.368 294.229 311.785C294.937 312.191 295.484 312.759 295.875 313.493C296.26 314.217 296.458 315.051 296.458 315.993C296.458 316.941 296.26 317.78 295.875 318.514C295.484 319.238 294.937 319.806 294.229 320.222C293.531 320.629 292.718 320.827 291.791 320.827ZM291.791 319.285C292.677 319.285 293.385 318.993 293.916 318.41C294.458 317.827 294.729 317.024 294.729 315.993C294.729 314.967 294.458 314.16 293.916 313.577C293.385 312.993 292.677 312.702 291.791 312.702C290.901 312.702 290.192 312.993 289.666 313.577C289.135 314.16 288.875 314.967 288.875 315.993C288.875 317.024 289.135 317.827 289.666 318.41C290.192 318.993 290.901 319.285 291.791 319.285Z" fill="#2093A3"/>
<path d="M310.4 320.827C309.468 320.827 308.661 320.629 307.984 320.222C307.301 319.806 306.78 319.238 306.421 318.514C306.056 317.795 305.879 316.962 305.879 316.014C305.879 315.056 306.056 314.217 306.421 313.493C306.78 312.759 307.301 312.191 307.984 311.785C308.661 311.368 309.468 311.16 310.4 311.16C311.525 311.16 312.442 311.441 313.15 311.993C313.869 312.551 314.322 313.337 314.504 314.347H312.629C312.504 313.837 312.254 313.441 311.879 313.16C311.504 312.868 311.004 312.722 310.379 312.722C309.515 312.722 308.843 313.014 308.359 313.597C307.869 314.181 307.629 314.988 307.629 316.014C307.629 317.03 307.869 317.827 308.359 318.41C308.843 318.993 309.515 319.285 310.379 319.285C311.004 319.285 311.504 319.155 311.879 318.889C312.254 318.613 312.504 318.233 312.629 317.743H314.504C314.322 318.717 313.869 319.472 313.15 320.014C312.442 320.556 311.525 320.827 310.4 320.827Z" fill="#2093A3"/>
<path d="M318.535 320.66V311.327H320.222V319.327H324.368V320.66H318.535Z" fill="#2093A3"/>
<path d="M328.398 320.66V311.327H330.086V320.66H328.398Z" fill="#2093A3"/>
<path d="M334.437 320.66V311.327H336.125L340.52 317.91V311.327H342.229V320.66H340.52L336.125 314.097V320.66H334.437Z" fill="#2093A3"/>
<path d="M346.567 320.66V311.327H348.254V320.66H346.567Z" fill="#2093A3"/>
<path d="M356.814 320.827C355.881 320.827 355.074 320.629 354.397 320.222C353.715 319.806 353.194 319.238 352.834 318.514C352.47 317.795 352.293 316.962 352.293 316.014C352.293 315.056 352.47 314.217 352.834 313.493C353.194 312.759 353.715 312.191 354.397 311.785C355.074 311.368 355.881 311.16 356.814 311.16C357.939 311.16 358.855 311.441 359.564 311.993C360.282 312.551 360.735 313.337 360.918 314.347H359.043C358.918 313.837 358.668 313.441 358.293 313.16C357.918 312.868 357.418 312.722 356.793 312.722C355.928 312.722 355.256 313.014 354.772 313.597C354.282 314.181 354.043 314.988 354.043 316.014C354.043 317.03 354.282 317.827 354.772 318.41C355.256 318.993 355.928 319.285 356.793 319.285C357.418 319.285 357.918 319.155 358.293 318.889C358.668 318.613 358.918 318.233 359.043 317.743H360.918C360.735 318.717 360.282 319.472 359.564 320.014C358.855 320.556 357.939 320.827 356.814 320.827Z" fill="#2093A3"/>
<defs>
<linearGradient id="paint0_linear_355_2" x1="314.268" y1="132.411" x2="314.268" y2="171.115" gradientUnits="userSpaceOnUse">
<stop stop-color="#166849"/>
<stop offset="1" stop-color="#13577A"/>
</linearGradient>
<linearGradient id="paint1_linear_355_2" x1="287.26" y1="217.411" x2="287.26" y2="250.229" gradientUnits="userSpaceOnUse">
<stop stop-color="#166849"/>
<stop offset="1" stop-color="#13577A"/>
</linearGradient>
<linearGradient id="paint2_linear_355_2" x1="179.633" y1="151.469" x2="179.633" y2="197.479" gradientUnits="userSpaceOnUse">
<stop stop-color="#166849"/>
<stop offset="1" stop-color="#13577A"/>
</linearGradient>
<linearGradient id="paint3_linear_355_2" x1="254.073" y1="125.349" x2="254.073" y2="148.828" gradientUnits="userSpaceOnUse">
<stop stop-color="#166849"/>
<stop offset="1" stop-color="#13577A"/>
</linearGradient>
<linearGradient id="paint4_linear_355_2" x1="231.237" y1="184.38" x2="231.237" y2="242.365" gradientUnits="userSpaceOnUse">
<stop stop-color="#166849"/>
<stop offset="1" stop-color="#13577A"/>
</linearGradient>
</defs>
</svg>
