<svg width="290" height="196" viewBox="0 0 223 196" fill="none" xmlns="http://www.w3.org/2000/svg">
<path d="M154.786 40.302C156.599 40.302 158.067 38.8333 158.067 37.0208C158.067 36.2916 157.828 35.6197 157.427 35.0728L162.494 28.5833C164.359 29.8228 166.593 30.552 169 30.552C172.27 30.552 175.229 29.2083 177.354 27.052L185.489 33.9478C184.687 35.1562 184.218 36.5989 184.218 38.1614C184.218 42.3593 187.625 45.7708 191.833 45.7708C196.031 45.7708 199.442 42.3593 199.442 38.1614C199.442 33.9583 196.031 30.552 191.833 30.552C189.822 30.552 188 31.328 186.635 32.5989L178.5 25.703C179.906 23.7655 180.739 21.3853 180.739 18.8072C180.739 12.328 175.484 7.06763 169 7.06763C162.515 7.06763 157.26 12.328 157.26 18.8072C157.26 22.2499 158.739 25.3437 161.099 27.4947L156.036 33.9843C155.645 33.8228 155.229 33.7343 154.786 33.7343C152.974 33.7343 151.5 35.2083 151.5 37.0208C151.5 38.8333 152.974 40.302 154.786 40.302Z" fill="url(#paint0_linear_449_3)"/>
<path d="M157.546 119.052L138.213 105.432C138.802 104.354 139.135 103.115 139.135 101.797C139.135 97.5937 135.729 94.1874 131.526 94.1874C127.322 94.1874 123.916 97.5937 123.916 101.797C123.916 106 127.322 109.406 131.526 109.406C133.776 109.406 135.802 108.432 137.192 106.875L156.526 120.505C156.406 120.844 156.333 121.213 156.333 121.599C156.333 123.411 157.807 124.885 159.619 124.885C161.432 124.885 162.906 123.411 162.906 121.599C162.906 120.198 162.026 119.005 160.791 118.536L161.072 115.542C161.14 115.542 161.208 115.547 161.27 115.547C167.755 115.547 173.01 110.286 173.01 103.807C173.01 97.3228 167.755 92.0676 161.27 92.0676C154.791 92.0676 149.536 97.3228 149.536 103.807C149.536 109.62 153.76 114.443 159.307 115.375L159.031 118.37C158.473 118.469 157.968 118.713 157.546 119.052Z" fill="url(#paint1_linear_449_3)"/>
<path d="M143.38 56.2655C143.38 56.6458 143.447 57.0103 143.567 57.3541L137.203 61.8176C135.895 60.3489 134.026 59.3958 131.937 59.2812L131.078 45.6458C134.635 45.0051 137.333 41.901 137.333 38.1614C137.333 33.9583 133.927 30.552 129.724 30.552C125.52 30.552 122.114 33.9583 122.114 38.1614C122.114 39.677 122.557 41.0885 123.322 42.276L115.734 48.5103C115.203 48.1353 114.552 47.9166 113.854 47.9166C112.041 47.9166 110.572 49.3853 110.572 51.1978C110.572 53.0103 112.041 54.4843 113.854 54.4843C115.666 54.4843 117.14 53.0103 117.14 51.1978C117.14 50.7291 117.036 50.2812 116.859 49.8749L124.447 43.6405C125.724 44.8697 127.427 45.6562 129.312 45.7603L130.166 59.3958C126.614 60.0364 123.916 63.1405 123.916 66.8801C123.916 71.0833 127.322 74.4895 131.526 74.4895C135.729 74.4895 139.135 71.0833 139.135 66.8801C139.135 65.5728 138.807 64.3385 138.224 63.2655L144.583 58.802C145.151 59.2708 145.875 59.552 146.666 59.552C148.479 59.552 149.947 58.078 149.947 56.2655C149.947 54.4478 148.479 52.9791 146.666 52.9791C144.854 52.9791 143.38 54.4478 143.38 56.2655Z" fill="white"/>
<mask id="mask0_449_3" style="mask-type:luminance" maskUnits="userSpaceOnUse" x="157" y="47" width="48" height="44">
<path d="M157.203 47.9895H204.75V90.6562H157.203V47.9895Z" fill="white"/>
</mask>
<g mask="url(#mask0_449_3)">
<path d="M198.317 53.9061C195.036 53.9061 192.322 56.3436 191.895 59.5103H180.703C180.25 53.4373 175.187 48.6509 169 48.6509C162.515 48.6509 157.26 53.9113 157.26 60.3957C157.26 66.8748 162.515 72.13 169 72.13C175.187 72.13 180.25 67.3488 180.703 61.2759H191.895C192.151 63.1613 193.213 64.7863 194.723 65.7915L190.114 75.3228C189.333 75.0519 188.494 74.9009 187.619 74.9009C183.416 74.9009 180.01 78.3071 180.01 82.5103C180.01 86.7134 183.416 90.1248 187.619 90.1248C191.822 90.1248 195.229 86.7134 195.229 82.5103C195.229 79.8123 193.828 77.4425 191.708 76.0936L196.317 66.5623C196.947 66.7707 197.619 66.88 198.317 66.88C201.906 66.88 204.807 63.9738 204.807 60.3957C204.807 56.8071 201.906 53.9061 198.317 53.9061Z" fill="white"/>
</g>
<path d="M69.26 30.552C70.2964 30.552 71.3016 30.4114 72.26 30.1614L80.8954 55.0728C80.0412 55.6666 79.4839 56.651 79.4839 57.7655C79.4839 59.5833 80.9527 61.052 82.7652 61.052C84.5777 61.052 86.0516 59.5833 86.0516 57.7655C86.0516 55.953 84.5777 54.4843 82.7652 54.4843C82.6975 54.4843 82.635 54.4895 82.5673 54.4947L73.9318 29.578C75.3121 28.9843 76.5516 28.1249 77.5985 27.0728L88.1766 36.078C87.3693 37.2864 86.8954 38.7395 86.8954 40.302C86.8954 44.5051 90.3016 47.9166 94.5048 47.9166C98.7079 47.9166 102.114 44.5051 102.114 40.302C102.114 36.1041 98.7079 32.6926 94.5048 32.6926C92.5048 32.6926 90.6818 33.4687 89.3225 34.7343L78.7443 25.7239C80.161 23.7864 80.9996 21.3958 80.9996 18.8072C80.9996 12.328 75.7391 7.06763 69.26 7.06763C62.7756 7.06763 57.5204 12.328 57.5204 18.8072C57.5204 25.2916 62.7756 30.552 69.26 30.552Z" fill="white"/>
<path d="M64.0881 79.7448C70.5725 79.7448 75.8277 74.4896 75.8277 68.0052C75.8277 61.5208 70.5725 56.2656 64.0881 56.2656C57.6037 56.2656 52.3485 61.5208 52.3485 68.0052C52.3485 73.1042 55.6037 77.4427 60.1506 79.0625L57.4996 88.7813C56.4944 88.7917 55.5933 89.2448 54.9944 89.9635L48.3225 86.974C48.5464 86.2552 48.6714 85.4896 48.6714 84.6927C48.6714 80.4896 45.2652 77.0833 41.0621 77.0833C36.8589 77.0833 33.4475 80.4896 33.4475 84.6927C33.4475 88.8958 36.8589 92.3021 41.0621 92.3021C43.8381 92.3021 46.2652 90.8125 47.5985 88.5885L54.2756 91.5833C54.2496 91.7396 54.2339 91.901 54.2339 92.0677C54.2339 93.8802 55.7027 95.349 57.5204 95.349C59.3329 95.349 60.8016 93.8802 60.8016 92.0677C60.8016 90.8698 60.161 89.8229 59.2027 89.25L61.8589 79.526C62.5829 79.6667 63.3277 79.7448 64.0881 79.7448Z" fill="white"/>
<mask id="mask1_449_3" style="mask-type:luminance" maskUnits="userSpaceOnUse" x="17" y="25" width="49" height="49">
<path d="M17.5308 25.323H65.2027V73.323H17.5308V25.323Z" fill="white"/>
</mask>
<g mask="url(#mask1_449_3)">
<path d="M41.062 60.3958C41.062 58.9375 40.7964 57.5469 40.312 56.2656L58.312 47.9063C58.911 48.6042 59.8068 49.0521 60.8016 49.0521C62.6193 49.0521 64.0881 47.5833 64.0881 45.7708C64.0881 43.9531 62.6193 42.4844 60.8016 42.4844C59.911 42.4844 59.1089 42.8438 58.5152 43.4167L47.0725 36.7656C47.4787 35.8385 47.7027 34.8125 47.7027 33.7344C47.7027 29.5312 44.2964 26.125 40.0933 26.125C35.8902 26.125 32.4839 29.5312 32.4839 33.7344C32.4839 37.9375 35.8902 41.3438 40.0933 41.3438C42.5881 41.3438 44.7964 40.1458 46.187 38.2969L57.6297 44.9479C57.5568 45.2083 57.5204 45.4844 57.5204 45.7708C57.5204 45.9479 57.536 46.125 57.5672 46.2969L39.562 54.6615C37.5516 51.0781 33.7235 48.651 29.3225 48.651C22.8381 48.651 17.5829 53.9115 17.5829 60.3958C17.5829 66.875 22.8381 72.1354 29.3225 72.1354C35.8016 72.1354 41.062 66.875 41.062 60.3958Z" fill="url(#paint2_linear_449_3)"/>
</g>
<path d="M189.093 96.4323C187.64 96.4323 186.296 96.9115 185.218 97.7188L171.849 84.1406C172.125 83.6615 172.286 83.1042 172.286 82.5104C172.286 80.6979 170.812 79.2292 169 79.2292C167.572 79.2292 166.359 80.1406 165.906 81.4219L146.599 80.1302C146.286 78.6354 144.963 77.5156 143.38 77.5156C141.567 77.5156 140.099 78.9844 140.099 80.8021C140.099 82.6146 141.567 84.0833 143.38 84.0833C144.812 84.0833 146.026 83.1719 146.474 81.8958L165.786 83.1823C166.093 84.6771 167.416 85.7969 169 85.7969C169.578 85.7969 170.119 85.6458 170.588 85.3854L183.953 98.9635C183.109 100.057 182.609 101.432 182.609 102.922C182.609 106.505 185.51 109.406 189.093 109.406C192.682 109.406 195.583 106.505 195.583 102.922C195.583 99.3385 192.682 96.4323 189.093 96.4323Z" fill="white"/>
<mask id="mask2_449_3" style="mask-type:luminance" maskUnits="userSpaceOnUse" x="83" y="0" width="65" height="24">
<path d="M83.8693 0H147.869V23.9896H83.8693V0Z" fill="white"/>
</mask>
<g mask="url(#mask2_449_3)">
<path d="M90.3745 16.5103C93.5204 16.5103 96.1402 14.276 96.7391 11.302L106.25 11.901C106.333 18.3124 111.552 23.4843 117.984 23.4843C124.468 23.4843 129.724 18.2291 129.724 11.7447C129.724 10.7968 129.609 9.86971 129.39 8.98429L140.645 5.34888C141.234 6.22909 142.239 6.81763 143.38 6.81763C145.192 6.81763 146.666 5.34367 146.666 3.53117C146.666 1.71867 145.192 0.24471 143.38 0.24471C141.567 0.24471 140.099 1.71867 140.099 3.53117C140.099 3.57284 140.099 3.61971 140.104 3.66138L128.849 7.302C127.099 3.02075 122.895 0.00512695 117.984 0.00512695C112.046 0.00512695 107.145 4.41138 106.359 10.1353L96.8433 9.53638C96.5985 6.18221 93.7964 3.53117 90.3745 3.53117C86.7912 3.53117 83.885 6.43742 83.885 10.0208C83.885 13.6041 86.7912 16.5103 90.3745 16.5103Z" fill="url(#paint3_linear_449_3)"/>
</g>
<mask id="mask3_449_3" style="mask-type:luminance" maskUnits="userSpaceOnUse" x="154" y="113" width="32" height="38">
<path d="M154.536 113.323H185.203V150.464H154.536V113.323Z" fill="white"/>
</mask>
<g mask="url(#mask3_449_3)">
<path d="M176.609 114.287C172.406 114.287 169 117.693 169 121.896C169 123.448 169.468 124.896 170.27 126.099L165.609 130.047C164.458 129.011 162.937 128.38 161.27 128.38C157.687 128.38 154.786 131.287 154.786 134.87C154.786 138.453 157.687 141.36 161.27 141.36C162.234 141.36 163.145 141.151 163.968 140.776L166.562 144.87C166.036 145.448 165.713 146.219 165.713 147.063C165.713 148.875 167.187 150.349 169 150.349C170.812 150.349 172.286 148.875 172.286 147.063C172.286 145.25 170.812 143.776 169 143.776C168.671 143.776 168.354 143.828 168.052 143.917L165.463 139.828C166.869 138.636 167.76 136.86 167.76 134.87C167.76 133.594 167.39 132.401 166.75 131.396L171.411 127.448C172.776 128.724 174.599 129.505 176.609 129.505C180.812 129.505 184.218 126.099 184.218 121.896C184.218 117.693 180.812 114.287 176.609 114.287Z" fill="white"/>
</g>
<path d="M106.244 101.797C103.692 101.797 101.437 103.052 100.057 104.979L93.4371 101.318C94.1194 99.8333 94.5048 98.177 94.5048 96.4322C94.5048 92.9218 92.9631 89.7708 90.5204 87.6197L95.7756 80.651C97.6037 81.828 99.7808 82.5103 102.114 82.5103C108.599 82.5103 113.854 77.2551 113.854 70.7708C113.854 64.2916 108.599 59.0364 102.114 59.0364C95.6298 59.0364 90.3746 64.2916 90.3746 70.7708C90.3746 74.2812 91.9214 77.4322 94.3641 79.5833L89.1037 86.552C87.2756 85.3801 85.1037 84.6926 82.7652 84.6926C76.2808 84.6926 71.0256 89.9478 71.0256 96.4322C71.0256 102.917 76.2808 108.172 82.7652 108.172C86.8694 108.172 90.4839 106.062 92.5829 102.87L99.2027 106.526C98.8381 107.417 98.635 108.391 98.635 109.406C98.635 113.615 102.041 117.021 106.244 117.021C110.447 117.021 113.854 113.615 113.854 109.406C113.854 105.208 110.447 101.797 106.244 101.797Z" fill="url(#paint4_linear_449_3)"/>
<path d="M143.38 114.287C140.114 114.287 137.328 116.344 136.25 119.234L127.192 117.011C127.135 115.245 125.692 113.833 123.916 113.833C123.864 113.833 123.822 113.839 123.77 113.839L116.458 91.5105C117.333 90.922 117.916 89.9167 117.916 88.7813C117.916 86.9688 116.447 85.4949 114.63 85.4949C112.817 85.4949 111.348 86.9688 111.348 88.7813C111.348 90.5938 112.817 92.0678 114.63 92.0678C114.677 92.0678 114.723 92.0626 114.776 92.0574L122.088 114.391C121.213 114.974 120.63 115.979 120.63 117.115C120.63 118.932 122.098 120.401 123.916 120.401C125.14 120.401 126.213 119.729 126.776 118.729L135.833 120.953C135.791 121.261 135.77 121.573 135.77 121.896C135.77 126.099 139.177 129.505 143.38 129.505C147.583 129.505 150.989 126.099 150.989 121.896C150.989 117.693 147.583 114.287 143.38 114.287Z" fill="white"/>
<mask id="mask4_449_3" style="mask-type:luminance" maskUnits="userSpaceOnUse" x="154" y="99" width="14" height="10">
<path d="M154.953 99.9895H167.588V108.963H154.953V99.9895Z" fill="white"/>
</mask>
<g mask="url(#mask4_449_3)">
<path d="M165.125 101.25C164.875 101.161 164.614 101.083 164.338 101.016C164.322 101.177 164.291 101.333 164.255 101.484C164.468 101.536 164.677 101.599 164.869 101.661C164.953 101.531 165.036 101.396 165.125 101.25ZM167.088 102.464C166.958 102.615 166.833 102.755 166.713 102.896C166.802 103.057 166.854 103.229 166.854 103.406C166.854 104.604 164.583 105.589 161.718 105.661C161.599 105.667 161.479 105.667 161.359 105.667C161.328 105.667 161.302 105.667 161.27 105.667C158.276 105.646 155.864 104.641 155.864 103.406C155.864 103.005 156.114 102.63 156.552 102.307C156.52 102.161 156.494 102.005 156.468 101.849C155.526 102.438 154.958 103.224 154.958 104.135C154.958 106.578 156.265 107.781 158.218 108.349C158.27 108.854 159.656 109.255 161.359 109.255C163.062 109.255 164.447 108.854 164.5 108.349C166.453 107.781 167.76 106.578 167.76 104.135C167.76 103.51 167.526 102.948 167.088 102.464Z" fill="white"/>
</g>
<mask id="mask5_449_3" style="mask-type:luminance" maskUnits="userSpaceOnUse" x="161" y="98" width="7" height="8">
<path d="M161.203 98.6562H167.588V105.323H161.203V98.6562Z" fill="white"/>
</mask>
<g mask="url(#mask5_449_3)">
<path d="M167.578 101.307C166.182 102.781 165.432 103.724 164.906 104.672C164.145 104.958 163.208 105.141 162.192 105.208C162.239 105.151 162.291 105.099 162.354 105.052C163.833 103.938 164.619 103.057 166.177 100.276C166.338 99.9844 166.64 99.8281 166.942 99.8281C167.125 99.8281 167.307 99.8802 167.463 99.9948C167.89 100.307 167.942 100.922 167.578 101.307Z" fill="white"/>
</g>
<path d="M159.984 104.391C159.776 104.135 159.557 103.891 159.322 103.656C159.072 103.401 158.802 103.161 158.515 102.937C158.234 102.713 157.937 102.505 157.635 102.302L157.645 102.286C157.963 102.458 158.281 102.641 158.588 102.838C158.88 103.031 159.885 103.62 160.177 103.875C160.197 103.891 160.229 103.88 160.234 103.854C160.807 101.151 157.265 101.375 156.875 101.411C156.859 101.411 156.843 101.427 156.843 101.448C157.265 105.146 159.39 104.651 159.968 104.448C159.989 104.437 160 104.411 159.984 104.391Z" fill="white"/>
<mask id="mask6_449_3" style="mask-type:luminance" maskUnits="userSpaceOnUse" x="159" y="97" width="7" height="7">
<path d="M159.869 97.4792H165.203V103.99H159.869V97.4792Z" fill="white"/>
</mask>
<g mask="url(#mask6_449_3)">
<path d="M163.244 97.5052C163.239 97.4844 163.218 97.4792 163.197 97.4896C158.765 99.9375 160.161 102.349 160.822 103.151C160.838 103.172 160.869 103.172 160.88 103.151C161.109 102.75 161.322 102.349 161.52 101.948C161.979 101.021 162.354 100.073 162.703 99.125C162.708 99.1094 162.718 99.1042 162.734 99.1042H162.75C162.77 99.1042 162.786 99.125 162.781 99.1458C162.583 100.104 162.354 101.057 162.036 102.01C161.89 102.448 161.734 102.88 161.557 103.313C161.546 103.339 161.567 103.365 161.593 103.359C165.453 102.594 163.447 97.9427 163.244 97.5052Z" fill="white"/>
</g>
<path d="M161.343 102.958C161.328 103.281 161.307 103.614 161.234 103.932C161.197 104.109 161.14 104.286 161.093 104.463C161.026 104.713 160.968 104.969 160.927 105.224C160.739 105.219 160.552 105.208 160.369 105.193C160.38 105.125 160.385 105.052 160.38 104.979C160.364 104.875 160.328 104.771 160.286 104.677C160.161 104.401 159.989 104.141 159.781 103.917C159.755 103.891 159.791 103.844 159.822 103.864C159.916 103.917 160.01 103.974 160.099 104.031C160.14 104.062 160.182 104.088 160.224 104.125C160.328 104.213 160.411 104.323 160.489 104.437C160.505 104.463 160.536 104.458 160.546 104.432C160.739 103.906 160.984 103.406 161.281 102.937C161.296 102.906 161.343 102.922 161.343 102.958Z" fill="white"/>
<mask id="mask7_449_3" style="mask-type:luminance" maskUnits="userSpaceOnUse" x="75" y="91" width="9" height="11">
<path d="M75.8694 91.323H83.8694V101.323H75.8694V91.323Z" fill="white"/>
</mask>
<g mask="url(#mask7_449_3)">
<path d="M78.6975 95.547C81.5621 97.0782 82.6402 99.0886 83.0412 100.229C82.9943 99.0313 82.661 96.8438 81.036 94.9584C79.6454 93.3438 77.8433 92.974 76.9943 91.323C76.9943 91.323 75.3954 94.6772 76.7027 97.4584C77.8121 99.823 79.6246 101.068 82.7756 101.13C82.7235 100.807 82.161 97.948 78.4683 95.9792C78.3537 95.9167 78.3068 95.7657 78.3693 95.6511C78.4318 95.5313 78.5777 95.4845 78.6975 95.547Z" fill="white"/>
</g>
<mask id="mask8_449_3" style="mask-type:luminance" maskUnits="userSpaceOnUse" x="83" y="95" width="7" height="7">
<path d="M83.8693 95.9895H89.1766V101.323H83.8693V95.9895Z" fill="white"/>
</mask>
<g mask="url(#mask8_449_3)">
<path d="M88.6193 96.4219C87.8954 96.4219 86.8485 96.5833 85.7391 97.276C84.1922 98.2448 84.0777 99.9427 84.1193 100.719C84.5829 99.9583 85.937 97.9792 87.7235 97.5417C87.8537 97.5104 87.9839 97.5885 88.0152 97.7188C88.0516 97.849 87.9683 97.9844 87.8381 98.0156C86.0464 98.4531 84.6506 100.771 84.411 101.182C84.9006 101.276 85.3329 101.318 85.7235 101.318C87.51 101.318 88.3277 100.391 88.6818 98.9219C89.0829 97.2448 89.635 96.5417 89.635 96.5417C89.635 96.5417 89.2443 96.4219 88.6193 96.4219Z" fill="white"/>
</g>
<mask id="mask9_449_3" style="mask-type:luminance" maskUnits="userSpaceOnUse" x="163" y="9" width="12" height="18">
<path d="M163.255 9.70312H174.739V26.9323H163.255V9.70312Z" fill="white"/>
</mask>
<g mask="url(#mask9_449_3)">
<path d="M167.005 25.052C167.635 25.3228 168.364 25.6458 169.088 25.9687C169.932 25.5937 170.64 25.2864 171.213 25.0364C171.078 24.5728 170.828 23.5155 170.703 22.8072C170.64 22.4426 170.682 22.0989 170.833 21.7655C171.963 19.276 172.322 17.6822 172.291 15.453C171.755 13.802 170.432 12.5155 169.609 11.1562C169.395 10.802 169.244 10.052 169.114 9.72388C168.979 10.052 168.828 10.802 168.614 11.1562C167.791 12.5155 166.468 13.802 165.932 15.453C165.901 17.6822 166.265 19.276 167.39 21.7655C167.541 22.0989 167.583 22.4478 167.52 22.8072C167.395 23.5208 167.14 24.5885 167.005 25.052ZM167.151 15.7708C167.687 14.5572 168.724 12.3749 169.114 11.302C169.088 11.3228 169.099 10.8124 169.114 10.802C169.125 10.8124 169.135 11.3228 169.114 11.302C169.5 12.3749 170.536 14.5572 171.072 15.7708C171.072 15.7708 171.343 19.3333 169.093 19.3333C166.843 19.3333 167.151 15.7708 167.151 15.7708ZM174.953 25.2239C174.937 25.6301 174.239 26.302 172.302 26.8905C172.078 26.9583 171.833 27.0208 171.557 27.078L171.458 27.0364C171.192 26.9166 170.89 26.776 170.567 26.6353C170.182 26.4583 169.77 26.276 169.354 26.0885C170.099 25.7551 170.744 25.4739 171.276 25.2447C172.255 24.828 172.859 24.5885 173.041 24.552C174.25 24.302 174.843 24.8124 174.953 25.2239ZM170.322 26.7603C170.604 26.8853 170.869 27.0051 171.109 27.1145C170.911 27.1562 170.708 27.1874 170.505 27.2135C170.411 27.2239 170.312 27.2343 170.208 27.2395C170.083 27.2499 169.947 27.2603 169.807 27.2655C168.713 27.328 167.244 27.2603 165.906 26.8905C164.088 26.3905 163.27 25.6978 163.255 25.2239C163.364 24.8124 163.958 24.302 165.166 24.552C165.369 24.5937 166.062 24.8801 166.942 25.2551C167.515 25.5051 168.171 25.7968 168.822 26.0885C168.869 26.1041 168.911 26.1249 168.958 26.1458L169.088 26.203C169.515 26.3958 169.932 26.5833 170.322 26.7603ZM167.963 18.453C167.864 18.302 167.796 18.1353 167.765 17.9583C167.729 17.7812 167.734 17.6041 167.77 17.4218C167.807 17.2447 167.875 17.0833 167.979 16.9322C168.083 16.7812 168.208 16.6562 168.359 16.5572C168.51 16.4583 168.677 16.3905 168.859 16.3593C169.036 16.3228 169.213 16.3228 169.39 16.3593C169.567 16.401 169.734 16.4687 169.885 16.5728C170.036 16.6718 170.161 16.802 170.26 16.953C170.359 17.1041 170.427 17.2708 170.458 17.4478C170.494 17.6301 170.489 17.8072 170.453 17.9843C170.416 18.1614 170.349 18.328 170.244 18.4739C170.14 18.6249 170.015 18.7499 169.864 18.8489C169.713 18.953 169.546 19.0155 169.369 19.052C169.187 19.0833 169.01 19.0833 168.833 19.0468C168.656 19.0103 168.489 18.9374 168.338 18.8385C168.187 18.7343 168.062 18.6093 167.963 18.453Z" fill="white"/>
</g>
<mask id="mask10_449_3" style="mask-type:luminance" maskUnits="userSpaceOnUse" x="62" y="12" width="9" height="10">
<path d="M62.187 12.0886H70.536V21.323H62.187V12.0886Z" fill="white"/>
</mask>
<g mask="url(#mask10_449_3)">
<path d="M65.1298 19.2552C66.3745 19.9427 67.8537 20 68.3068 20C68.3902 20 68.437 19.9948 68.4475 19.9948C68.6454 19.9896 68.8016 19.8229 68.7912 19.625C68.786 19.4271 68.6193 19.2708 68.4162 19.276C68.4006 19.276 66.7652 19.3333 65.4787 18.625C64.2443 17.9479 64.0881 16.8802 64.0256 16.4218C63.937 15.8073 63.7079 14.5521 63.2339 13.8281C64.3798 13.8281 66.8068 14.3802 68.1298 18.7604C68.161 18.8646 68.2548 18.9323 68.3589 18.9323C68.385 18.9323 68.4058 18.9271 68.4318 18.9218C68.5568 18.8854 68.6298 18.75 68.5881 18.625C67.6193 15.4114 66.0256 14.1666 64.8641 13.6875C64.7131 13.625 64.562 13.5729 64.4162 13.5312C65.1662 13.4583 66.0777 13.5364 66.9891 14.0156C69.0256 15.0989 68.9891 15.9375 68.9162 17.776L68.911 17.9114C68.9006 18.1093 69.0568 18.276 69.2548 18.2864C69.4579 18.2968 69.6193 18.1406 69.6298 17.9427L69.635 17.8021C69.7131 15.9218 69.7652 14.6718 67.3225 13.3802C64.8902 12.0885 62.4943 13.2864 62.3954 13.3385C62.2704 13.401 62.1923 13.5312 62.1975 13.6718C62.2027 13.8125 62.2912 13.9375 62.4214 13.9896C62.7391 14.1146 63.1298 15.2291 63.312 16.526C63.385 17.0364 63.5829 18.4062 65.1298 19.2552Z" fill="white"/>
</g>
<mask id="mask11_449_3" style="mask-type:luminance" maskUnits="userSpaceOnUse" x="67" y="14" width="11" height="9">
<path d="M67.8694 14.6562H77.1194V22.6563H67.8694V14.6562Z" fill="white"/>
</mask>
<g mask="url(#mask11_449_3)">
<path d="M76.4318 16.875C75.0412 15.7448 72.5464 15.5052 70.786 17.0573C68.3798 19.1927 68.8954 21.7136 68.9162 21.8177C68.9631 22.0157 69.1506 22.1354 69.3433 22.0938C69.536 22.0521 69.661 21.8646 69.6193 21.6667C69.6037 21.5782 69.1818 19.4427 71.2652 17.599C72.3589 16.6302 73.8329 16.5052 74.9839 16.8959C71.0673 17.1354 69.9683 20.3646 69.9579 20.4011C69.9162 20.5261 69.9891 20.6615 70.1141 20.7032C70.1402 20.7084 70.161 20.7136 70.187 20.7136C70.286 20.7136 70.3798 20.6511 70.4162 20.5469C70.4266 20.5157 71.4735 17.4323 75.3173 17.3594C74.9162 17.6979 74.4423 18.1667 74.2131 18.6719C74.1454 18.8125 74.0881 18.9532 74.0256 19.0886C73.3589 20.599 72.8798 21.6875 70.1662 21.8386C69.9683 21.849 69.8173 22.0209 69.8277 22.2188C69.8381 22.4063 69.9995 22.5573 70.187 22.5573C70.1923 22.5573 70.2027 22.5573 70.2079 22.5573C73.3589 22.3802 73.9995 20.9219 74.6818 19.3802C74.7443 19.2448 74.8016 19.1094 74.8641 18.974C75.2183 18.2032 76.385 17.4688 76.3954 17.4584C76.4943 17.3959 76.5568 17.2917 76.5673 17.1771C76.5725 17.0625 76.5256 16.948 76.4318 16.875Z" fill="white"/>
</g>
<mask id="mask12_449_3" style="mask-type:luminance" maskUnits="userSpaceOnUse" x="63" y="21" width="8" height="4">
<path d="M63.8693 21.323H70.536V24.724H63.8693V21.323Z" fill="white"/>
</mask>
<g mask="url(#mask12_449_3)">
<path d="M67.6766 21.5729C66.0672 21.026 64.1922 21.9948 64.1141 22.0364C64.0568 22.0677 64.01 22.125 63.9943 22.1875C63.9787 22.25 63.9891 22.3229 64.0204 22.375C64.0516 22.4271 64.76 23.5573 65.6506 23.9948C66.635 24.4791 67.4162 24.4427 67.9839 24.4114C68.5933 24.3854 68.7547 24.3906 68.8641 24.7812C68.8902 24.8906 68.9891 24.9583 69.0933 24.9583C69.1141 24.9583 69.135 24.9583 69.1558 24.9531C69.286 24.9166 69.3589 24.7864 69.3225 24.6562C69.1141 23.8802 68.5568 23.9062 67.9631 23.9323C67.4162 23.9635 66.7339 23.9948 65.8589 23.5677C65.312 23.2968 64.8225 22.6823 64.5829 22.3489C65.1141 22.1198 66.4214 21.651 67.5204 22.026C68.8797 22.4843 69.0256 23.75 69.0308 23.8021C69.0464 23.9375 69.161 24.0312 69.2912 24.0208C69.4266 24.0052 69.5204 23.8906 69.51 23.7552C69.4995 23.6927 69.3329 22.1354 67.6766 21.5729Z" fill="white"/>
</g>
<mask id="mask13_449_3" style="mask-type:luminance" maskUnits="userSpaceOnUse" x="169" y="59" width="8" height="8">
<path d="M169.203 59.9895H176.39V66.6249H169.203V59.9895Z" fill="white"/>
</mask>
<g mask="url(#mask13_449_3)">
<path fill-rule="evenodd" clip-rule="evenodd" d="M175.796 63.2863L172.744 60.229L169.692 63.2811L172.75 66.3332C173.588 67.1717 174.958 67.1717 175.796 66.3332C176.635 65.4946 176.635 64.1248 175.796 63.2863ZM173.161 61.4321L175.406 63.6769C175.932 64.1978 176.015 65.005 175.656 65.6196C176.01 64.1665 174.729 63.3905 173.161 61.4321Z" fill="white"/>
</g>
<mask id="mask14_449_3" style="mask-type:luminance" maskUnits="userSpaceOnUse" x="167" y="52" width="4" height="6">
<path d="M167.869 52.8386H170.536V57.323H167.869V52.8386Z" fill="white"/>
</mask>
<g mask="url(#mask14_449_3)">
<path fill-rule="evenodd" clip-rule="evenodd" d="M168.942 56.0417C169.369 55.6198 169.609 55.0417 169.609 54.4427C169.609 53.8385 169.369 53.2656 168.942 52.8438C168.515 53.2656 168.276 53.8385 168.276 54.4427C168.276 55.0417 168.515 55.6198 168.942 56.0417Z" fill="white"/>
</g>
<path fill-rule="evenodd" clip-rule="evenodd" d="M168.724 57.7344C168.125 57.7396 167.546 57.5 167.119 57.0781C166.697 56.651 166.458 56.0729 166.463 55.474C167.062 55.4688 167.64 55.7083 168.067 56.1302C168.489 56.5573 168.729 57.1354 168.724 57.7344ZM169.161 57.7344C169.765 57.7396 170.338 57.5 170.765 57.0781C171.192 56.651 171.427 56.0729 171.421 55.474C170.822 55.4688 170.244 55.7083 169.817 56.1302C169.395 56.5573 169.156 57.1354 169.161 57.7344Z" fill="white"/>
<path fill-rule="evenodd" clip-rule="evenodd" d="M169.343 60.6251C170.135 60.6303 170.901 60.3178 171.458 59.7553C172.02 59.1928 172.333 58.4324 172.328 57.6407C171.536 57.6355 170.77 57.948 170.213 58.5053C169.651 59.0678 169.338 59.8282 169.343 60.6251Z" fill="white"/>
<path fill-rule="evenodd" clip-rule="evenodd" d="M168.541 60.6251C167.75 60.6303 166.984 60.3178 166.427 59.7553C165.864 59.1928 165.552 58.4324 165.557 57.6407C166.348 57.6355 167.114 57.948 167.671 58.5053C168.234 59.0678 168.546 59.8282 168.541 60.6251Z" fill="white"/>
<mask id="mask15_449_3" style="mask-type:luminance" maskUnits="userSpaceOnUse" x="161" y="59" width="9" height="8">
<path d="M161.458 59.9895H169.203V66.6249H161.458V59.9895Z" fill="white"/>
</mask>
<g mask="url(#mask15_449_3)">
<path fill-rule="evenodd" clip-rule="evenodd" d="M162.088 63.2863L165.14 60.229L168.192 63.2811L165.135 66.3332C164.296 67.1717 162.927 67.1717 162.088 66.3332C161.25 65.4946 161.25 64.1248 162.088 63.2863ZM164.723 61.4321L162.479 63.6769C161.953 64.1978 161.869 65.005 162.229 65.6196C161.875 64.1665 163.156 63.3905 164.723 61.4321Z" fill="white"/>
</g>
<path d="M117.802 7.3645C115.531 7.3645 113.677 9.21867 113.677 11.4895C113.677 13.7655 115.531 15.6197 117.802 15.6197C120.078 15.6197 121.932 13.7655 121.932 11.4895C121.932 9.21867 120.078 7.3645 117.802 7.3645ZM117.802 14.7916C115.984 14.7916 114.5 13.3124 114.5 11.4895C114.5 9.67179 115.984 8.19263 117.802 8.19263C119.625 8.19263 121.104 9.67179 121.104 11.4895C121.104 13.3124 119.625 14.7916 117.802 14.7916Z" fill="white"/>
<mask id="mask16_449_3" style="mask-type:luminance" maskUnits="userSpaceOnUse" x="117" y="4" width="2" height="3">
<path d="M117.203 4.89062H118.536V6.65625H117.203V4.89062Z" fill="white"/>
</mask>
<g mask="url(#mask16_449_3)">
<path d="M117.802 6.54167C118.031 6.54167 118.218 6.35417 118.218 6.13021V5.30208C118.218 5.07812 118.031 4.89062 117.802 4.89062C117.572 4.89062 117.39 5.07812 117.39 5.30208V6.13021C117.39 6.35938 117.578 6.54167 117.802 6.54167Z" fill="white"/>
</g>
<path d="M114.765 7.05201C114.838 7.18743 114.979 7.26034 115.125 7.26034C115.192 7.26034 115.265 7.24472 115.328 7.20305C115.526 7.09368 115.593 6.83847 115.479 6.64055L115.067 5.92701C114.953 5.7291 114.697 5.66139 114.5 5.77597C114.307 5.89055 114.239 6.14576 114.349 6.33847L114.765 7.05201Z" fill="white"/>
<path d="M113.364 8.45305L112.651 8.04159C112.453 7.92701 112.203 7.99472 112.088 8.19264C111.973 8.38534 112.041 8.64055 112.239 8.75514L112.953 9.16659C113.02 9.20305 113.088 9.22389 113.156 9.22389C113.302 9.22389 113.442 9.14576 113.515 9.01555C113.63 8.81764 113.562 8.56764 113.364 8.45305Z" fill="white"/>
<mask id="mask17_449_3" style="mask-type:luminance" maskUnits="userSpaceOnUse" x="111" y="10" width="3" height="2">
<path d="M111.203 10.6562H113.203V11.9896H111.203V10.6562Z" fill="white"/>
</mask>
<g mask="url(#mask17_449_3)">
<path d="M112.854 11.4896C112.854 11.2656 112.666 11.0781 112.437 11.0781H111.614C111.39 11.0781 111.203 11.2656 111.203 11.4896C111.203 11.7188 111.39 11.9063 111.614 11.9063H112.442C112.666 11.9063 112.854 11.724 112.854 11.4896Z" fill="white"/>
</g>
<path d="M112.953 13.8177L112.239 14.2292C112.041 14.3438 111.973 14.599 112.088 14.7917C112.166 14.9271 112.302 15 112.447 15C112.515 15 112.588 14.9792 112.651 14.9427L113.364 14.5313C113.562 14.4167 113.63 14.1667 113.515 13.9688C113.401 13.7708 113.151 13.7031 112.953 13.8177Z" fill="white"/>
<path d="M115.328 15.7813C115.13 15.6668 114.88 15.7345 114.765 15.9324L114.354 16.6459C114.239 16.8438 114.307 17.0938 114.505 17.2084C114.567 17.2449 114.64 17.2657 114.708 17.2657C114.854 17.2657 114.989 17.1928 115.067 17.0574L115.479 16.3438C115.593 16.1459 115.526 15.8959 115.328 15.7813Z" fill="white"/>
<mask id="mask18_449_3" style="mask-type:luminance" maskUnits="userSpaceOnUse" x="117" y="15" width="2" height="3">
<path d="M117.203 15.9895H118.536V17.8905H117.203V15.9895Z" fill="white"/>
</mask>
<g mask="url(#mask18_449_3)">
<path d="M117.802 16.4426C117.578 16.4426 117.39 16.6301 117.39 16.8541V17.6822C117.39 17.9114 117.578 18.0937 117.802 18.0937C118.031 18.0937 118.218 17.9114 118.218 17.6822V16.8541C118.218 16.6301 118.031 16.4426 117.802 16.4426Z" fill="white"/>
</g>
<path d="M120.843 15.9324C120.729 15.7345 120.474 15.6668 120.281 15.7813C120.083 15.8959 120.015 16.1459 120.13 16.3438L120.541 17.0574C120.619 17.1928 120.755 17.2657 120.901 17.2657C120.968 17.2657 121.041 17.2449 121.104 17.2084C121.302 17.0938 121.369 16.8438 121.255 16.6459L120.843 15.9324Z" fill="white"/>
<path d="M123.369 14.2292L122.656 13.8177C122.458 13.7031 122.208 13.7708 122.093 13.9688C121.979 14.1667 122.046 14.4167 122.244 14.5313L122.958 14.9427C123.02 14.9792 123.093 15 123.161 15C123.307 15 123.442 14.9219 123.52 14.7917C123.635 14.599 123.567 14.3438 123.369 14.2292Z" fill="white"/>
<mask id="mask19_449_3" style="mask-type:luminance" maskUnits="userSpaceOnUse" x="122" y="10" width="3" height="2">
<path d="M122.536 10.6562H124.203V11.9896H122.536V10.6562Z" fill="white"/>
</mask>
<g mask="url(#mask19_449_3)">
<path d="M123.994 11.0781H123.166C122.942 11.0781 122.755 11.2656 122.755 11.4896C122.755 11.7188 122.942 11.9063 123.166 11.9063H123.994C124.218 11.9063 124.406 11.7188 124.406 11.4896C124.406 11.2656 124.218 11.0781 123.994 11.0781Z" fill="white"/>
</g>
<path d="M122.447 9.22389C122.52 9.22389 122.588 9.20826 122.656 9.1718L123.369 8.75514C123.562 8.64055 123.63 8.39055 123.52 8.19264C123.406 7.99472 123.151 7.92701 122.953 8.04159L122.244 8.45305C122.046 8.56764 121.979 8.81764 122.093 9.01555C122.166 9.15097 122.307 9.22389 122.447 9.22389Z" fill="white"/>
<path d="M120.281 7.20305C120.343 7.24472 120.416 7.26034 120.484 7.26034C120.625 7.26034 120.765 7.18743 120.843 7.05201L121.255 6.33847C121.369 6.14576 121.302 5.89055 121.104 5.77597C120.906 5.66139 120.656 5.7291 120.541 5.92701L120.13 6.64055C120.015 6.83847 120.083 7.09368 120.281 7.20305Z" fill="white"/>
<mask id="mask20_449_3" style="mask-type:luminance" maskUnits="userSpaceOnUse" x="57" y="62" width="13" height="13">
<path d="M57.9995 62.2292H69.9995V74.2292H57.9995V62.2292Z" fill="white"/>
</mask>
<g mask="url(#mask20_449_3)">
<path d="M64.3381 74.1667H63.5933C63.3433 74.1667 63.1089 74.1199 62.8798 74.0209C62.6506 73.9272 62.4475 73.7917 62.2756 73.6199C62.0985 73.4428 61.9631 73.2397 61.8693 73.0157C61.7756 72.7865 61.7287 72.547 61.7287 72.3022V70.4324H59.8641C59.6141 70.4324 59.3797 70.3855 59.1506 70.2917C58.9214 70.198 58.7183 70.0626 58.5464 69.8855C58.3693 69.7136 58.2339 69.5105 58.1402 69.2813C58.0464 69.0522 57.9995 68.8178 57.9995 68.5678V67.823C57.9995 67.5782 58.0464 67.3386 58.1402 67.1095C58.2339 66.8803 58.3693 66.6824 58.5464 66.5053C58.7183 66.3282 58.9214 66.198 59.1506 66.099C59.3797 66.0053 59.6141 65.9584 59.8641 65.9584H61.7287V64.0938C61.7287 63.8438 61.7756 63.6095 61.8693 63.3803C61.9631 63.1511 62.0985 62.948 62.2756 62.7761C62.4475 62.599 62.6506 62.4636 62.8798 62.3699C63.1089 62.2761 63.3433 62.2292 63.5933 62.2292H64.3381C64.6714 62.2292 64.9839 62.3126 65.2704 62.4792C65.4735 62.6042 65.5152 62.7709 65.3954 62.9792C65.2756 63.1876 65.1089 63.2345 64.9006 63.1251C64.7235 63.0209 64.5412 62.974 64.3381 62.974H63.5933C63.286 62.974 63.0204 63.0834 62.8016 63.3022C62.5829 63.5209 62.4735 63.7865 62.4735 64.0938V66.3334C62.4735 66.4324 62.437 66.5209 62.3641 66.5938C62.2912 66.6667 62.2027 66.7032 62.0985 66.7032H59.8641C59.5516 66.7032 59.2912 66.8126 59.0725 67.0313C58.8537 67.2501 58.7443 67.5157 58.7443 67.823V68.5678C58.7443 68.8803 58.8537 69.1407 59.0725 69.3595C59.2912 69.5782 59.5516 69.6876 59.8641 69.6876H62.0985C62.2027 69.6876 62.2912 69.724 62.3641 69.797C62.437 69.8699 62.4735 69.9584 62.4735 70.0626V72.3022C62.4735 72.6095 62.5829 72.8751 62.8016 73.0938C63.0204 73.3074 63.286 73.4167 63.5933 73.4167H64.3381C64.6454 73.4167 64.911 73.3074 65.1298 73.0938C65.3485 72.8751 65.4579 72.6095 65.4579 72.3022V70.0626C65.4579 69.9584 65.4943 69.8699 65.5673 69.797C65.6402 69.724 65.7287 69.6876 65.8329 69.6876H68.0673C68.3797 69.6876 68.6402 69.5782 68.8589 69.3595C69.0777 69.1407 69.187 68.8803 69.187 68.5678V67.823C69.187 67.6251 69.1402 67.4376 69.0412 67.2657C68.9266 67.0522 68.9787 66.8855 69.1818 66.7657C69.3902 66.6511 69.5568 66.6876 69.687 66.8907C69.8537 67.1772 69.937 67.4897 69.937 67.823V68.5678C69.9318 68.8178 69.885 69.0522 69.7912 69.2813C69.6975 69.5105 69.562 69.7136 69.385 69.8855C69.2131 70.0626 69.01 70.198 68.7808 70.2917C68.5568 70.3855 68.3173 70.4324 68.0673 70.4324H66.2027V72.3022C66.2027 72.547 66.1558 72.7865 66.062 73.0157C65.9683 73.2397 65.8329 73.4428 65.6558 73.6199C65.4839 73.7917 65.2808 73.9272 65.0516 74.0209C64.8225 74.1199 64.5881 74.1667 64.3381 74.1667Z" fill="white"/>
</g>
<path d="M66.2027 68.1979C66.1297 68.1979 66.062 68.1771 65.9995 68.1354C65.7495 67.9688 63.5933 66.4948 63.5933 65.2135C63.5933 64.901 63.6818 64.6198 63.8589 64.3646C64.036 64.1094 64.2652 63.9271 64.5568 63.8177C64.8485 63.7083 65.1454 63.6927 65.4423 63.7656C65.7443 63.8385 65.9995 63.9948 66.2027 64.224C66.411 63.9948 66.661 63.8385 66.9631 63.7656C67.2652 63.6927 67.562 63.7083 67.8485 63.8177C68.1402 63.9271 68.3745 64.1094 68.5516 64.3646C68.7287 64.6198 68.8173 64.901 68.8173 65.2135C68.8173 66.4948 66.6558 67.9688 66.411 68.1354C66.3485 68.1771 66.2808 68.1979 66.2027 68.1979ZM65.0829 64.4635C64.8798 64.4635 64.7027 64.5365 64.5568 64.6823C64.411 64.8281 64.3381 65.0052 64.3381 65.2135C64.3381 65.7969 65.3693 66.7708 66.2027 67.3698C66.9995 66.8021 68.0673 65.8229 68.0673 65.2135C68.0673 65.0052 67.9943 64.8281 67.8485 64.6823C67.7027 64.5365 67.5308 64.4635 67.3225 64.4635C67.1193 64.4635 66.9423 64.5365 66.7964 64.6823C66.6506 64.8281 66.5777 65.0052 66.5777 65.2135C66.5777 65.3125 66.5412 65.401 66.4683 65.474C66.3954 65.5469 66.3068 65.5833 66.2027 65.5833C66.0985 65.5833 66.0152 65.5469 65.9423 65.474C65.8693 65.401 65.8329 65.3125 65.8329 65.2135C65.8329 65.0052 65.76 64.8281 65.6141 64.6823C65.4683 64.5365 65.2912 64.4635 65.0829 64.4635Z" fill="white"/>
<defs>
<linearGradient id="paint0_linear_449_3" x1="175.471" y1="7.06763" x2="175.471" y2="45.7708" gradientUnits="userSpaceOnUse">
<stop stop-color="white"/>
<stop offset="1" stop-color="white"/>
</linearGradient>
<linearGradient id="paint1_linear_449_3" x1="148.463" y1="92.0676" x2="148.463" y2="124.885" gradientUnits="userSpaceOnUse">
<stop stop-color="white"/>
<stop offset="1" stop-color="white"/>
</linearGradient>
<linearGradient id="paint2_linear_449_3" x1="40.8355" y1="26.125" x2="40.8355" y2="72.1354" gradientUnits="userSpaceOnUse">
<stop stop-color="white"/>
<stop offset="1" stop-color="white"/>
</linearGradient>
<linearGradient id="paint3_linear_449_3" x1="115.276" y1="0.00512695" x2="115.276" y2="23.4843" gradientUnits="userSpaceOnUse">
<stop stop-color="white"/>
<stop offset="1" stop-color="white"/>
</linearGradient>
<linearGradient id="paint4_linear_449_3" x1="92.4397" y1="59.0364" x2="92.4397" y2="117.021" gradientUnits="userSpaceOnUse">
<stop stop-color="white"/>
<stop offset="1" stop-color="white"/>
</linearGradient>
</defs>
</svg>
